{"glyphs":{"0":{"ha":810,"x_min":15,"x_max":795,"o":"m 541 281 q 485 332 520 296 q 413 416 443 374 q 353 512 382 457 q 319 581 323 567 q 298 556 298 581 q 320 495 298 538 q 386 391 342 452 q 467 298 431 330 q 521 264 504 264 q 541 281 538 264 m 688 104 q 405 -11 585 -11 q 123 104 225 -11 q 15 437 15 223 q 124 774 15 650 q 405 897 234 897 q 685 774 576 897 q 795 437 795 650 q 688 104 795 224 z "},"1":{"ha":500,"x_min":-33,"x_max":478,"o":"m 119 426 q 190 433 159 426 q 221 456 221 441 q 215 471 221 465 q 125 456 174 456 q 13 502 58 456 q -33 634 -33 548 q -9 745 -33 691 q 124 779 77 755 q 238 888 191 812 l 359 888 q 446 866 418 888 q 478 773 478 840 l 478 53 q 398 4 444 21 q 304 -12 352 -12 q 175 26 224 -12 q 119 151 119 68 l 119 426 z "},"2":{"ha":768,"x_min":15,"x_max":753,"o":"m 751 572 q 686 391 751 463 q 474 281 614 309 q 497 256 474 256 q 597 281 538 256 q 688 342 656 307 q 753 173 753 278 q 692 7 753 67 l 83 7 q 31 179 31 85 q 67 338 31 274 q 309 433 201 364 q 418 578 418 501 q 409 611 418 598 q 383 624 399 624 q 350 589 350 624 q 374 538 350 554 q 271 447 340 488 q 136 387 202 406 q 15 604 15 467 q 123 820 15 740 q 380 895 223 895 q 640 812 537 895 q 751 572 751 722 z "},"3":{"ha":793,"x_min":15,"x_max":779,"o":"m 201 433 l 212 433 q 223 433 214 433 q 287 311 235 355 q 405 267 338 267 q 458 288 458 267 q 454 302 458 297 q 410 299 437 299 q 302 340 346 299 q 258 448 258 380 q 300 556 258 516 q 411 597 342 597 l 423 597 q 438 595 429 597 q 440 604 440 600 q 404 626 440 626 q 295 591 345 626 q 227 490 245 557 q 70 538 125 490 q 23 644 23 578 q 124 827 23 755 q 386 899 224 899 q 653 818 548 899 q 758 609 758 737 q 696 469 758 524 q 644 484 667 484 q 622 465 622 484 q 626 454 622 457 q 724 414 680 454 q 779 275 779 366 q 663 60 779 138 q 392 -12 556 -12 q 121 62 227 -12 q 15 258 15 136 q 63 384 15 334 q 201 433 112 433 z "},"4":{"ha":807,"x_min":1,"x_max":792,"o":"m 336 414 l 409 414 l 409 505 l 394 505 q 336 427 369 457 l 336 414 m 343 112 l 398 112 q 429 116 420 112 q 439 129 439 119 q 436 144 439 138 l 231 144 q 56 215 117 144 q 1 387 1 279 q 11 486 1 444 q 197 682 111 572 q 338 887 245 743 l 511 887 q 649 841 595 887 q 703 716 703 795 l 703 457 l 688 457 q 659 434 659 457 l 659 425 l 768 425 q 792 289 792 366 q 770 196 792 236 q 702 146 747 157 l 702 43 q 518 -12 626 -12 q 343 39 411 -12 l 343 112 z "},"5":{"ha":785,"x_min":15,"x_max":770,"o":"m 89 429 q 54 459 66 437 q 41 507 41 481 q 43 536 41 511 q 74 810 54 678 q 97 871 81 859 q 160 883 113 883 l 680 883 q 715 728 715 824 q 674 576 715 633 q 593 614 632 602 q 464 633 533 633 l 388 633 l 384 603 l 447 603 q 675 530 587 603 q 770 305 770 450 q 663 74 770 160 q 370 -12 556 -12 q 109 59 203 -12 q 15 239 15 131 q 72 374 15 326 q 207 423 130 423 q 337 379 284 423 q 401 243 397 328 q 432 273 432 243 q 373 399 432 345 q 208 454 314 454 q 89 429 143 454 z "},"6":{"ha":801,"x_min":15,"x_max":786,"o":"m 410 350 q 369 342 384 350 q 382 304 369 319 q 418 290 395 290 q 452 318 452 290 q 410 350 452 350 m 717 774 q 703 672 717 722 q 663 589 690 622 q 495 623 589 623 q 386 607 434 623 q 338 570 338 590 q 342 555 338 562 q 495 593 426 593 q 719 507 643 593 q 786 304 786 429 q 674 68 786 157 q 428 -12 572 -12 q 140 97 252 -12 q 15 429 15 216 q 61 658 15 552 q 202 829 108 764 q 445 897 304 897 q 716 814 625 897 q 717 794 717 808 l 717 774 z "},"7":{"ha":669,"x_min":-33,"x_max":661,"o":"m 661 693 q 643 572 661 640 l 452 239 q 407 88 407 159 q 412 34 407 55 q 256 -12 357 -12 q 100 45 156 -12 q 44 186 44 103 q 84 325 44 250 l 193 532 l 300 532 q 330 554 330 532 l 330 559 q 330 564 330 562 l 30 564 q -16 633 1 589 q -33 725 -33 677 q -14 816 -33 773 q 35 883 4 859 l 420 883 q 661 693 661 883 z "},"8":{"ha":812,"x_min":15,"x_max":798,"o":"m 362 591 q 381 575 362 581 q 428 564 399 569 q 439 589 439 575 q 429 610 439 603 q 400 617 418 617 q 362 591 362 617 m 387 327 q 372 301 372 313 q 383 282 372 289 q 412 275 393 275 q 450 300 450 275 q 387 327 450 315 m 173 397 q 193 420 193 397 q 96 480 133 444 q 39 614 39 534 q 137 818 39 737 q 392 898 234 898 q 655 820 551 898 q 760 623 760 742 q 748 557 760 587 q 718 511 737 526 q 703 521 709 515 q 633 549 657 549 q 612 526 612 549 q 747 441 701 496 q 798 286 798 380 q 684 65 798 147 q 406 -12 576 -12 q 126 70 235 -12 q 15 292 15 151 q 33 389 15 351 q 75 448 50 427 q 122 415 89 433 q 173 397 155 397 z "},"9":{"ha":804,"x_min":15,"x_max":789,"o":"m 394 522 q 434 528 416 522 q 421 567 434 552 q 386 582 408 582 q 351 554 351 582 q 394 522 351 522 m 415 247 q 412 258 415 254 q 345 253 387 253 q 188 287 264 253 q 63 390 111 321 q 15 558 15 458 q 117 803 15 709 q 395 898 219 898 q 680 775 570 898 q 789 458 789 653 q 668 119 789 250 q 334 -12 547 -12 q 203 1 271 -12 q 111 26 138 13 q 78 151 78 81 q 90 224 78 189 q 121 286 102 260 q 215 242 152 262 q 346 222 277 222 q 415 247 415 222 z "},"\r":{"ha":347,"x_min":0,"x_max":0,"o":""},"\u0000":{"ha":0,"x_min":0,"x_max":0,"o":""}," ":{"ha":326,"x_min":0,"x_max":0,"o":""},"!":{"ha":392,"x_min":0,"x_max":392,"o":"m 297 397 q 235 412 262 412 q 208 387 208 412 l 208 385 q 338 322 285 379 q 392 187 392 266 q 334 50 392 108 q 195 -7 276 -7 q 57 51 115 -7 q 0 188 0 108 q 27 288 0 242 q 100 360 55 334 q 35 522 60 431 q 11 712 11 614 l 11 933 q 85 966 39 954 q 177 979 130 979 q 324 928 279 979 q 369 755 369 877 l 369 712 q 297 397 369 555 z "},"\"":{"ha":631,"x_min":14,"x_max":618,"o":"m 334 565 l 334 907 q 390 924 349 914 q 466 930 423 930 q 554 921 509 930 q 618 892 598 911 l 595 565 q 464 526 554 526 q 334 565 373 526 m 164 930 q 298 907 250 930 l 298 565 q 163 526 257 526 q 90 536 125 526 q 38 565 56 545 q 14 892 38 565 q 74 920 30 911 q 164 930 117 930 z "},"#":{"ha":918,"x_min":14,"x_max":905,"o":"m 447 54 l 456 109 q 486 127 486 109 q 485 140 486 134 l 423 140 l 410 41 q 251 -7 342 -7 q 142 20 180 -7 q 98 111 98 50 l 103 111 q 137 132 137 111 q 136 140 137 134 l 59 140 q 14 275 14 203 q 24 346 14 315 q 59 412 35 376 l 125 412 q 156 430 156 412 q 155 443 156 437 l 89 443 q 50 578 50 505 q 61 649 50 618 q 96 715 72 680 l 175 715 q 209 736 209 715 q 208 745 209 739 l 180 745 l 193 829 q 273 861 238 850 q 355 871 309 871 q 462 838 425 871 q 498 746 498 804 q 496 715 498 731 l 536 715 q 565 732 565 715 q 564 745 565 739 l 537 745 q 538 753 538 747 l 538 761 q 515 827 538 791 q 683 871 591 871 q 789 838 753 871 q 826 746 826 804 q 824 715 826 731 l 859 715 q 894 648 883 680 q 905 578 905 617 q 859 443 905 507 l 789 443 q 758 426 758 443 q 760 412 758 418 l 831 412 q 871 274 871 345 q 825 140 871 204 l 751 140 l 737 41 q 584 -7 680 -7 q 447 54 487 -7 m 462 488 l 453 488 l 440 401 q 446 386 440 390 q 464 382 452 382 l 473 382 q 486 473 486 465 q 481 484 486 479 q 462 488 476 488 z "},"$":{"ha":767,"x_min":-7,"x_max":787,"o":"m 385 247 q 412 265 412 247 q 399 308 412 283 q 363 354 387 333 q 201 410 302 410 q 115 398 152 410 q 26 472 60 418 q -7 593 -7 526 q 88 796 -7 720 q 301 880 168 860 q 302 887 302 882 q 281 906 302 906 q 242 898 270 906 l 242 971 q 388 1015 304 1015 q 543 971 471 1015 l 543 875 q 714 821 655 854 q 730 720 730 775 q 681 560 730 614 q 599 594 654 579 q 494 609 544 609 q 428 601 445 609 q 410 584 410 593 q 412 572 410 578 q 473 578 436 578 q 689 514 604 578 q 787 292 787 438 q 712 106 787 186 q 499 -1 636 26 q 498 -9 498 -3 q 519 -28 498 -28 q 558 -20 530 -28 l 558 -93 q 413 -136 496 -136 q 257 -93 329 -136 l 257 -4 q 59 60 146 11 q 8 204 8 129 q 60 330 8 279 q 189 380 113 380 q 314 349 265 380 q 385 247 362 317 z "},"%":{"ha":954,"x_min":14,"x_max":941,"o":"m 298 543 q 316 511 298 511 q 334 543 334 511 q 330 630 334 610 q 309 650 326 650 q 298 648 302 650 l 298 543 m 651 241 q 669 210 651 210 q 687 241 687 210 q 683 329 687 309 q 661 349 678 349 q 651 347 654 349 l 651 241 m 14 580 q 92 802 14 716 q 305 888 170 888 q 437 859 378 888 q 533 775 496 829 l 602 876 q 671 888 632 888 q 824 832 752 888 q 910 706 892 778 l 824 577 q 725 604 768 604 q 700 583 700 604 q 701 576 700 578 q 876 486 811 564 q 941 288 941 409 q 864 74 941 154 q 649 -7 787 -7 q 517 23 575 -7 q 420 106 458 52 l 352 5 q 283 -7 322 -7 q 131 50 203 -7 q 44 176 62 104 l 130 304 q 229 278 186 278 q 254 298 254 278 l 254 302 q 254 304 254 302 q 78 388 140 317 q 14 580 14 460 z "},"&":{"ha":876,"x_min":10,"x_max":869,"o":"m 185 538 q 144 597 161 557 q 127 681 127 637 q 195 835 127 777 q 389 893 262 893 q 562 828 498 893 q 618 689 618 772 q 576 621 618 633 l 444 584 q 279 400 279 538 q 330 277 279 327 q 441 231 376 231 q 484 241 465 231 q 502 268 502 250 q 495 283 502 277 q 479 288 489 288 q 441 262 454 288 q 350 306 386 266 q 315 400 315 345 q 349 495 315 455 q 455 556 383 535 l 587 594 q 648 675 648 612 q 722 689 686 689 q 826 646 783 689 q 869 536 869 601 q 832 432 869 471 q 745 379 795 394 l 734 376 l 734 372 q 755 353 734 353 q 774 359 764 353 q 804 269 804 326 q 780 159 804 213 q 707 65 755 105 q 420 -25 602 -25 q 127 60 239 -25 q 10 288 10 146 q 185 538 10 478 z "},"'":{"ha":334,"x_min":14,"x_max":320,"o":"m 164 526 q 90 536 125 526 q 38 565 56 545 l 14 892 q 74 920 30 911 q 164 930 117 930 q 256 921 212 930 q 320 892 300 911 l 297 565 q 164 526 256 526 z "},"(":{"ha":398,"x_min":0,"x_max":412,"o":"m 327 460 l 327 458 q 352 223 327 340 q 412 18 376 106 q 325 -43 381 -18 q 218 -73 269 -68 q 79 120 140 -4 q 0 457 0 281 q 76 787 0 632 q 218 977 135 907 q 325 948 268 973 q 412 886 381 922 q 327 460 327 672 z "},")":{"ha":398,"x_min":-14,"x_max":398,"o":"m -14 886 q 73 947 17 922 q 180 977 130 973 q 322 787 263 907 q 398 456 398 632 q 319 120 398 280 q 180 -73 259 -3 q 74 -43 128 -68 q -14 18 18 -18 q 46 223 22 106 q 71 458 71 340 l 71 460 q -14 886 71 672 z "},"*":{"ha":492,"x_min":3,"x_max":489,"o":"m 435 585 q 392 515 435 546 q 330 493 362 493 q 246 532 298 493 q 163 493 194 493 q 105 512 132 493 q 67 549 77 530 q 58 588 58 567 q 71 657 58 610 q 3 758 3 705 q 9 789 3 770 q 53 846 24 831 q 138 862 81 861 q 179 939 155 916 q 246 962 203 962 q 313 939 289 962 q 354 862 338 916 q 440 846 411 861 q 484 789 469 831 q 489 758 489 770 q 472 704 489 728 q 422 657 454 681 q 435 585 435 610 z "},"+":{"ha":726,"x_min":7,"x_max":720,"o":"m 360 811 q 494 777 447 811 q 544 665 544 739 l 544 576 l 663 576 q 706 494 692 533 q 720 407 720 456 q 706 320 720 359 q 663 241 692 282 l 490 241 q 488 231 488 237 q 509 210 488 213 l 544 210 l 544 96 q 368 27 482 27 q 234 62 280 27 q 184 174 184 99 l 184 241 l 63 241 q 7 407 7 319 q 21 495 7 456 q 63 576 35 535 l 204 576 q 238 595 238 576 q 237 608 238 602 l 184 608 l 184 742 q 360 811 248 811 z "},",":{"ha":418,"x_min":14,"x_max":412,"o":"m 248 51 q 239 67 248 58 q 165 52 210 52 q 58 95 103 52 q 14 208 14 138 q 68 339 14 292 q 205 387 123 387 q 359 319 302 387 q 412 154 412 254 q 340 -45 412 28 q 185 -111 276 -111 q 86 -86 123 -111 q 50 -12 50 -62 q 70 44 50 20 q 164 21 113 21 q 248 51 248 21 z "},"-":{"ha":489,"x_min":7,"x_max":482,"o":"m 482 414 q 482 390 482 414 q 468 327 482 366 q 425 248 454 289 l 63 248 q 7 414 7 326 q 21 502 7 463 q 63 583 35 542 l 425 583 q 469 501 455 540 q 482 414 482 463 z "},".":{"ha":412,"x_min":14,"x_max":406,"o":"m 71 328 q 209 385 129 385 q 348 328 289 385 q 406 188 406 269 q 348 50 406 108 q 209 -7 290 -7 q 71 51 128 -7 q 14 188 14 108 q 71 328 14 269 z "},"/":{"ha":484,"x_min":27,"x_max":484,"o":"m 312 888 q 417 865 366 888 q 484 811 457 845 l 378 55 q 208 -7 326 -7 q 99 15 147 -7 q 27 72 52 37 l 131 817 q 312 888 189 888 z "},":":{"ha":412,"x_min":14,"x_max":406,"o":"m 245 342 q 269 317 245 317 q 333 339 301 317 q 386 272 367 312 q 406 188 406 233 q 348 51 406 108 q 210 -7 291 -7 q 71 50 129 -7 q 14 188 14 107 q 39 284 14 237 q 111 358 64 331 q 40 429 66 385 q 14 526 14 473 q 72 666 14 608 q 210 724 130 724 q 348 666 290 724 q 406 530 406 607 q 360 402 406 453 q 245 342 315 351 z "},";":{"ha":419,"x_min":14,"x_max":412,"o":"m 248 51 q 239 67 248 58 q 165 52 211 52 q 59 95 104 52 q 14 208 14 138 q 103 363 14 317 q 38 432 62 389 q 14 526 14 475 q 72 666 14 608 q 210 724 130 724 q 348 666 290 724 q 406 530 406 607 q 360 402 406 453 q 245 342 315 351 q 269 317 245 317 q 305 325 286 317 q 336 340 325 332 q 393 262 373 311 q 412 154 412 213 q 341 -45 412 28 q 186 -111 277 -111 q 88 -87 123 -111 q 50 -12 50 -62 q 71 44 50 20 q 165 21 113 21 q 248 51 248 21 z "},"<":{"ha":627,"x_min":3,"x_max":623,"o":"m 473 399 l 557 342 q 623 224 623 297 q 587 118 623 168 q 488 26 559 79 l 55 259 q 3 423 3 340 q 56 598 3 526 l 488 814 q 577 720 545 772 q 610 614 610 667 q 561 491 610 536 q 346 397 500 435 q 374 375 346 375 q 473 399 401 375 z "},"=":{"ha":647,"x_min":3,"x_max":644,"o":"m 644 239 q 592 90 644 160 l 54 90 q 3 239 3 159 q 15 318 3 284 q 54 393 27 353 l 592 393 q 631 318 619 353 q 644 239 644 284 m 644 582 q 644 560 644 582 q 631 503 644 538 q 592 431 619 469 l 54 431 q 3 581 3 502 q 15 660 3 626 q 54 734 27 694 q 592 734 54 734 q 631 660 619 694 q 644 582 644 625 z "},">":{"ha":612,"x_min":3,"x_max":608,"o":"m 147 426 q 38 506 73 458 q 3 608 3 553 q 36 715 3 663 q 125 810 68 768 l 557 593 q 596 514 583 555 q 608 418 608 473 q 557 254 608 334 l 142 28 q 41 123 75 77 q 6 227 6 170 q 28 305 6 271 q 123 378 56 347 q 267 441 123 378 q 249 459 265 459 q 238 459 243 459 q 147 426 234 458 z "},"?":{"ha":730,"x_min":-7,"x_max":730,"o":"m 382 657 q 355 690 382 690 q 328 661 328 690 q 330 646 328 652 q 333 637 332 640 q 294 618 326 631 q 134 507 170 567 q 35 579 76 524 q -7 704 -7 633 q 96 909 -7 828 q 351 991 198 991 q 640 895 538 991 q 730 671 730 808 q 694 523 730 588 q 607 415 659 458 q 504 346 556 371 q 463 375 485 364 q 427 385 440 385 q 408 381 414 385 q 403 363 403 376 q 503 296 465 345 q 541 181 541 246 q 484 49 541 104 q 345 -7 425 -7 q 207 49 264 -7 q 149 181 149 104 q 186 296 149 246 q 142 399 142 340 q 181 513 142 471 q 310 591 214 549 q 366 623 349 608 q 382 657 382 638 z "},"@":{"ha":1178,"x_min":14,"x_max":1164,"o":"m 597 372 q 575 351 575 372 q 601 332 575 332 q 627 341 618 332 q 636 372 636 350 l 597 372 m 570 138 q 655 146 629 138 q 682 172 682 154 q 680 181 682 176 q 567 167 628 167 q 419 210 475 167 q 356 340 356 258 q 408 467 356 422 q 543 511 460 511 q 656 497 604 511 q 657 506 657 504 q 624 531 657 522 q 543 541 591 541 q 382 489 443 541 q 321 340 321 437 q 390 191 321 243 q 570 138 459 138 m 583 -144 q 293 -72 423 -144 q 90 126 163 0 q 14 414 14 255 q 56 652 14 546 q 176 833 99 759 q 357 946 253 907 q 583 984 462 984 q 889 914 758 984 q 1093 719 1021 844 q 1164 431 1164 593 q 1014 7 1164 156 q 583 -144 863 -144 m 417 659 q 587 688 505 688 q 775 630 711 688 q 840 469 840 572 l 840 361 q 859 302 840 321 q 905 283 878 283 q 921 302 921 283 q 886 320 897 307 q 874 360 874 333 l 874 490 q 808 644 874 581 q 587 720 729 720 q 471 706 530 720 q 413 674 413 690 q 417 659 413 665 z "},"A":{"ha":915,"x_min":9,"x_max":912,"o":"m 443 446 q 460 440 448 440 q 479 445 471 440 q 456 567 462 548 q 433 587 448 587 q 417 583 427 587 l 443 446 m 309 242 q 302 224 302 233 q 339 192 302 205 q 429 175 376 178 q 448 64 437 77 q 376 13 435 39 q 245 -12 318 -12 q 79 30 148 -12 q 9 137 9 71 q 13 168 9 155 l 157 814 q 287 868 212 848 q 444 888 362 888 q 643 848 560 888 q 758 719 737 804 l 912 79 q 682 -12 842 -12 q 551 16 605 -12 q 489 95 498 43 l 474 178 q 553 193 515 178 q 591 224 591 208 q 582 242 591 235 q 519 214 556 224 q 450 205 481 205 q 309 242 358 205 z "},"B":{"ha":831,"x_min":22,"x_max":844,"o":"m 390 265 q 406 263 393 263 q 425 272 418 263 q 432 303 432 281 l 432 316 q 426 352 432 341 q 407 363 420 363 q 389 360 394 363 q 390 349 390 357 l 390 265 m 390 521 q 406 519 393 519 q 425 529 418 519 q 432 562 432 539 l 432 566 q 426 601 432 591 q 407 612 420 612 q 389 609 394 612 q 390 597 390 606 l 390 521 m 22 782 q 47 817 22 798 q 239 882 102 859 q 395 893 310 893 q 703 814 599 893 q 795 633 795 745 q 781 553 795 592 q 740 494 766 514 q 671 513 704 513 q 647 507 655 513 q 639 484 639 500 q 794 412 739 480 q 844 259 844 351 q 725 53 844 117 q 390 -7 614 -7 q 160 2 233 -7 q 54 49 87 12 q 22 160 22 85 l 22 782 z "},"C":{"ha":860,"x_min":15,"x_max":850,"o":"m 461 270 q 473 273 468 270 l 473 335 q 603 386 519 366 q 764 406 686 406 q 824 296 800 369 q 850 164 848 223 q 804 106 836 137 q 726 48 772 75 q 468 -18 614 -18 q 139 103 259 -18 q 15 443 15 226 q 151 785 15 661 q 290 868 210 840 q 456 897 369 897 q 736 814 627 897 q 846 610 846 731 q 789 474 846 518 q 637 431 733 431 q 530 457 584 431 q 467 506 477 483 q 469 593 467 562 q 464 594 467 594 l 459 594 q 443 588 449 594 q 433 564 437 583 q 429 465 429 546 q 461 270 429 270 z "},"D":{"ha":857,"x_min":22,"x_max":842,"o":"m 432 468 q 426 561 432 536 q 404 587 420 587 q 385 580 393 587 q 389 547 387 568 q 392 460 392 527 l 392 416 q 390 349 392 370 q 387 313 388 328 q 385 297 386 305 q 404 290 393 290 q 426 316 420 290 q 432 409 432 341 l 432 468 m 179 -1 q 63 39 104 -1 q 22 160 22 79 l 22 770 q 125 858 22 822 q 356 893 229 893 q 707 785 581 893 q 842 437 842 668 q 711 114 842 229 q 351 -1 580 -1 l 179 -1 z "},"E":{"ha":754,"x_min":22,"x_max":766,"o":"m 327 875 l 718 875 q 747 804 738 842 q 757 735 757 766 q 730 632 757 667 q 655 597 703 597 l 382 597 q 357 578 357 597 l 357 572 q 358 567 357 568 l 682 567 q 703 514 694 546 q 711 452 711 479 q 682 326 711 372 l 534 326 q 395 318 431 326 q 349 305 358 311 q 340 290 340 299 q 350 275 340 280 q 424 291 385 286 q 534 296 475 296 l 725 296 q 766 155 766 237 q 755 67 766 109 q 720 -1 743 25 l 212 -1 q 77 40 128 -1 q 22 168 22 83 l 22 812 q 96 860 22 845 q 327 875 171 875 z "},"F":{"ha":741,"x_min":21,"x_max":764,"o":"m 417 223 l 417 52 q 334 6 386 24 q 208 -12 282 -12 q 80 21 134 -12 q 21 123 21 57 l 21 812 q 327 875 21 875 l 725 875 q 754 794 745 839 q 764 715 764 750 q 627 559 764 559 l 393 559 q 367 538 367 559 l 367 533 q 368 528 367 529 l 668 528 q 703 395 703 469 q 661 251 703 302 l 329 251 q 323 239 323 245 q 340 226 323 228 q 378 224 357 224 q 417 223 399 224 z "},"G":{"ha":911,"x_min":15,"x_max":910,"o":"m 469 565 l 871 565 q 910 428 910 509 q 877 298 910 348 l 849 298 l 849 94 q 496 -22 715 -22 q 259 26 363 -22 q 83 174 146 77 q 15 437 15 281 q 148 781 15 659 q 490 897 274 897 q 691 865 596 897 q 840 785 785 833 q 830 686 840 745 q 806 595 821 627 l 448 595 q 407 529 427 572 q 388 429 388 486 q 427 308 388 352 q 513 268 460 268 q 535 283 535 268 l 535 298 l 528 298 q 453 333 483 298 q 424 433 424 368 q 469 565 424 515 z "},"H":{"ha":871,"x_min":22,"x_max":850,"o":"m 850 719 l 850 45 q 655 -12 774 -12 q 510 25 564 -12 q 454 135 454 63 l 454 269 l 502 269 q 537 276 530 269 q 544 300 544 283 l 331 300 q 337 276 331 283 q 366 269 343 269 l 418 269 l 418 45 q 319 -1 366 11 q 223 -12 272 -12 q 78 25 132 -12 q 22 135 22 63 l 22 810 q 109 867 57 847 q 217 887 161 887 q 356 846 299 887 q 418 719 418 800 l 418 598 l 504 598 q 497 622 504 616 q 477 629 491 629 l 454 629 l 454 810 q 541 867 489 847 q 649 887 593 887 q 788 846 731 887 q 850 719 850 800 z "},"I":{"ha":439,"x_min":22,"x_max":418,"o":"m 418 752 l 418 52 q 334 6 387 24 q 208 -12 282 -12 q 81 21 133 -12 q 22 123 22 57 l 22 823 q 105 869 53 850 q 231 887 157 887 q 359 854 305 887 q 418 752 418 817 z "},"J":{"ha":685,"x_min":15,"x_max":663,"o":"m 663 310 q 572 77 663 167 q 307 -19 476 -19 q 123 31 210 -19 q 22 119 56 69 q 15 194 15 160 q 82 363 15 304 q 216 411 136 411 q 326 379 276 411 q 399 286 376 345 q 421 308 421 286 q 411 338 421 319 q 383 376 401 357 q 267 437 335 426 l 267 828 q 353 870 301 853 q 470 887 404 887 q 589 864 536 887 q 663 762 663 830 l 663 310 z "},"K":{"ha":863,"x_min":22,"x_max":870,"o":"m 418 746 l 418 715 q 376 628 391 659 q 362 585 362 596 q 385 565 362 565 l 518 858 q 646 888 565 888 q 785 844 727 888 q 849 707 849 793 q 800 564 849 634 q 670 442 750 494 q 603 463 633 463 q 573 434 573 463 q 630 417 604 428 q 690 374 655 406 l 870 208 q 650 -12 850 -12 q 524 26 576 -12 q 426 160 461 70 l 363 317 l 359 317 q 337 298 337 317 q 356 239 337 286 q 413 104 375 189 l 413 52 q 206 -12 342 -12 q 81 21 133 -12 q 22 123 22 57 l 22 823 q 234 887 92 887 q 359 856 308 887 q 418 746 418 819 z "},"L":{"ha":724,"x_min":22,"x_max":724,"o":"m 179 -1 q 63 39 104 -1 q 22 160 22 79 l 22 823 q 110 870 58 854 q 217 887 161 887 q 356 846 299 887 q 418 719 418 800 l 418 348 q 343 327 380 345 q 307 290 307 309 q 319 270 307 278 q 519 326 387 326 l 680 326 q 724 165 724 248 q 710 75 724 125 q 672 -1 696 26 l 179 -1 z "},"M":{"ha":989,"x_min":5,"x_max":985,"o":"m 768 -12 q 622 18 675 -12 q 560 109 565 50 l 554 172 q 659 250 616 187 q 671 280 671 267 q 653 298 671 298 l 651 298 q 648 297 650 297 q 494 197 601 197 q 402 221 440 197 q 332 303 363 245 l 328 303 q 309 288 309 303 q 317 263 309 277 q 385 192 345 218 q 452 166 417 170 l 447 38 q 361 0 406 12 q 233 -12 316 -12 q 85 20 150 -12 q 5 132 5 60 q 40 570 5 220 q 71 825 59 753 q 277 888 140 888 q 441 851 376 888 l 478 726 l 454 627 q 452 607 452 616 q 479 583 452 583 l 543 850 q 616 877 571 865 q 713 888 661 888 q 860 854 812 888 q 917 741 908 821 q 923 692 919 726 q 985 67 985 161 q 768 -12 909 -12 z "},"N":{"ha":845,"x_min":22,"x_max":823,"o":"m 22 125 l 22 805 q 78 864 22 840 q 212 887 135 887 q 293 877 255 887 q 352 850 332 866 q 403 778 380 814 q 507 607 426 741 q 520 612 514 607 q 526 626 526 616 q 509 665 526 636 l 436 791 l 436 828 q 520 872 471 857 q 623 888 570 888 q 762 857 709 888 q 823 740 823 819 l 823 98 q 768 13 823 39 q 641 -11 720 -11 q 555 -1 597 -11 q 490 23 513 8 q 394 161 441 85 l 325 277 q 305 256 305 274 q 325 212 305 244 l 410 75 l 410 39 q 232 -12 331 -12 q 78 24 134 -12 q 22 125 22 60 z "},"O":{"ha":913,"x_min":15,"x_max":899,"o":"m 488 468 q 481 561 488 536 q 459 587 475 587 q 441 580 449 587 q 445 547 442 568 q 448 460 448 527 l 448 416 q 446 349 448 370 q 442 313 444 328 q 441 297 441 305 q 459 290 449 290 q 481 316 475 290 q 488 409 488 341 l 488 468 m 460 -22 q 239 28 340 -22 q 77 181 138 78 q 15 437 15 283 q 149 786 15 661 q 456 897 269 897 q 780 770 661 897 q 899 437 899 644 q 771 87 899 208 q 460 -22 655 -22 z "},"P":{"ha":813,"x_min":22,"x_max":823,"o":"m 401 455 q 416 453 404 453 q 436 463 429 453 q 443 496 443 473 l 443 548 q 437 583 443 572 q 418 593 431 593 q 400 591 405 593 q 401 579 401 587 l 401 455 m 418 149 l 418 45 q 334 4 388 20 q 220 -12 279 -12 q 83 20 136 -12 q 22 128 22 58 l 22 772 q 51 816 22 794 q 133 855 81 838 q 389 893 245 893 q 705 794 587 893 q 823 528 823 695 q 717 268 823 361 q 433 180 614 180 q 344 190 391 180 q 281 207 297 199 q 275 192 275 201 q 418 149 275 157 z "},"Q":{"ha":976,"x_min":15,"x_max":975,"o":"m 389 321 q 399 305 389 309 q 446 337 416 323 q 513 351 475 351 q 631 309 584 351 q 635 305 631 309 q 644 322 644 310 q 611 362 644 343 q 512 383 572 383 q 482 380 496 383 l 482 557 q 462 587 482 587 q 442 557 442 587 l 442 371 q 389 321 389 349 m 444 -1 q 231 44 327 -1 q 79 181 136 88 q 15 443 15 286 q 80 707 15 600 q 238 850 138 803 q 454 897 338 897 q 784 773 664 897 q 903 452 903 650 q 852 239 903 330 l 950 239 q 975 100 975 165 q 920 -59 975 1 q 766 -119 865 -119 q 603 -55 668 -119 q 498 150 538 10 l 494 150 q 473 128 473 150 q 518 3 473 87 q 444 -1 483 -1 z "},"R":{"ha":854,"x_min":22,"x_max":868,"o":"m 401 482 q 416 480 404 480 q 436 490 429 480 q 443 524 443 500 l 443 548 q 437 583 443 572 q 418 593 431 593 q 400 591 405 593 q 401 579 401 587 l 401 482 m 751 328 l 868 208 q 801 45 856 102 q 650 -12 747 -12 q 524 22 578 -12 q 422 161 456 66 l 397 227 q 326 235 369 228 q 320 220 320 229 q 375 198 320 201 l 414 100 l 414 43 q 214 -12 336 -12 q 74 24 126 -12 q 22 128 22 60 l 22 772 q 77 830 22 802 q 220 876 132 859 q 398 893 309 893 q 716 810 602 893 q 837 564 837 722 q 786 408 837 473 q 656 318 734 343 q 683 296 656 296 q 751 328 709 296 z "},"S":{"ha":797,"x_min":1,"x_max":816,"o":"m 387 247 q 409 270 409 251 q 397 312 409 288 q 362 356 385 335 q 199 410 302 410 q 104 393 148 410 q 29 469 57 417 q 1 580 1 520 q 132 821 1 736 q 408 893 243 893 q 613 867 530 893 q 749 800 696 841 q 765 707 765 755 q 752 620 765 659 q 715 557 739 581 q 631 591 692 574 q 522 609 571 609 q 455 603 472 609 q 439 584 439 597 q 441 572 439 578 q 502 578 465 578 q 718 516 634 578 q 816 292 816 441 q 709 74 816 161 q 399 -19 594 -19 q 214 -3 292 -19 q 60 53 135 13 q 9 203 9 127 q 62 330 9 279 q 190 380 114 380 q 315 349 267 380 q 387 247 363 317 z "},"T":{"ha":819,"x_min":5,"x_max":814,"o":"m 608 528 l 608 52 q 524 6 576 24 q 397 -12 472 -12 q 271 21 323 -12 q 212 123 212 57 l 212 559 l 54 559 q 5 712 5 629 q 23 810 5 768 q 67 875 41 852 l 768 875 q 801 801 788 844 q 814 715 814 758 q 779 597 814 635 q 684 559 743 559 l 485 559 q 483 549 483 555 q 497 533 483 537 q 561 528 512 528 l 608 528 z "},"U":{"ha":833,"x_min":22,"x_max":811,"o":"m 610 887 q 751 843 692 887 q 811 718 811 799 l 811 340 q 706 75 811 168 q 415 -18 601 -18 q 127 73 230 -18 q 22 340 22 165 l 22 824 q 207 888 102 888 q 347 841 295 888 q 398 701 398 795 l 398 305 q 415 300 406 300 q 430 305 425 300 q 434 324 434 310 l 434 701 q 430 769 434 744 q 414 819 426 794 q 610 887 495 887 z "},"V":{"ha":859,"x_min":1,"x_max":854,"o":"m 428 747 l 406 317 q 420 315 414 315 q 446 349 443 315 l 475 842 q 553 875 496 861 q 650 887 606 887 q 803 840 752 887 q 854 720 854 793 q 820 534 854 678 q 724 144 787 390 q 620 20 701 58 q 433 -12 549 -12 q 295 4 360 -12 q 191 51 230 20 q 83 375 137 169 q 1 793 28 582 q 204 888 65 888 q 428 747 383 888 z "},"W":{"ha":1219,"x_min":1,"x_max":1214,"o":"m 398 -12 q 288 -1 332 -12 q 199 39 227 12 q 90 334 135 174 q 1 793 26 557 q 85 863 32 838 q 203 888 138 888 q 356 850 300 888 q 412 744 412 813 q 404 593 408 692 q 400 412 400 493 q 405 377 400 390 q 423 365 409 365 q 437 367 429 365 q 436 387 436 373 l 436 411 q 443 638 436 509 q 459 829 450 766 q 604 867 521 867 q 739 844 688 867 q 803 761 800 816 q 790 630 800 694 q 768 481 781 566 q 752 370 755 397 q 766 368 758 368 q 783 374 775 368 q 795 407 790 381 q 829 636 816 515 q 847 846 843 756 q 1019 888 909 888 q 1161 841 1108 888 q 1214 714 1214 793 q 1164 437 1214 661 q 1114 235 1138 319 q 1076 117 1090 151 q 982 19 1044 49 q 824 -12 920 -12 q 735 0 785 -12 q 658 26 684 12 q 627 90 644 47 q 606 154 610 132 q 580 125 580 153 q 601 45 580 104 q 398 -12 530 -12 z "},"X":{"ha":872,"x_min":14,"x_max":886,"o":"m 442 159 l 363 6 q 253 -13 313 -13 q 81 47 148 -13 q 14 208 14 106 q 74 367 14 297 q 245 484 134 437 q 217 507 237 507 q 145 471 197 507 q 56 558 94 497 q 18 699 18 619 q 77 836 18 779 q 239 893 136 893 q 387 860 329 893 l 458 717 l 517 863 q 646 889 574 889 q 810 833 747 889 q 873 674 873 777 q 812 515 873 589 q 656 397 751 441 q 683 378 664 378 q 746 408 703 378 l 886 233 q 831 58 886 123 q 667 -14 772 -14 q 442 159 507 -14 z "},"Y":{"ha":864,"x_min":1,"x_max":859,"o":"m 300 206 q 319 227 319 206 q 90 472 169 327 q 1 792 11 617 q 93 862 32 838 q 218 886 153 886 q 363 853 302 886 q 426 658 401 751 q 393 511 393 511 q 390 492 390 501 q 414 469 390 469 q 452 625 422 495 q 472 718 460 659 q 505 858 485 777 q 647 888 567 888 q 802 841 744 888 q 859 705 859 793 q 786 451 859 574 q 633 269 728 353 l 633 45 q 532 -1 577 10 q 438 -12 488 -12 q 291 23 345 -12 q 237 128 237 58 l 237 248 q 269 221 250 235 q 300 206 288 206 z "},"Z":{"ha":774,"x_min":8,"x_max":773,"o":"m 18 718 q 36 813 18 773 q 79 875 54 854 l 699 875 q 743 798 724 849 q 763 673 763 747 q 759 613 763 631 q 749 583 754 595 q 740 557 745 571 q 559 353 668 456 q 413 336 460 349 q 365 304 365 323 q 372 288 365 296 q 463 312 405 302 q 575 322 521 322 l 728 322 q 773 170 773 241 q 741 60 773 98 q 662 9 709 22 q 576 0 627 0 l 79 0 q 8 229 8 73 q 15 294 8 264 q 156 452 75 366 q 308 606 237 538 q 290 621 305 621 q 264 608 280 621 q 214 558 248 595 l 68 558 q 18 718 18 636 z "},"[":{"ha":418,"x_min":20,"x_max":459,"o":"m 314 210 q 315 201 314 208 l 410 201 q 446 144 432 181 q 459 62 459 107 q 442 -17 459 18 q 406 -67 425 -52 l 168 -67 q 53 -31 85 -67 q 20 81 20 5 l 20 776 q 53 888 20 852 q 168 924 85 924 l 402 924 q 437 867 424 904 q 451 785 451 830 q 434 706 451 741 q 397 656 417 671 l 368 656 l 368 232 l 348 232 q 314 210 314 232 z "},"\\":{"ha":513,"x_min":27,"x_max":486,"o":"m 208 888 q 313 865 262 888 q 380 811 353 845 l 486 55 q 315 -7 433 -7 q 205 15 253 -7 q 133 72 157 37 l 27 817 q 208 888 85 888 z "},"]":{"ha":418,"x_min":-41,"x_max":398,"o":"m 71 232 l 51 232 l 51 656 l 21 656 q -16 706 1 671 q -33 785 -33 741 q -19 867 -33 830 q 16 924 -5 904 l 250 924 q 366 888 333 924 q 398 776 398 852 l 398 81 q 366 -31 398 5 q 250 -67 333 -67 l 13 -67 q -24 -17 -7 -52 q -41 62 -41 18 q -27 144 -41 107 q 8 201 -14 181 l 103 201 q 104 210 104 208 q 71 232 104 232 z "},"^":{"ha":636,"x_min":14,"x_max":623,"o":"m 313 593 q 293 588 298 593 q 288 569 288 583 q 308 455 288 556 l 281 354 q 181 334 237 334 q 79 350 125 334 q 14 394 32 366 l 140 857 q 215 879 163 869 q 311 888 266 888 q 407 880 357 888 q 479 861 457 872 l 623 376 q 568 347 606 359 q 488 334 530 334 q 422 338 445 334 q 372 352 399 342 q 360 396 365 375 q 356 414 358 406 q 350 436 354 422 q 336 496 347 450 q 321 556 325 542 q 317 575 317 571 q 313 593 316 579 z "},"_":{"ha":572,"x_min":14,"x_max":559,"o":"m 559 166 q 559 142 559 166 q 545 79 559 117 q 502 0 531 41 l 70 0 q 14 165 14 77 q 28 254 14 214 q 70 335 42 294 l 502 335 q 545 253 532 292 q 559 166 559 214 z "},"`":{"ha":415,"x_min":7,"x_max":408,"o":"m 136 1157 q 217 1135 184 1157 q 290 1063 251 1113 l 408 905 q 387 863 403 882 q 351 836 371 844 l 7 952 l 7 1023 q 35 1114 7 1079 q 136 1157 68 1157 z "},"a":{"ha":753,"x_min":8,"x_max":757,"o":"m 707 336 q 718 257 707 287 q 756 210 729 227 q 757 197 757 207 l 757 185 q 699 35 757 89 q 571 -12 647 -12 q 477 12 519 -12 q 416 83 434 37 q 393 60 393 83 q 416 18 393 41 q 283 -12 372 -12 q 83 56 158 -12 q 8 247 8 124 q 87 436 8 369 q 275 496 160 496 q 351 491 315 496 q 378 486 376 486 q 380 497 380 492 q 350 521 380 515 q 272 527 320 527 q 97 486 170 527 q 64 628 64 542 q 76 701 64 677 q 200 740 125 723 q 359 758 275 758 q 619 682 531 758 q 707 469 707 607 l 707 336 m 355 302 q 327 277 327 302 q 360 252 327 252 q 394 263 383 252 q 405 302 405 275 q 355 302 405 302 z "},"b":{"ha":753,"x_min":25,"x_max":739,"o":"m 355 277 q 372 271 362 271 q 392 292 387 271 q 397 378 397 313 l 397 448 q 393 473 397 466 q 377 481 388 481 q 361 476 366 481 l 361 385 q 355 277 361 345 m 382 833 l 382 772 q 278 755 326 769 q 231 723 231 741 q 241 705 231 712 q 399 742 316 742 q 644 639 549 742 q 739 372 739 536 q 624 71 739 172 q 338 -21 519 -21 q 72 49 157 -21 q 25 149 25 87 l 25 923 q 103 954 58 942 q 196 966 149 966 q 325 936 274 966 q 382 833 382 900 z "},"c":{"ha":728,"x_min":14,"x_max":724,"o":"m 399 -21 q 118 88 223 -21 q 14 380 14 197 q 132 669 14 563 q 397 764 238 764 q 631 695 538 764 q 724 506 724 625 q 672 371 724 423 q 538 319 621 319 q 425 356 470 319 q 372 450 380 392 q 342 429 342 450 q 391 338 342 379 q 531 289 447 289 q 669 325 614 289 q 703 198 703 273 q 629 50 703 111 q 399 -21 543 -21 z "},"d":{"ha":778,"x_min":14,"x_max":783,"o":"m 408 481 q 392 488 401 488 q 372 466 377 488 q 366 380 366 445 l 366 311 q 371 285 366 292 q 387 277 376 277 q 402 282 397 277 l 402 373 q 408 481 402 439 m 359 882 q 439 945 395 924 q 549 966 482 966 q 682 921 631 966 q 734 789 734 872 l 734 342 q 783 210 734 241 q 783 197 783 207 l 783 185 q 725 35 783 89 q 597 -12 673 -12 q 506 10 545 -12 q 442 81 460 36 q 419 58 419 81 q 427 35 419 48 q 448 12 435 22 q 345 -12 408 -12 q 183 27 258 -12 q 64 147 109 67 q 14 369 14 239 q 111 642 14 543 q 359 741 208 741 q 515 707 449 741 q 523 722 523 714 q 475 757 523 743 q 378 771 427 771 q 359 882 378 840 z "},"e":{"ha":768,"x_min":14,"x_max":754,"o":"m 421 -21 q 125 83 233 -21 q 14 371 14 189 q 128 661 14 554 q 396 761 234 761 q 656 672 558 761 q 754 452 754 583 q 673 277 754 336 q 470 222 599 222 q 307 262 374 222 q 302 247 302 258 q 355 210 302 227 q 477 191 409 191 q 601 209 545 191 q 691 250 657 226 q 717 197 707 235 q 727 127 727 159 q 721 71 727 96 q 612 7 668 26 q 421 -21 534 -21 m 412 438 q 446 464 446 438 q 410 488 446 488 q 369 450 374 488 q 412 438 388 438 z "},"f":{"ha":635,"x_min":8,"x_max":633,"o":"m 289 -9 q 160 20 208 -9 q 106 111 106 51 l 106 429 l 127 429 q 161 451 161 429 q 160 459 161 454 l 47 459 q 8 598 8 515 q 47 741 8 681 l 106 741 q 195 913 123 854 q 386 973 267 973 q 534 949 471 973 q 627 893 597 924 q 633 839 633 871 l 633 826 q 613 703 633 756 q 482 685 566 685 q 407 690 448 685 q 346 699 366 694 q 341 686 341 694 q 374 664 341 674 q 479 654 406 654 q 599 663 552 654 q 608 622 604 652 q 612 562 612 591 q 589 459 612 500 l 464 459 l 464 38 q 289 -9 390 -9 z "},"g":{"ha":766,"x_min":12,"x_max":758,"o":"m 405 486 q 387 511 405 511 q 370 490 370 511 l 370 420 q 386 416 375 416 q 401 424 397 416 q 405 454 405 432 l 405 486 m 430 212 q 356 218 387 212 q 354 206 354 212 q 375 186 354 191 q 430 181 397 181 q 610 212 536 181 q 724 130 684 193 q 758 7 758 77 q 651 -189 758 -119 q 377 -258 545 -258 q 117 -199 209 -258 q 33 -58 33 -144 q 48 6 33 -24 q 84 49 64 37 q 184 3 118 20 q 320 -15 250 -15 q 410 -9 390 -15 q 430 9 430 -4 q 426 23 430 16 q 341 16 392 16 q 136 53 210 16 q 45 188 45 98 q 59 253 45 223 q 101 298 73 283 q 38 368 64 321 q 12 484 12 415 q 109 689 12 614 q 363 764 207 764 q 508 739 438 764 l 508 787 q 614 802 548 802 q 715 780 680 802 q 757 684 757 753 q 749 623 757 646 q 726 575 741 600 q 744 464 744 530 q 659 278 744 344 q 430 212 574 212 z "},"h":{"ha":777,"x_min":25,"x_max":783,"o":"m 733 336 q 744 257 733 287 q 782 210 755 227 q 783 197 783 207 l 783 185 q 729 40 783 92 q 590 -12 675 -12 q 452 36 505 -12 q 390 203 390 91 q 394 287 390 250 q 400 338 399 323 q 404 368 402 354 q 406 408 406 381 q 399 446 406 434 q 379 457 392 457 q 357 452 367 457 l 366 341 q 354 196 354 273 q 389 56 354 119 q 202 -12 322 -12 q 83 24 134 -12 q 25 132 25 64 l 25 923 q 103 954 58 942 q 196 966 149 966 q 325 936 274 966 q 382 833 382 900 l 382 768 q 269 734 323 765 q 222 685 222 707 q 228 672 222 677 q 241 665 233 666 q 321 720 269 698 q 444 743 373 743 q 572 721 515 743 q 686 638 644 694 q 735 468 735 570 l 733 336 z "},"i":{"ha":414,"x_min":5,"x_max":420,"o":"m 370 610 l 370 342 q 419 210 370 241 q 420 197 420 207 l 420 185 q 366 35 420 85 q 232 -12 315 -12 q 94 35 148 -12 q 25 212 25 96 l 25 652 q 52 667 37 661 q 81 680 66 672 q 28 732 52 695 q 5 819 5 769 q 61 958 5 904 q 199 1013 117 1013 q 336 957 281 1013 q 391 819 391 902 q 349 701 391 751 q 247 637 307 650 q 267 612 247 612 q 337 639 301 612 q 370 610 364 618 z "},"j":{"ha":421,"x_min":-71,"x_max":397,"o":"m 389 45 q 315 -182 389 -104 q 144 -250 248 -250 q -16 -202 40 -250 q -71 -70 -71 -154 q -63 -11 -71 -39 q -46 31 -55 17 q 45 39 -7 39 q 164 23 98 39 q 180 21 169 21 q 197 44 197 21 q 60 68 115 68 q 31 202 31 119 l 31 652 q 58 667 43 661 q 87 680 72 672 q 35 732 58 695 q 11 819 11 769 q 67 958 11 904 q 205 1013 123 1013 q 342 957 287 1013 q 397 819 397 902 q 355 701 397 751 q 253 637 313 650 q 273 612 253 612 q 343 639 307 612 q 346 637 344 639 q 361 627 349 635 q 389 604 374 619 l 389 45 z "},"k":{"ha":769,"x_min":25,"x_max":781,"o":"m 362 255 l 330 241 q 347 144 330 195 q 389 57 362 95 q 202 -12 321 -12 q 83 24 134 -12 q 25 132 25 64 l 25 923 q 103 954 58 942 q 196 966 149 966 q 325 936 274 966 q 382 833 382 900 l 382 761 q 351 585 382 671 q 329 559 345 576 q 304 529 313 543 q 295 506 295 515 q 311 488 295 496 q 394 595 364 537 q 450 750 425 654 q 470 753 458 751 q 508 760 481 755 q 546 764 535 764 q 709 716 650 764 q 767 585 767 669 q 714 442 767 502 q 587 361 665 389 q 745 309 650 325 q 781 168 781 243 q 734 43 781 93 q 588 -12 681 -12 q 434 59 494 -12 q 362 255 374 131 z "},"l":{"ha":414,"x_min":25,"x_max":420,"o":"m 370 819 l 370 342 q 419 210 370 241 q 420 197 420 207 l 420 185 q 371 38 420 88 q 231 -12 321 -12 q 88 38 141 -12 q 25 218 25 98 l 25 923 q 188 966 96 966 q 325 927 280 966 q 370 819 370 888 z "},"m":{"ha":1164,"x_min":-9,"x_max":1169,"o":"m 1120 336 q 1131 255 1120 286 q 1168 207 1141 224 q 1169 195 1169 203 l 1169 185 q 1115 40 1169 92 q 975 -12 1061 -12 q 837 35 889 -12 q 775 201 775 89 l 775 415 q 745 460 775 460 q 727 455 734 460 l 739 354 l 739 201 q 770 61 739 109 q 689 7 737 26 q 590 -12 640 -12 q 464 27 509 -12 q 410 177 410 75 l 410 415 q 380 460 410 460 q 361 455 368 460 l 374 354 l 374 174 q 394 57 374 98 q 208 -12 328 -12 q 87 24 136 -12 q 31 136 31 66 l 31 460 q -9 598 -9 516 q 31 741 -9 681 l 195 741 q 277 705 243 741 q 247 659 247 677 q 271 638 247 638 q 353 720 300 690 q 496 755 414 755 q 605 728 558 755 q 675 667 652 702 q 759 733 707 711 q 865 755 810 755 q 1056 679 988 755 q 1122 471 1122 603 l 1120 336 z "},"n":{"ha":783,"x_min":-9,"x_max":789,"o":"m 739 336 q 750 257 739 287 q 788 210 761 227 q 789 197 789 207 l 789 185 q 735 40 789 92 q 596 -12 681 -12 q 458 36 511 -12 q 396 203 396 91 q 400 287 396 250 q 407 338 405 323 q 410 368 408 354 q 412 408 412 381 q 405 446 412 434 q 386 457 398 457 q 363 452 373 457 l 372 341 q 360 196 360 273 q 395 56 360 119 q 208 -12 328 -12 q 90 24 140 -12 q 31 132 31 64 l 31 460 q -9 598 -9 516 q 31 741 -9 681 l 152 741 q 234 705 200 741 q 204 659 204 677 q 228 638 204 638 q 319 724 258 690 q 458 758 380 758 q 649 700 576 758 q 741 475 741 627 l 739 336 z "},"o":{"ha":787,"x_min":14,"x_max":773,"o":"m 378 378 l 378 259 q 394 254 383 254 q 410 262 405 254 q 414 288 414 269 l 414 385 q 409 471 414 450 q 389 492 404 492 q 372 486 379 492 q 378 378 378 418 m 125 77 q 14 368 14 184 q 118 657 14 551 q 393 764 223 764 q 669 653 564 764 q 773 365 773 543 q 672 83 773 188 q 399 -21 572 -21 q 125 77 226 -21 z "},"p":{"ha":770,"x_min":-9,"x_max":757,"o":"m 378 366 l 378 275 q 394 271 383 271 q 410 278 405 271 q 414 304 414 286 l 414 373 q 409 459 414 438 q 389 481 404 481 q 372 474 379 481 q 378 366 378 407 m 162 659 q 186 638 162 638 q 281 733 227 702 q 414 764 336 764 q 555 739 491 764 q 693 628 642 705 q 757 374 757 531 q 662 99 757 197 q 400 1 568 1 q 254 24 307 1 q 250 12 250 21 q 281 -17 250 -8 q 390 -30 313 -26 l 390 -210 q 237 -241 320 -241 q 88 -205 138 -241 q 31 -87 31 -167 l 31 459 q -9 599 -9 515 q 2 673 -9 633 q 31 741 13 713 l 127 741 q 218 725 186 741 q 162 659 162 684 z "},"q":{"ha":772,"x_min":14,"x_max":865,"o":"m 413 481 q 397 488 406 488 q 376 466 382 488 q 371 380 371 445 l 371 311 q 376 285 371 292 q 391 277 380 277 q 407 282 402 277 l 407 373 q 413 481 407 439 m 741 609 l 741 152 q 703 155 730 155 q 594 123 636 155 q 558 71 558 98 q 581 53 558 53 q 704 121 620 121 q 811 68 768 121 q 865 -27 840 35 l 735 -157 q 638 -232 682 -210 q 537 -254 594 -254 q 445 -239 480 -254 q 395 -205 410 -224 q 374 -1 395 -205 q 121 98 215 8 q 14 372 14 198 q 76 605 14 511 q 227 728 130 687 q 414 764 311 764 q 640 715 538 764 q 714 665 687 692 q 741 609 741 637 z "},"r":{"ha":644,"x_min":-9,"x_max":635,"o":"m 214 -9 q 85 20 133 -9 q 31 111 31 51 l 31 460 q -9 598 -9 516 q 31 741 -9 681 l 135 741 q 250 690 215 741 q 220 642 233 671 q 207 600 207 612 q 213 581 207 587 q 232 575 220 575 q 322 713 256 669 q 458 751 377 751 q 615 708 558 751 q 635 575 635 654 q 604 433 635 497 q 541 413 581 421 q 458 404 500 404 q 384 410 417 404 q 336 420 351 416 q 331 405 331 415 q 344 390 331 395 q 389 378 357 385 l 389 38 q 214 -9 315 -9 z "},"s":{"ha":707,"x_min":8,"x_max":706,"o":"m 385 532 q 367 511 367 526 l 367 507 q 368 503 367 504 q 387 504 375 504 l 404 504 q 548 480 481 504 q 659 406 616 457 q 706 258 706 347 q 610 50 706 120 q 355 -21 515 -21 q 104 32 195 -21 q 14 187 14 85 q 30 257 14 225 q 66 301 46 288 q 175 247 104 270 q 325 224 245 224 q 357 242 357 224 q 355 256 357 250 q 343 255 350 255 l 336 255 q 106 312 192 255 q 8 494 8 376 q 96 684 8 611 q 362 764 193 764 q 518 746 446 764 q 642 699 590 728 q 654 617 654 671 q 609 490 654 534 q 525 522 574 509 q 435 534 475 534 q 385 532 395 534 z "},"t":{"ha":602,"x_min":8,"x_max":593,"o":"m 100 429 l 142 429 q 176 451 176 429 q 175 459 176 454 l 23 459 q 8 565 8 507 q 17 661 8 624 q 123 735 56 685 q 173 882 142 781 q 182 908 177 895 q 303 922 235 922 q 437 907 371 922 l 437 741 l 554 741 q 593 601 593 682 q 583 526 593 564 q 554 460 573 487 l 457 460 l 457 357 q 530 271 457 271 l 559 271 q 573 181 573 219 q 514 38 573 87 q 344 -12 456 -12 q 166 50 233 -12 q 100 233 100 112 l 100 429 z "},"u":{"ha":779,"x_min":-9,"x_max":785,"o":"m 385 296 q 403 302 393 296 q 396 372 396 325 l 396 707 q 569 751 468 751 q 669 735 626 751 q 735 695 712 720 l 735 342 q 784 210 735 241 q 785 197 785 207 l 785 185 q 732 35 785 86 q 602 -12 685 -12 q 507 12 549 -12 q 444 81 465 35 q 420 58 420 81 q 436 27 420 43 q 384 -1 414 9 q 294 -12 353 -12 q 178 12 235 -12 q 71 104 109 42 q 26 290 26 177 l 26 460 q -9 593 -9 520 q 1 670 -9 630 q 31 741 10 710 l 180 741 q 312 702 264 741 q 360 581 360 662 l 360 361 q 385 296 360 296 z "},"v":{"ha":709,"x_min":-39,"x_max":728,"o":"m 331 332 l 331 315 q 332 299 331 304 q 347 296 340 296 q 367 322 367 296 q 383 583 367 391 q 394 705 392 686 q 547 747 458 747 q 685 700 636 747 q 728 587 728 656 q 715 490 728 541 q 590 107 652 247 q 489 8 557 35 q 346 -12 439 -12 q 248 -4 296 -12 q 174 15 199 4 q 12 459 75 216 q -24 518 -9 480 q -39 597 -39 556 q 1 741 -39 681 q 170 741 1 741 q 302 691 259 741 q 345 581 335 653 q 331 332 331 454 z "},"w":{"ha":1061,"x_min":-18,"x_max":1094,"o":"m 345 378 q 349 325 345 338 q 371 303 353 303 l 377 303 q 383 304 379 303 q 381 357 381 323 q 385 471 381 392 q 388 700 388 549 q 542 746 455 746 q 654 720 610 746 q 715 644 699 693 q 711 550 715 621 q 669 292 696 380 q 685 288 677 288 q 699 294 694 288 q 736 455 718 316 q 753 663 750 591 q 755 703 754 689 q 824 734 781 722 q 914 746 867 746 q 1044 702 994 746 q 1094 585 1094 659 q 1072 437 1094 531 q 1013 236 1050 342 q 953 88 976 130 q 875 9 920 30 q 736 -12 830 -12 q 662 -6 707 -12 q 600 7 616 0 q 566 75 585 30 q 538 144 547 119 q 513 121 513 140 q 522 91 513 116 q 534 58 530 66 q 524 36 532 54 q 507 6 516 19 q 356 -12 454 -12 q 187 16 257 -12 q 93 194 133 90 q 26 460 54 298 q -18 600 -18 518 q 22 743 -18 682 l 186 743 q 321 697 283 743 q 350 583 350 662 l 345 378 z "},"x":{"ha":766,"x_min":0,"x_max":766,"o":"m 222 764 q 316 746 263 764 q 324 731 319 741 q 336 707 329 722 q 349 684 344 693 q 363 656 353 675 q 376 631 373 637 q 383 617 379 625 q 389 605 387 609 l 433 747 q 491 759 456 755 q 552 764 526 764 q 701 710 649 764 q 753 574 753 656 q 693 430 753 492 q 560 351 642 377 q 583 328 560 328 q 651 353 603 328 q 699 287 669 328 q 766 197 730 246 q 710 45 763 102 q 577 -12 657 -12 q 446 31 496 -12 q 374 145 396 73 l 320 14 q 202 -13 273 -13 q 59 42 117 -13 q 0 187 0 96 q 118 374 0 299 q 189 410 135 385 q 165 427 183 427 q 103 400 139 427 q 36 470 66 422 q 6 572 6 517 q 68 716 6 664 q 222 764 125 764 z "},"y":{"ha":742,"x_min":-19,"x_max":761,"o":"m 353 342 l 353 327 q 353 311 353 316 q 368 308 360 308 q 388 338 388 308 q 399 545 388 437 q 423 711 410 652 q 570 751 478 751 q 711 715 661 751 q 761 629 761 680 q 736 456 761 608 q 665 129 708 300 q 633 32 656 94 q 585 -72 610 -31 q 385 -231 504 -200 q 273 -245 330 -245 q 104 -191 164 -245 q 50 -70 50 -142 q 92 66 50 3 q 130 69 102 69 q 197 62 157 69 q 312 41 310 41 q 322 40 317 41 q 338 39 328 39 q 354 44 347 39 q 361 66 361 50 l 201 96 q 98 199 142 121 q 26 460 45 295 q -19 600 -19 518 q 22 741 -19 681 l 196 741 q 327 691 283 741 q 368 582 359 654 q 353 342 353 464 z "},"z":{"ha":673,"x_min":-7,"x_max":672,"o":"m 656 568 q 651 514 656 549 q 638 458 646 479 q 487 312 575 372 q 360 294 400 308 q 319 264 319 281 q 327 248 319 253 q 406 272 355 263 q 502 281 456 281 l 633 281 q 661 213 650 251 q 672 147 672 176 q 629 31 672 68 q 536 0 595 0 l 53 0 q -7 197 -7 63 q 10 313 -7 245 q 185 468 72 381 q 235 509 208 486 q 217 525 231 525 q 208 524 214 525 q 125 459 188 517 l 41 459 q 1 600 1 525 q 16 684 1 648 q 53 741 31 721 l 612 741 q 656 568 656 677 z "},"{":{"ha":438,"x_min":-7,"x_max":425,"o":"m 414 -1 q 248 -50 342 -50 q 121 -7 172 -50 q 71 119 71 35 l 71 214 q 58 286 71 262 q 14 309 45 309 q -7 433 -7 348 q 12 563 -7 518 q 81 656 81 564 l 81 755 q 132 881 81 839 q 258 924 182 924 q 425 875 353 924 q 408 705 408 827 l 408 573 q 387 486 408 516 q 331 441 366 456 q 282 455 307 455 q 254 433 257 455 q 354 391 321 420 q 399 277 399 351 q 399 174 399 277 q 414 -1 399 44 z "},"|":{"ha":353,"x_min":24,"x_max":329,"o":"m 184 -131 q 63 -98 102 -131 q 24 -9 24 -65 l 24 987 q 83 1015 45 1002 q 168 1028 122 1028 q 290 998 251 1028 q 329 913 329 967 q 329 -83 329 913 q 269 -116 308 -100 q 184 -131 230 -131 z "},"}":{"ha":438,"x_min":14,"x_max":445,"o":"m 14 875 q 180 924 85 924 q 307 881 256 924 q 357 755 357 839 l 357 656 q 426 563 357 564 q 445 433 445 518 q 425 309 445 348 q 380 286 393 309 q 368 214 368 262 l 368 119 q 317 -7 368 35 q 191 -50 266 -50 q 24 -1 96 -50 q 39 174 39 44 l 39 277 q 84 391 39 351 q 184 433 117 420 q 156 455 181 455 q 107 441 132 455 q 31 573 31 471 l 31 705 q 14 875 31 825 z "},"~":{"ha":679,"x_min":20,"x_max":659,"o":"m 659 369 q 659 331 659 369 q 606 248 659 293 q 464 203 554 203 q 280 235 374 203 q 231 250 262 241 l 39 250 q 20 390 20 314 q 73 511 20 466 q 215 556 125 556 q 393 526 304 556 q 448 509 417 519 l 640 509 q 659 369 659 446 z "}," ":{"ha":326,"x_min":0,"x_max":0,"o":""},"¡":{"ha":460,"x_min":34,"x_max":426,"o":"m 129 576 q 190 560 164 560 q 218 587 218 560 q 87 650 140 593 q 34 786 34 707 q 92 922 34 865 q 230 979 149 979 q 369 922 311 979 q 426 785 426 865 q 398 685 426 730 q 326 612 371 639 q 391 448 366 542 q 415 260 415 354 l 415 39 q 344 6 388 20 q 249 -7 300 -7 q 102 45 148 -7 q 57 217 57 96 l 57 260 q 129 576 57 419 z "},"¢":{"ha":736,"x_min":1,"x_max":710,"o":"m 1 379 q 83 631 1 531 q 281 752 158 722 q 262 776 281 776 q 230 769 251 776 q 193 754 209 762 l 193 823 q 262 870 214 852 q 366 888 311 888 q 503 852 452 888 q 554 747 554 817 l 554 732 q 710 504 710 661 q 659 371 710 423 q 524 319 608 319 q 411 356 456 319 q 358 450 366 392 q 328 429 328 450 q 377 338 328 379 q 517 289 433 289 q 602 302 562 289 q 664 335 641 316 q 703 197 703 275 q 637 58 703 120 q 463 -7 570 -5 l 463 -13 q 490 -36 463 -36 q 554 -24 517 -36 l 554 -74 q 378 -138 497 -138 q 244 -102 296 -138 q 193 3 193 -66 l 193 35 q 53 172 105 82 q 1 379 1 262 z "},"£":{"ha":730,"x_min":15,"x_max":763,"o":"m 38 569 l 106 569 q 149 516 121 516 q 163 522 158 516 q 123 652 123 575 q 214 832 123 769 q 413 888 293 888 q 599 834 532 888 q 666 701 666 780 q 639 625 666 656 q 562 593 612 593 l 540 593 q 493 627 530 627 q 456 615 467 627 q 444 589 444 602 q 450 569 444 576 l 701 569 q 720 468 720 516 q 711 379 720 420 q 690 315 703 339 q 549 345 643 345 q 421 315 484 345 q 380 288 396 302 q 365 261 365 273 q 377 241 365 249 q 439 289 408 273 q 557 315 489 315 q 712 261 654 315 q 763 144 763 213 q 668 -24 763 26 q 596 -6 633 -11 q 503 -2 559 -2 l 75 -2 q 39 148 39 53 q 49 249 39 199 q 111 264 92 252 q 129 289 129 276 l 46 289 q 15 428 15 349 q 38 569 15 507 z "},"¤":{"ha":781,"x_min":7,"x_max":774,"o":"m 368 492 l 368 382 q 373 337 368 347 q 388 326 378 326 q 402 337 398 326 q 406 382 406 349 l 406 492 q 402 536 406 524 q 388 546 398 546 q 373 536 377 546 q 368 492 368 526 m 229 85 l 183 52 q 71 127 120 76 q 7 244 22 179 l 38 274 q 9 436 9 345 q 37 601 9 528 l 7 629 q 73 751 23 699 q 185 829 122 804 l 226 795 q 387 825 302 825 q 549 791 473 825 l 595 829 q 708 751 659 804 q 774 629 758 699 l 733 591 q 760 435 760 519 q 735 281 760 350 l 774 244 q 708 125 758 178 q 597 52 662 76 l 549 87 q 389 58 475 58 q 229 85 302 58 z "},"¥":{"ha":763,"x_min":-33,"x_max":795,"o":"m 565 154 l 565 48 q 389 -14 503 -14 q 255 21 301 -14 q 205 132 205 58 l 205 184 l 68 184 q 41 302 41 235 q 61 423 41 370 l 144 423 q 145 433 145 425 q 139 446 145 441 q 125 453 133 452 q 105 454 118 454 l 78 454 q -33 806 -33 588 q 53 859 0 838 q 177 881 106 881 q 326 845 268 881 q 344 787 336 821 q 370 665 353 753 q 343 541 366 642 q 340 526 342 534 q 337 510 339 518 q 335 491 335 502 q 357 469 335 469 q 420 742 375 527 q 443 836 428 775 q 505 872 463 856 q 598 888 548 888 q 742 842 688 888 q 795 718 795 795 q 708 492 795 615 l 657 423 l 698 423 q 718 302 718 370 q 691 184 718 235 l 498 184 l 498 178 q 507 159 498 164 q 538 154 515 154 l 565 154 z "},"¦":{"ha":359,"x_min":27,"x_max":332,"o":"m 188 -131 q 66 -98 105 -131 q 27 -9 27 -65 l 28 414 q 115 450 62 439 q 27 563 27 473 l 27 987 q 87 1016 50 1003 q 172 1028 125 1028 q 293 998 254 1028 q 332 913 332 967 q 332 488 332 913 q 243 447 298 460 q 332 340 332 424 l 332 -83 q 272 -116 311 -100 q 188 -131 233 -131 z "},"§":{"ha":715,"x_min":1,"x_max":714,"o":"m 714 395 q 695 318 714 356 q 650 260 677 279 q 480 349 594 311 q 378 380 437 363 q 180 445 255 414 q 50 548 87 483 q 30 628 30 582 q 107 804 30 736 q 380 887 200 887 q 650 825 538 887 q 663 752 663 798 q 650 676 663 707 q 620 632 637 645 q 431 677 545 677 q 389 670 402 677 q 375 652 375 663 q 376 645 375 647 q 398 646 385 646 l 421 646 q 622 589 544 646 q 714 395 714 523 m 1 345 q 22 431 1 395 q 65 475 43 467 q 337 354 137 409 q 535 290 456 322 q 666 186 629 250 q 686 105 686 152 q 608 -71 686 -3 q 336 -154 515 -154 q 178 -135 247 -154 q 66 -92 110 -117 q 53 -19 53 -64 q 65 57 53 26 q 96 101 78 88 q 284 56 171 56 q 327 63 313 56 q 340 78 340 70 q 340 88 340 86 q 317 87 331 87 l 294 87 q 94 144 172 87 q 1 345 1 211 z "},"¨":{"ha":484,"x_min":7,"x_max":477,"o":"m 134 1153 q 242 1095 203 1153 q 349 1153 282 1153 q 439 1115 401 1153 q 477 1024 477 1077 q 442 933 477 970 q 350 897 407 897 q 243 950 280 897 q 136 895 208 895 q 43 932 79 895 q 7 1023 7 970 q 44 1115 7 1076 q 134 1153 81 1153 z "},"©":{"ha":888,"x_min":7,"x_max":881,"o":"m 450 -10 q 230 38 331 -10 q 72 182 130 85 q 7 442 7 289 q 68 703 7 595 q 226 852 123 799 q 438 899 321 899 q 760 774 640 899 q 881 445 881 650 q 755 97 881 215 q 450 -10 642 -10 m 347 308 q 460 267 393 267 q 547 284 514 267 q 579 316 579 301 q 564 337 579 332 q 465 298 522 298 q 370 336 407 298 q 330 446 330 376 q 368 554 330 516 q 465 591 406 591 q 561 560 523 591 q 570 576 570 568 q 541 608 570 593 q 462 622 511 622 q 340 576 388 622 q 293 443 293 530 q 347 308 293 355 z "},"ª":{"ha":472,"x_min":5,"x_max":492,"o":"m 458 582 q 492 495 458 515 q 492 489 492 493 l 492 483 q 461 383 492 418 q 368 347 431 347 q 308 362 334 347 q 273 406 282 377 q 253 389 253 406 q 262 361 253 378 q 189 347 232 347 q 56 393 105 347 q 5 517 5 438 q 60 635 5 596 q 191 675 114 675 q 252 668 231 675 q 254 678 254 671 q 240 699 254 692 q 189 705 225 705 q 73 680 121 705 q 41 769 41 714 q 48 822 41 804 q 231 860 134 860 q 401 809 344 860 q 458 663 458 758 l 458 582 m 232 552 q 213 535 213 552 q 235 519 213 519 q 265 552 265 519 l 232 552 z "},"«":{"ha":855,"x_min":10,"x_max":845,"o":"m 526 677 l 674 782 q 793 694 751 759 q 826 576 826 641 q 817 498 826 538 l 678 408 l 678 403 q 683 392 678 397 q 697 387 688 387 q 721 393 707 387 q 763 418 734 399 q 824 354 802 399 q 845 264 845 309 q 784 134 845 191 q 678 68 736 87 l 539 178 q 553 254 553 212 q 416 441 553 362 l 521 517 q 532 625 532 568 q 526 677 532 655 m 10 441 q 35 587 10 521 l 342 825 q 462 736 420 802 q 494 619 494 684 q 486 534 494 573 l 313 414 l 313 410 q 333 394 313 394 q 385 418 345 394 l 412 404 q 489 335 460 376 q 517 253 517 294 q 460 122 517 182 q 359 50 417 77 l 45 288 q 20 356 29 314 q 10 441 10 398 z "},"¬":{"ha":882,"x_min":14,"x_max":854,"o":"m 703 618 q 817 582 781 618 q 853 482 853 545 l 854 153 q 766 112 806 123 q 678 101 725 101 q 544 133 593 101 q 494 230 494 165 l 494 301 l 547 301 q 568 319 568 301 q 563 336 568 331 l 53 336 q 14 475 14 393 q 53 618 14 558 l 703 618 z "},"­":{"ha":503,"x_min":14,"x_max":489,"o":"m 489 414 q 489 390 489 414 q 475 327 489 366 q 432 248 461 289 l 70 248 q 14 414 14 326 q 28 502 14 463 q 70 583 42 542 l 432 583 q 475 501 462 540 q 489 414 489 463 z "},"®":{"ha":505,"x_min":7,"x_max":498,"o":"m 251 722 q 316 673 316 722 q 252 629 316 629 q 206 631 217 629 l 206 717 q 251 722 229 722 m 344 672 q 252 744 344 744 q 207 739 232 744 q 181 730 181 734 l 181 543 q 193 532 181 532 q 206 536 201 532 l 206 609 q 252 608 232 608 l 258 608 q 263 608 261 608 l 304 554 q 330 532 321 532 q 344 536 339 532 q 349 545 349 540 l 288 611 q 344 672 344 622 m 84 436 q 7 631 7 503 q 80 827 7 758 q 254 888 145 888 q 430 818 362 888 q 498 633 498 748 q 427 437 498 503 q 258 377 364 377 q 84 436 151 377 z "},"¯":{"ha":500,"x_min":14,"x_max":487,"o":"m 446 1103 q 487 975 487 1038 q 446 848 487 912 l 55 848 q 14 975 14 909 q 55 1103 14 1041 l 446 1103 z "},"°":{"ha":444,"x_min":7,"x_max":437,"o":"m 237 717 q 222 728 233 728 q 208 718 211 728 q 203 672 203 706 q 208 627 203 637 q 222 616 212 616 q 237 627 233 616 q 240 672 240 640 q 237 717 240 705 m 75 507 q 7 672 7 564 q 75 838 7 779 q 226 888 132 888 q 378 829 320 888 q 437 667 437 770 q 377 511 437 565 q 225 456 318 456 q 75 507 132 456 z "},"±":{"ha":699,"x_min":7,"x_max":692,"o":"m 530 320 l 630 320 q 685 156 685 242 q 630 0 685 70 l 68 0 q 14 158 14 72 q 26 240 14 205 q 68 320 38 276 l 172 320 q 224 226 177 264 q 355 188 271 188 q 530 275 481 188 l 530 320 m 347 887 q 471 849 426 887 q 516 740 516 812 l 516 701 l 637 701 q 680 620 667 655 q 692 538 692 585 q 679 455 692 492 q 637 379 665 418 l 496 379 l 496 285 q 435 235 475 251 q 354 218 395 218 q 244 251 285 218 q 203 353 203 283 q 203 379 203 353 l 61 379 q 20 455 33 418 q 7 538 7 492 q 19 621 7 585 q 61 701 32 657 l 203 701 q 228 706 222 701 q 235 724 235 711 l 235 730 l 184 730 l 184 821 q 347 887 241 887 z "},"²":{"ha":488,"x_min":3,"x_max":484,"o":"m 37 539 q 189 590 123 553 q 268 693 268 636 q 259 716 268 708 q 240 724 251 724 q 220 717 229 724 q 212 695 212 710 q 228 664 212 680 q 175 616 205 633 q 81 576 144 599 q 3 717 3 625 q 66 845 3 796 q 242 894 130 894 q 418 834 354 894 q 482 683 482 774 q 433 567 482 614 q 305 506 385 519 q 304 500 304 505 q 325 482 304 482 q 385 501 345 482 q 444 540 425 519 q 484 433 484 500 q 445 328 484 366 l 47 328 q 13 438 13 378 q 37 539 13 498 z "},"³":{"ha":515,"x_min":0,"x_max":515,"o":"m 104 593 l 120 593 q 136 592 127 592 q 175 515 140 545 q 255 486 210 486 q 283 505 283 486 q 282 515 283 509 q 273 514 275 514 l 265 514 q 195 540 223 514 q 168 607 168 566 q 195 674 168 648 q 265 700 223 700 l 273 700 q 282 699 275 700 q 283 709 283 705 q 255 728 283 728 q 178 702 213 728 q 136 632 144 676 q 50 654 85 632 q 5 739 5 683 q 72 851 5 808 q 255 895 140 895 q 435 844 369 895 q 502 711 502 793 q 470 630 502 662 q 435 642 447 642 q 418 637 422 642 q 413 627 413 633 q 416 613 413 621 q 482 584 453 613 q 515 492 515 549 q 445 357 515 403 q 259 311 375 311 q 71 360 142 311 q 0 490 0 408 q 26 564 0 535 q 104 593 53 593 z "},"´":{"ha":424,"x_min":14,"x_max":410,"o":"m 380 957 q 307 915 356 933 l 71 829 q 35 856 51 836 q 14 898 19 875 l 167 1120 q 279 1157 219 1157 q 375 1120 339 1157 q 410 1035 410 1083 q 380 957 410 987 z "},"µ":{"ha":789,"x_min":1,"x_max":795,"o":"m 87 -185 q 36 -66 36 -148 q 43 19 36 -31 q 56 83 51 69 q 98 58 79 58 q 117 75 117 58 q 116 83 117 78 q 36 272 36 122 l 36 469 q 1 602 1 530 q 11 680 1 640 q 41 751 20 720 l 191 751 q 322 711 275 751 q 370 591 370 671 l 370 361 q 378 310 370 323 q 394 296 385 296 q 413 302 404 296 q 406 372 406 325 l 406 717 q 579 760 478 760 q 679 745 636 760 q 745 705 722 730 l 745 342 q 794 210 745 241 q 795 197 795 207 l 795 185 q 747 37 795 87 q 618 -12 699 -12 q 555 3 576 -12 q 579 26 579 14 q 568 47 579 39 q 500 14 543 28 q 402 0 458 0 q 317 9 347 0 q 312 -7 312 0 q 332 -25 312 -20 q 395 -31 352 -31 l 395 -170 q 230 -221 326 -221 q 87 -185 134 -221 z "},"¶":{"ha":776,"x_min":12,"x_max":747,"o":"m 301 886 l 352 886 l 352 327 l 305 327 q 91 402 170 327 q 12 602 12 477 q 88 807 12 727 q 301 886 164 886 m 389 -100 l 389 888 l 747 888 l 747 -21 q 693 -125 747 -90 q 562 -158 644 -158 q 389 -100 456 -158 z "},"·":{"ha":389,"x_min":34,"x_max":355,"o":"m 81 559 q 194 606 127 606 q 308 559 260 606 q 355 445 355 511 q 308 332 355 379 q 194 286 260 286 q 81 332 127 286 q 34 445 34 379 q 81 559 34 511 z "},"¸":{"ha":417,"x_min":14,"x_max":404,"o":"m 153 -23 q 146 -5 153 -12 q 121 5 140 1 l 90 12 l 90 54 q 119 128 90 100 q 196 155 147 155 q 271 128 244 155 q 298 59 298 101 l 298 43 q 372 -8 348 22 q 404 -103 404 -47 q 340 -228 404 -184 q 201 -267 286 -267 q 65 -230 117 -267 q 14 -130 14 -194 q 64 -35 14 -65 q 114 -45 86 -45 q 153 -23 153 -45 z "},"¹":{"ha":373,"x_min":-27,"x_max":366,"o":"m 85 518 q 140 525 118 518 q 161 545 161 532 q 157 565 161 558 q 90 553 126 553 q 7 587 41 553 q -27 686 -27 621 q -9 768 -27 731 q 7 772 -3 769 q 27 777 18 775 q 43 781 35 779 q 134 826 98 794 q 174 875 155 844 l 278 875 q 345 857 323 875 q 366 789 366 839 l 366 374 q 229 323 317 323 q 123 350 161 323 q 85 432 85 377 l 85 518 z "},"º":{"ha":524,"x_min":7,"x_max":517,"o":"m 252 660 l 252 538 q 262 536 256 536 q 283 551 278 536 q 288 608 288 567 q 281 666 288 649 q 267 675 277 675 q 252 660 252 675 m 87 408 q 7 605 7 477 q 87 802 7 733 q 268 861 157 861 q 448 791 379 861 q 517 600 517 722 q 447 413 517 477 q 266 349 376 349 q 87 408 157 349 z "},"»":{"ha":847,"x_min":10,"x_max":837,"o":"m 534 473 q 507 463 524 473 l 479 448 l 357 534 q 349 619 349 574 q 382 736 349 684 q 500 825 422 802 l 812 583 q 837 437 837 517 q 827 353 837 395 q 802 285 818 311 l 513 56 q 408 122 456 76 q 347 253 347 180 q 460 396 347 333 l 555 449 q 534 473 555 473 m 42 693 q 153 781 80 759 l 318 667 q 312 612 312 652 q 324 519 312 572 l 447 431 q 342 346 372 387 q 312 253 312 305 q 324 186 312 221 l 173 68 q 75 130 121 85 q 18 253 18 183 q 123 381 18 322 q 191 418 123 381 q 170 442 191 442 q 156 438 163 442 l 132 427 l 19 498 q 10 584 10 529 q 42 693 10 639 z "},"¼":{"ha":1008,"x_min":-12,"x_max":993,"o":"m 722 330 l 711 330 q 670 282 699 311 l 671 271 l 722 271 l 722 330 m 935 72 l 935 17 q 797 -20 880 -20 q 714 -11 745 -20 q 656 14 684 -3 l 656 44 l 673 44 q 696 64 696 44 q 693 77 696 70 l 574 77 q 449 165 473 77 q 426 140 426 165 q 452 91 426 115 l 389 -46 q 279 -72 349 -72 q 151 -41 209 -72 q 85 35 93 -9 l 214 315 q 268 310 241 310 q 315 334 315 310 q 313 345 315 340 q 268 342 293 342 q 153 372 194 342 q 112 461 112 401 l 112 556 q 172 564 149 556 q 195 585 195 571 q 190 608 195 602 q 117 595 158 595 q 25 632 62 595 q -12 740 -12 669 q 7 829 -12 787 q 64 844 16 832 q 209 947 157 866 l 322 947 q 394 930 373 947 q 420 854 420 907 l 420 764 l 366 648 q 361 632 361 640 q 386 610 361 613 l 541 935 q 652 962 584 962 q 779 929 720 962 q 845 854 838 897 l 737 626 l 705 626 q 679 602 679 626 l 679 597 q 680 591 679 593 l 802 591 q 892 570 856 591 q 935 492 935 543 l 935 313 q 901 294 901 313 l 901 288 q 903 279 901 286 l 975 279 q 993 171 993 232 q 935 72 993 85 z "},"½":{"ha":1031,"x_min":-12,"x_max":1017,"o":"m 815 185 q 834 170 815 170 q 905 185 865 170 q 973 224 945 200 q 1004 177 991 208 q 1017 119 1017 146 q 975 -7 1017 35 l 538 -7 q 503 117 509 51 l 575 275 q 623 270 595 270 q 739 309 696 270 q 774 378 774 340 q 755 397 774 397 q 745 395 751 397 q 614 300 723 300 q 557 314 583 300 l 389 -46 q 279 -72 349 -72 q 151 -41 209 -72 q 85 35 93 -9 l 214 315 q 268 310 241 310 q 315 334 315 310 q 313 345 315 340 q 268 342 293 342 q 153 372 194 342 q 112 461 112 401 l 112 556 q 172 564 149 556 q 195 585 195 571 q 190 608 195 602 q 117 595 158 595 q 25 632 62 595 q -12 740 -12 669 q 7 829 -12 787 q 64 844 16 832 q 209 947 157 866 l 322 947 q 394 930 373 947 q 420 854 420 907 l 420 764 l 366 648 q 361 632 361 640 q 386 610 361 613 l 541 935 q 652 962 584 962 q 779 929 720 962 q 845 854 838 897 l 740 646 q 675 624 675 646 q 677 611 675 615 q 743 617 708 617 q 942 549 867 617 q 1015 376 1015 481 q 960 252 1015 303 q 817 195 905 200 l 815 185 z "},"¾":{"ha":1069,"x_min":8,"x_max":1055,"o":"m 784 336 l 772 336 q 732 289 761 318 l 732 278 l 784 278 l 784 336 m 311 759 q 286 778 311 778 q 203 747 242 778 q 156 659 165 716 q 137 659 151 659 l 119 659 q 42 691 69 659 q 15 771 15 724 q 88 903 15 852 q 285 955 161 955 q 430 923 362 955 q 517 838 498 890 l 458 715 q 454 699 454 705 q 480 677 454 679 l 602 935 q 714 962 646 962 q 841 929 782 962 q 907 854 899 897 l 799 626 l 767 626 q 741 602 741 626 l 741 597 q 741 591 741 593 l 863 591 q 954 570 918 591 q 997 492 997 543 l 997 313 q 963 294 963 313 l 963 288 q 964 279 963 286 l 1037 279 q 1055 171 1055 232 q 997 72 1055 85 l 997 17 q 859 -20 941 -20 q 776 -11 806 -20 q 718 14 745 -3 l 718 44 l 735 44 q 758 64 758 44 q 755 77 758 70 l 623 77 q 499 165 524 77 q 474 141 474 165 q 484 108 474 127 q 506 80 494 90 l 451 -46 q 340 -72 410 -72 q 213 -41 271 -72 q 146 35 155 -9 l 267 290 q 285 289 276 289 q 349 298 332 289 q 367 320 367 307 q 365 330 367 326 q 285 319 322 319 q 85 372 163 319 q 8 513 8 425 q 37 595 8 564 q 123 626 65 626 l 139 626 q 156 625 146 625 q 202 544 164 575 q 282 513 240 513 q 300 530 300 513 q 298 541 300 535 q 221 571 252 545 q 191 643 191 597 q 226 720 191 689 q 309 749 260 749 l 311 759 z "},"¿":{"ha":680,"x_min":-27,"x_max":707,"o":"m 321 104 q 348 71 321 71 q 376 100 376 71 q 373 116 376 110 q 370 124 371 121 q 409 143 378 130 q 570 254 531 193 q 667 178 627 237 q 707 47 707 119 q 604 -153 707 -77 q 346 -230 500 -230 q 64 -134 163 -230 q -27 90 -27 -46 q 12 243 -27 174 q 95 346 45 303 q 199 415 145 389 q 241 386 218 397 q 276 376 263 376 q 295 380 290 376 q 300 397 300 385 q 201 463 239 414 q 162 580 162 513 q 220 713 162 658 q 358 768 277 768 q 497 712 439 768 q 554 580 554 657 q 517 465 554 513 q 561 361 561 421 q 524 249 561 290 q 393 170 486 209 q 337 137 353 152 q 321 104 321 122 z "},"À":{"ha":915,"x_min":9,"x_max":912,"o":"m 443 446 q 460 440 448 440 q 479 445 471 440 q 456 567 462 548 q 433 587 448 587 q 417 583 427 587 l 443 446 m 309 242 q 302 224 302 233 q 339 192 302 205 q 429 175 376 178 q 448 64 437 77 q 376 13 435 39 q 245 -12 318 -12 q 79 30 148 -12 q 9 137 9 71 q 13 168 9 155 l 157 814 q 287 868 212 848 q 444 888 362 888 q 643 848 560 888 q 758 719 737 804 l 912 79 q 682 -12 842 -12 q 551 16 605 -12 q 489 95 498 43 l 474 178 q 553 193 515 178 q 591 224 591 208 q 582 242 591 235 q 519 214 556 224 q 450 205 481 205 q 309 242 358 205 m 351 1157 q 432 1135 398 1157 q 504 1063 465 1113 l 640 882 q 440 918 554 918 q 347 911 395 918 l 221 952 l 221 1023 q 249 1114 221 1079 q 351 1157 282 1157 z "},"Á":{"ha":915,"x_min":9,"x_max":912,"o":"m 443 446 q 460 440 448 440 q 479 445 471 440 q 456 567 462 548 q 433 587 448 587 q 417 583 427 587 l 443 446 m 309 242 q 302 224 302 233 q 339 192 302 205 q 429 175 376 178 q 448 64 437 77 q 376 13 435 39 q 245 -12 318 -12 q 79 30 148 -12 q 9 137 9 71 q 13 168 9 155 l 157 814 q 287 868 212 848 q 444 888 362 888 q 643 848 560 888 q 758 719 737 804 l 912 79 q 682 -12 842 -12 q 551 16 605 -12 q 489 95 498 43 l 474 178 q 553 193 515 178 q 591 224 591 208 q 582 242 591 235 q 519 214 556 224 q 450 205 481 205 q 309 242 358 205 m 444 918 q 258 891 347 918 l 416 1120 q 528 1157 468 1157 q 624 1120 588 1157 q 659 1035 659 1083 q 631 960 659 987 q 544 911 604 932 q 444 918 503 918 z "},"Â":{"ha":915,"x_min":9,"x_max":912,"o":"m 443 446 q 460 440 448 440 q 479 445 471 440 q 456 567 462 548 q 433 587 448 587 q 417 583 427 587 l 443 446 m 309 242 q 302 224 302 233 q 339 192 302 205 q 429 175 376 178 q 448 64 437 77 q 376 13 435 39 q 245 -12 318 -12 q 79 30 148 -12 q 9 137 9 71 q 13 168 9 155 l 157 814 q 287 868 212 848 q 444 888 362 888 q 643 848 560 888 q 758 719 737 804 l 912 79 q 682 -12 842 -12 q 551 16 605 -12 q 489 95 498 43 l 474 178 q 553 193 515 178 q 591 224 591 208 q 582 242 591 235 q 519 214 556 224 q 450 205 481 205 q 309 242 358 205 m 415 970 q 412 967 415 970 q 410 954 410 964 q 416 918 410 943 q 209 873 302 913 l 286 1110 q 354 1133 312 1124 q 431 1141 395 1141 q 578 1115 527 1141 l 663 871 q 452 918 583 915 q 435 975 443 945 q 415 970 420 975 z "},"Ã":{"ha":915,"x_min":9,"x_max":912,"o":"m 309 242 q 302 224 302 233 q 339 192 302 205 q 429 175 376 178 q 448 64 437 77 q 376 13 435 39 q 245 -12 318 -12 q 79 30 148 -12 q 9 137 9 71 q 13 168 9 155 l 157 814 q 376 885 245 871 q 534 853 468 853 q 598 866 576 853 q 758 719 733 821 l 912 79 q 682 -12 842 -12 q 551 16 605 -12 q 489 95 498 43 l 474 178 q 553 193 515 178 q 591 224 591 208 q 582 242 591 235 q 519 214 556 224 q 450 205 481 205 q 309 242 358 205 m 443 446 q 460 440 448 440 q 479 445 471 440 q 456 567 462 548 q 433 587 448 587 q 417 583 427 587 l 443 446 m 632 926 q 535 884 600 884 q 406 907 471 884 q 378 916 388 913 q 263 892 283 900 q 259 936 263 893 q 255 1015 255 979 q 282 1114 255 1078 q 380 1156 314 1156 q 441 1150 420 1156 q 469 1143 463 1145 q 480 1140 475 1141 q 496 1134 485 1138 q 517 1127 508 1130 l 652 1127 q 659 1021 659 1080 q 632 926 659 962 z "},"Ä":{"ha":915,"x_min":9,"x_max":912,"o":"m 443 446 q 460 440 448 440 q 479 445 471 440 q 456 567 462 548 q 433 587 448 587 q 417 583 427 587 l 443 446 m 309 242 q 302 224 302 233 q 339 192 302 205 q 429 175 376 178 q 448 64 437 77 q 376 13 435 39 q 245 -12 318 -12 q 79 30 148 -12 q 9 137 9 71 q 13 168 9 155 l 157 814 q 287 868 212 848 q 444 888 362 888 q 643 848 560 888 q 758 719 737 804 l 912 79 q 682 -12 842 -12 q 551 16 605 -12 q 489 95 498 43 l 474 178 q 553 193 515 178 q 591 224 591 208 q 582 242 591 235 q 519 214 556 224 q 450 205 481 205 q 309 242 358 205 m 321 1153 q 429 1095 390 1153 q 536 1153 469 1153 q 627 1115 589 1153 q 665 1028 665 1077 q 640 947 665 979 q 576 902 616 914 q 463 918 518 916 q 431 950 444 930 q 397 916 417 930 q 289 899 339 912 q 220 943 246 909 q 194 1027 194 977 q 231 1115 194 1076 q 321 1153 268 1153 z "},"Å":{"ha":915,"x_min":9,"x_max":912,"o":"m 309 242 q 302 224 302 233 q 339 192 302 205 q 429 175 376 178 q 448 64 437 77 q 376 13 435 39 q 245 -12 318 -12 q 79 30 148 -12 q 9 137 9 71 q 13 168 9 155 l 157 814 q 270 863 204 841 q 311 819 285 840 q 356 798 337 798 q 375 819 373 798 q 299 882 328 839 q 269 979 269 925 q 320 1103 269 1052 q 444 1154 371 1154 q 567 1103 516 1154 q 618 979 618 1052 q 580 871 618 918 q 696 815 649 852 q 758 719 743 777 l 912 79 q 682 -12 842 -12 q 551 16 605 -12 q 489 95 498 43 l 474 178 q 553 193 515 178 q 591 224 591 208 q 582 242 591 235 q 519 214 556 224 q 450 205 481 205 q 309 242 358 205 m 443 446 q 460 440 448 440 q 479 445 471 440 q 456 567 462 548 q 433 587 448 587 q 417 583 427 587 l 443 446 z "},"Æ":{"ha":1215,"x_min":9,"x_max":1227,"o":"m 309 242 q 302 224 302 233 q 339 192 302 205 q 429 175 376 178 q 448 64 437 77 q 376 13 435 39 q 245 -12 318 -12 q 79 30 148 -12 q 9 137 9 71 q 13 168 9 155 l 157 814 q 287 868 212 848 q 444 888 362 888 q 612 852 549 888 q 696 875 654 875 l 1179 875 q 1208 804 1198 842 q 1217 735 1217 766 q 1191 632 1217 667 q 1116 597 1164 597 l 842 597 q 817 578 817 597 q 817 572 817 578 q 819 567 817 568 l 1143 567 q 1164 514 1155 546 q 1172 452 1172 479 q 1142 326 1172 372 l 995 326 q 856 318 892 326 q 810 305 819 311 q 801 290 801 299 q 810 275 801 280 q 884 291 846 286 q 995 296 935 296 l 1185 296 q 1227 155 1227 237 q 1215 67 1227 109 q 1181 -1 1204 25 l 647 -1 q 532 35 574 -1 q 483 125 493 66 l 474 178 q 553 193 515 178 q 591 224 591 208 q 582 242 591 235 q 519 214 556 224 q 450 205 481 205 q 309 242 358 205 m 450 446 q 467 440 455 440 q 486 445 478 440 q 463 567 469 548 q 440 587 455 587 q 424 583 433 587 l 450 446 z "},"Ç":{"ha":853,"x_min":8,"x_max":843,"o":"m 454 270 q 467 273 461 270 l 467 335 q 596 386 513 366 q 758 406 679 406 q 818 296 793 369 q 843 164 842 223 q 775 86 822 123 q 642 12 717 39 q 597 55 621 39 q 555 71 572 71 q 530 50 531 71 q 635 -103 635 9 q 572 -228 635 -184 q 433 -267 518 -267 q 297 -230 349 -267 q 245 -130 245 -194 q 296 -35 245 -65 q 346 -45 318 -45 q 385 -27 385 -45 q 380 -17 385 -21 q 361 -10 376 -13 q 102 137 197 19 q 8 446 8 255 q 144 785 8 661 q 283 868 203 840 q 450 897 362 897 q 730 814 621 897 q 839 610 839 731 q 783 474 839 518 q 630 431 726 431 q 524 457 577 431 q 460 506 470 483 q 462 593 460 562 q 457 594 460 594 l 452 594 q 436 588 442 594 q 426 564 431 583 q 422 465 422 546 q 454 270 422 270 z "},"È":{"ha":754,"x_min":22,"x_max":766,"o":"m 327 875 l 718 875 q 747 804 738 842 q 757 735 757 766 q 730 632 757 667 q 655 597 703 597 l 382 597 q 357 578 357 597 l 357 572 q 358 567 357 568 l 682 567 q 703 514 694 546 q 711 452 711 479 q 682 326 711 372 l 534 326 q 395 318 431 326 q 349 305 358 311 q 340 290 340 299 q 350 275 340 280 q 424 291 385 286 q 534 296 475 296 l 725 296 q 766 155 766 237 q 755 67 766 109 q 720 -1 743 25 l 212 -1 q 77 40 128 -1 q 22 168 22 83 l 22 812 q 96 860 22 845 q 327 875 171 875 m 294 1157 q 377 1135 341 1157 q 448 1063 412 1112 q 474 1028 449 1062 q 508 981 498 994 q 530 952 518 968 q 551 924 542 936 q 565 905 559 913 l 304 905 l 165 952 l 165 1023 q 193 1114 165 1079 q 294 1157 226 1157 z "},"É":{"ha":754,"x_min":22,"x_max":766,"o":"m 327 875 l 718 875 q 747 804 738 842 q 757 735 757 766 q 730 632 757 667 q 655 597 703 597 l 382 597 q 357 578 357 597 l 357 572 q 358 567 357 568 l 682 567 q 703 514 694 546 q 711 452 711 479 q 682 326 711 372 l 534 326 q 395 318 431 326 q 349 305 358 311 q 340 290 340 299 q 350 275 340 280 q 424 291 385 286 q 534 296 475 296 l 725 296 q 766 155 766 237 q 755 67 766 109 q 720 -1 743 25 l 212 -1 q 77 40 128 -1 q 22 168 22 83 l 22 812 q 96 860 22 845 q 327 875 171 875 m 231 902 l 382 1120 q 494 1157 434 1157 q 590 1120 554 1157 q 625 1035 625 1083 q 595 957 625 987 q 522 915 571 933 l 495 905 l 311 905 l 250 903 q 231 902 237 903 z "},"Ê":{"ha":754,"x_min":22,"x_max":766,"o":"m 327 875 l 718 875 q 747 804 738 842 q 757 735 757 766 q 730 632 757 667 q 655 597 703 597 l 382 597 q 357 578 357 597 l 357 572 q 358 567 357 568 l 682 567 q 703 514 694 546 q 711 452 711 479 q 682 326 711 372 l 534 326 q 395 318 431 326 q 349 305 358 311 q 340 290 340 299 q 350 275 340 280 q 424 291 385 286 q 534 296 475 296 l 725 296 q 766 155 766 237 q 755 67 766 109 q 720 -1 743 25 l 212 -1 q 77 40 128 -1 q 22 168 22 83 l 22 812 q 96 860 22 845 q 327 875 171 875 m 170 898 l 239 1110 q 306 1133 264 1124 q 384 1141 348 1141 q 531 1115 479 1141 l 604 905 l 415 905 q 397 964 402 944 q 394 975 395 970 q 374 970 380 975 q 369 953 369 965 q 380 905 369 941 l 319 905 q 170 898 210 905 z "},"Ë":{"ha":754,"x_min":22,"x_max":766,"o":"m 327 875 l 718 875 q 747 804 738 842 q 757 735 757 766 q 730 632 757 667 q 655 597 703 597 l 382 597 q 357 578 357 597 l 357 572 q 358 567 357 568 l 682 567 q 703 514 694 546 q 711 452 711 479 q 682 326 711 372 l 534 326 q 395 318 431 326 q 349 305 358 311 q 340 290 340 299 q 350 275 340 280 q 424 291 385 286 q 534 296 475 296 l 725 296 q 766 155 766 237 q 755 67 766 109 q 720 -1 743 25 l 212 -1 q 77 40 128 -1 q 22 168 22 83 l 22 812 q 96 860 22 845 q 327 875 171 875 m 298 905 q 270 904 290 905 q 236 903 249 903 q 175 949 197 916 q 153 1023 153 982 q 190 1115 153 1076 q 281 1153 227 1153 q 389 1095 349 1153 q 495 1153 429 1153 q 586 1115 548 1153 q 624 1023 624 1077 q 603 951 624 983 q 545 905 582 919 l 446 905 q 390 950 412 918 q 336 905 370 920 l 298 905 z "},"Ì":{"ha":439,"x_min":-14,"x_max":418,"o":"m 418 752 l 418 52 q 334 6 387 24 q 208 -12 282 -12 q 81 21 133 -12 q 22 123 22 57 l 22 823 q 105 869 53 850 q 231 887 157 887 q 359 854 305 887 q 418 752 418 817 m 115 1157 q 198 1135 162 1157 q 269 1063 233 1112 q 295 1028 270 1062 q 329 981 319 994 q 351 952 339 968 q 372 924 363 936 q 386 905 380 913 q 372 885 382 894 q 225 918 313 918 q 123 905 174 918 l -14 952 l -14 1023 q 14 1114 -14 1079 q 115 1157 47 1157 z "},"Í":{"ha":439,"x_min":22,"x_max":445,"o":"m 418 752 l 418 52 q 334 6 387 24 q 208 -12 282 -12 q 81 21 133 -12 q 22 123 22 57 l 22 823 q 105 869 53 850 q 231 887 157 887 q 359 854 305 887 q 418 752 418 817 m 48 898 l 201 1120 q 314 1157 254 1157 q 409 1120 374 1157 q 445 1035 445 1083 q 414 957 445 987 q 341 915 391 933 l 318 907 q 215 918 261 918 q 54 880 127 918 q 52 885 53 882 q 51 889 51 888 q 48 898 51 890 z "},"Î":{"ha":439,"x_min":14,"x_max":418,"o":"m 418 752 l 418 52 q 334 6 387 24 q 208 -12 282 -12 q 81 21 133 -12 q 22 123 22 57 l 22 823 q 105 869 53 850 q 231 887 157 887 q 359 854 305 887 q 418 752 418 817 m 212 1141 q 346 1115 298 1141 l 418 907 q 407 888 416 899 q 389 872 397 876 q 233 918 333 914 q 216 975 225 941 q 196 970 201 975 q 191 954 191 965 q 197 917 191 943 q 39 872 104 910 q 14 907 22 886 l 81 1110 q 143 1133 106 1124 q 212 1141 180 1141 z "},"Ï":{"ha":439,"x_min":-24,"x_max":446,"o":"m 418 752 l 418 52 q 334 6 387 24 q 208 -12 282 -12 q 81 21 133 -12 q 22 123 22 57 l 22 823 q 105 869 53 850 q 231 887 157 887 q 359 854 305 887 q 418 752 418 817 m 103 1153 q 211 1095 172 1153 q 317 1153 251 1153 q 408 1115 370 1153 q 446 1026 446 1077 q 418 941 446 975 q 342 899 389 907 q 245 917 300 915 q 212 950 226 930 q 176 915 197 928 q 91 896 136 911 q 8 936 41 900 q -24 1024 -24 972 q 13 1115 -24 1076 q 103 1153 50 1153 z "},"Ð":{"ha":946,"x_min":15,"x_max":931,"o":"m 481 262 q 519 296 500 262 q 549 431 549 351 q 519 574 549 511 q 485 603 506 603 q 465 589 474 603 q 499 522 486 564 q 512 430 512 480 q 492 327 512 379 q 461 275 475 288 q 481 262 468 262 m 111 625 l 111 770 q 161 830 111 803 q 288 872 212 858 q 445 887 363 887 q 795 779 670 887 q 931 426 931 661 q 800 111 931 223 q 439 -1 668 -1 l 268 -1 q 152 39 193 -1 q 111 160 111 79 l 111 272 l 68 272 q 32 334 48 292 q 15 428 15 375 q 28 524 15 481 q 64 595 41 567 l 183 595 q 178 617 183 609 q 155 625 172 625 l 111 625 z "},"Ñ":{"ha":845,"x_min":22,"x_max":823,"o":"m 224 -7 q 87 11 139 -7 q 22 52 36 28 l 22 812 q 74 866 22 846 q 197 887 127 887 q 355 846 295 887 q 507 607 392 800 q 520 612 514 607 q 526 629 526 618 q 509 666 526 640 l 436 792 l 436 828 q 471 851 444 836 q 503 849 479 849 q 601 873 566 849 q 623 888 610 880 q 762 857 709 888 q 823 740 823 819 l 823 103 q 758 18 823 47 q 643 -7 703 -7 q 559 -3 583 -7 q 501 13 535 1 q 408 143 448 81 q 325 277 368 205 q 305 256 305 274 q 325 212 305 243 l 395 100 l 395 33 q 224 -7 334 -7 m 367 918 l 229 918 q 224 1017 224 955 q 252 1114 224 1078 q 350 1156 283 1156 q 411 1150 390 1156 q 438 1143 432 1145 q 449 1140 444 1141 q 466 1134 454 1138 q 486 1127 477 1130 l 622 1127 q 629 1021 629 1080 q 602 926 629 962 q 499 884 569 884 q 367 918 429 884 z "},"Ò":{"ha":913,"x_min":15,"x_max":899,"o":"m 488 468 q 481 561 488 536 q 459 587 475 587 q 441 580 449 587 q 445 547 442 568 q 448 460 448 527 l 448 416 q 446 349 448 370 q 442 313 444 328 q 441 297 441 305 q 459 290 449 290 q 481 316 475 290 q 488 409 488 341 l 488 468 m 460 -22 q 239 28 340 -22 q 77 181 138 78 q 15 437 15 283 q 149 786 15 661 q 456 897 269 897 q 780 770 661 897 q 899 437 899 644 q 771 87 899 208 q 460 -22 655 -22 m 347 917 l 239 952 l 239 1023 q 267 1114 239 1079 q 369 1157 300 1157 q 451 1135 416 1157 q 522 1063 487 1112 q 546 1031 535 1044 q 600 958 576 991 q 649 892 623 924 q 604 907 631 898 q 524 924 577 916 q 446 927 491 927 q 347 917 401 927 z "},"Ó":{"ha":913,"x_min":15,"x_max":899,"o":"m 488 468 q 481 561 488 536 q 459 587 475 587 q 441 580 449 587 q 445 547 442 568 q 448 460 448 527 l 448 416 q 446 349 448 370 q 442 313 444 328 q 441 297 441 305 q 459 290 449 290 q 481 316 475 290 q 488 409 488 341 l 488 468 m 460 -22 q 239 28 340 -22 q 77 181 138 78 q 15 437 15 283 q 149 786 15 661 q 456 897 269 897 q 780 770 661 897 q 899 437 899 644 q 771 87 899 208 q 460 -22 655 -22 m 297 904 l 446 1120 q 558 1157 498 1157 q 654 1120 618 1157 q 690 1035 690 1083 q 659 957 690 987 q 583 913 632 931 q 440 927 513 927 q 297 904 368 927 z "},"Ô":{"ha":913,"x_min":15,"x_max":899,"o":"m 488 468 q 481 561 488 536 q 459 587 475 587 q 441 580 449 587 q 445 547 442 568 q 448 460 448 527 l 448 416 q 446 349 448 370 q 442 313 444 328 q 441 297 441 305 q 459 290 449 290 q 481 316 475 290 q 488 409 488 341 l 488 468 m 460 -22 q 239 28 340 -22 q 77 181 138 78 q 15 437 15 283 q 149 786 15 661 q 456 897 269 897 q 780 770 661 897 q 899 437 899 644 q 771 87 899 208 q 460 -22 655 -22 m 435 928 q 231 880 315 919 l 307 1110 q 375 1133 333 1124 q 452 1141 416 1141 q 600 1115 548 1141 l 681 881 q 469 927 587 921 l 456 975 q 436 970 441 975 q 431 952 431 965 q 435 928 431 940 z "},"Õ":{"ha":913,"x_min":15,"x_max":899,"o":"m 15 437 q 119 755 15 635 q 369 890 213 863 q 532 853 446 853 q 614 873 581 853 q 824 715 749 830 q 899 437 899 601 q 771 87 899 208 q 460 -22 655 -22 q 239 28 340 -22 q 77 181 138 78 q 15 437 15 283 m 488 468 q 481 561 488 536 q 459 587 475 587 q 441 580 449 587 q 445 547 442 568 q 448 460 448 527 l 448 416 q 446 349 448 370 q 442 313 444 328 q 441 297 441 305 q 459 290 449 290 q 481 316 475 290 q 488 409 488 341 l 488 468 m 366 921 q 311 908 346 918 q 261 892 276 899 q 254 1015 254 955 q 281 1114 254 1078 q 379 1156 313 1156 q 440 1150 419 1156 q 467 1143 461 1145 q 478 1140 473 1141 q 495 1134 484 1138 q 515 1127 507 1130 l 651 1127 q 658 1021 658 1080 q 631 926 658 962 q 530 884 598 884 q 366 921 461 884 z "},"Ö":{"ha":913,"x_min":15,"x_max":899,"o":"m 488 468 q 481 561 488 536 q 459 587 475 587 q 441 580 449 587 q 445 547 442 568 q 448 460 448 527 l 448 416 q 446 349 448 370 q 442 313 444 328 q 441 297 441 305 q 459 290 449 290 q 481 316 475 290 q 488 409 488 341 l 488 468 m 460 -22 q 239 28 340 -22 q 77 181 138 78 q 15 437 15 283 q 149 786 15 661 q 456 897 269 897 q 780 770 661 897 q 899 437 899 644 q 771 87 899 208 q 460 -22 655 -22 m 211 1032 q 211 1057 211 1032 q 245 1120 211 1082 q 340 1158 280 1158 q 446 1098 414 1158 q 557 1158 479 1158 q 647 1124 612 1158 q 682 1027 682 1090 q 660 950 682 981 q 600 907 637 920 q 486 926 539 923 q 450 974 458 945 q 416 924 442 945 q 307 906 359 921 q 237 950 262 918 q 211 1032 211 982 z "},"×":{"ha":722,"x_min":3,"x_max":719,"o":"m 135 383 q 136 382 135 383 q 143 377 137 381 q 161 373 149 373 q 179 387 174 373 l 3 543 q 90 699 12 623 q 248 792 168 775 q 363 677 248 792 l 477 793 q 633 698 556 776 q 719 539 710 620 l 716 536 l 619 444 q 602 458 612 450 q 589 469 592 467 q 563 479 576 479 q 545 465 549 479 l 719 310 q 633 151 710 229 q 477 56 556 73 l 363 172 l 248 56 q 90 150 167 75 q 3 307 12 225 l 104 408 q 112 401 106 406 q 120 394 118 396 q 127 388 123 392 q 135 383 132 385 z "},"Ø":{"ha":903,"x_min":14,"x_max":890,"o":"m 398 277 q 418 294 411 277 l 538 594 q 520 602 529 602 q 503 595 511 602 q 485 562 494 587 l 385 310 q 382 294 382 298 q 398 277 382 277 m 458 -12 q 367 -5 414 -12 l 345 -43 q 337 -44 342 -44 l 330 -44 q 204 -15 266 -44 q 106 63 142 14 l 128 115 q 14 444 14 235 q 144 790 14 668 q 446 899 262 899 q 528 893 488 899 l 553 939 l 568 939 q 703 903 632 939 q 794 823 761 874 l 770 772 q 890 444 890 646 q 764 95 890 213 q 458 -12 650 -12 z "},"Ù":{"ha":833,"x_min":22,"x_max":811,"o":"m 610 887 q 751 843 692 887 q 811 718 811 799 l 811 340 q 706 75 811 168 q 415 -18 601 -18 q 127 73 230 -18 q 22 340 22 165 l 22 824 q 207 888 102 888 q 347 841 295 888 q 398 701 398 795 l 398 305 q 415 300 406 300 q 430 305 425 300 q 434 324 434 310 l 434 701 q 430 769 434 744 q 414 819 426 794 q 610 887 495 887 m 330 1157 q 411 1135 378 1157 q 484 1063 445 1113 l 591 918 q 432 875 498 913 l 201 952 l 201 1023 q 229 1114 201 1079 q 330 1157 262 1157 z "},"Ú":{"ha":833,"x_min":22,"x_max":811,"o":"m 610 887 q 751 843 692 887 q 811 718 811 799 l 811 340 q 706 75 811 168 q 415 -18 601 -18 q 127 73 230 -18 q 22 340 22 165 l 22 824 q 207 888 102 888 q 347 841 295 888 q 398 701 398 795 l 398 305 q 415 300 406 300 q 430 305 425 300 q 434 324 434 310 l 434 701 q 430 769 434 744 q 414 819 426 794 q 610 887 495 887 m 604 958 q 531 915 581 935 l 500 903 q 455 886 480 898 l 382 860 q 251 917 336 907 l 391 1120 q 504 1157 444 1157 q 599 1120 564 1157 q 635 1036 635 1083 q 604 958 635 988 z "},"Û":{"ha":833,"x_min":22,"x_max":811,"o":"m 610 887 q 751 843 692 887 q 811 718 811 799 l 811 340 q 706 75 811 168 q 415 -18 601 -18 q 127 73 230 -18 q 22 340 22 165 l 22 824 q 207 888 102 888 q 347 841 295 888 q 398 701 398 795 l 398 305 q 415 300 406 300 q 430 305 425 300 q 434 324 434 310 l 434 701 q 430 769 434 744 q 414 819 426 794 q 610 887 495 887 m 401 855 l 393 848 q 206 920 336 920 l 199 920 q 191 919 193 920 l 253 1110 q 318 1133 279 1124 q 391 1141 357 1141 q 545 1115 491 1141 l 614 919 l 610 919 q 432 875 512 919 l 401 975 q 382 970 387 975 q 376 954 376 965 q 381 926 376 943 q 392 886 386 909 q 401 855 398 864 z "},"Ü":{"ha":833,"x_min":22,"x_max":811,"o":"m 610 887 q 751 843 692 887 q 811 718 811 799 l 811 340 q 706 75 811 168 q 415 -18 601 -18 q 127 73 230 -18 q 22 340 22 165 l 22 824 q 207 888 102 888 q 347 841 295 888 q 398 701 398 795 l 398 305 q 415 300 406 300 q 430 305 425 300 q 434 324 434 310 l 434 701 q 430 769 434 744 q 414 819 426 794 q 610 887 495 887 m 178 1023 q 215 1115 178 1076 q 305 1153 252 1153 q 413 1095 374 1153 q 519 1153 453 1153 q 610 1115 572 1153 q 648 1023 648 1077 q 593 917 648 953 q 492 899 534 913 q 414 950 440 911 q 328 896 388 908 q 231 918 286 914 q 178 1023 178 956 z "},"Ý":{"ha":864,"x_min":1,"x_max":859,"o":"m 300 206 q 319 227 319 206 q 90 472 169 327 q 1 792 11 617 q 93 862 32 838 q 218 886 153 886 q 363 853 302 886 q 426 658 401 751 q 393 511 393 511 q 390 492 390 501 q 414 469 390 469 q 452 625 422 495 q 472 718 460 659 q 505 858 485 777 q 647 888 567 888 q 802 841 744 888 q 859 705 859 793 q 786 451 859 574 q 633 269 728 353 l 633 45 q 532 -1 577 10 q 438 -12 488 -12 q 291 23 345 -12 q 237 128 237 58 l 237 248 q 269 221 250 235 q 300 206 288 206 m 628 957 q 555 915 604 933 l 397 857 l 387 876 q 271 912 338 902 l 415 1120 q 527 1157 467 1157 q 623 1120 587 1157 q 659 1035 659 1083 q 628 957 659 987 z "},"Þ":{"ha":811,"x_min":22,"x_max":803,"o":"m 394 396 q 410 394 397 394 q 429 404 422 394 q 436 437 436 414 l 436 462 q 430 497 436 486 q 411 507 425 507 q 393 505 398 507 q 394 493 394 501 l 394 396 m 214 -12 q 79 21 130 -12 q 22 125 22 56 q 22 749 22 125 q 76 852 22 818 q 215 887 131 887 q 306 879 262 887 q 396 842 349 870 l 396 798 q 316 791 337 798 q 296 770 296 785 l 296 763 q 391 767 359 767 q 694 674 585 767 q 803 428 803 581 q 698 194 803 275 q 412 114 593 114 q 321 121 346 114 q 316 106 316 115 q 330 92 316 98 q 393 84 345 87 l 393 33 q 214 -12 321 -12 z "},"ß":{"ha":864,"x_min":22,"x_max":864,"o":"m 695 376 q 776 407 733 376 q 840 343 816 391 q 864 228 864 295 q 765 37 864 100 q 565 -15 685 -15 q 471 -6 517 -15 q 397 17 425 3 q 363 142 363 66 q 377 212 363 180 q 412 264 391 244 q 510 240 451 240 q 545 263 545 240 q 543 271 545 267 l 520 271 q 408 309 449 271 q 363 415 363 348 q 404 524 363 482 q 500 575 444 566 q 500 579 500 576 l 500 583 q 484 601 500 601 q 387 557 435 601 q 327 418 327 503 q 344 334 327 374 q 382 279 361 295 q 328 144 328 220 q 364 6 328 67 q 232 -12 300 -12 q 77 39 132 -12 q 22 173 22 87 l 22 500 q 138 791 22 689 q 446 893 254 893 q 723 812 616 893 q 830 597 830 730 q 786 465 830 516 q 675 404 742 413 q 673 393 673 397 q 695 376 673 376 z "},"à":{"ha":753,"x_min":8,"x_max":757,"o":"m 707 336 q 718 257 707 287 q 756 210 729 227 q 757 197 757 207 l 757 185 q 699 35 757 89 q 571 -12 647 -12 q 477 12 519 -12 q 416 83 434 37 q 393 60 393 83 q 416 18 393 41 q 283 -12 372 -12 q 83 56 158 -12 q 8 247 8 124 q 87 436 8 369 q 275 496 160 496 q 351 491 315 496 q 378 486 376 486 q 380 497 380 492 q 350 521 380 515 q 272 527 320 527 q 97 486 170 527 q 64 628 64 542 q 76 701 64 677 q 200 740 125 723 q 359 758 275 758 q 619 682 531 758 q 707 469 707 607 l 707 336 m 355 302 q 327 277 327 302 q 360 252 327 252 q 394 263 383 252 q 405 302 405 275 q 355 302 405 302 m 271 1034 q 354 1011 319 1034 q 424 940 389 989 q 491 846 446 909 q 559 752 535 783 q 361 788 480 788 q 280 783 314 788 l 141 829 l 141 900 q 169 991 141 956 q 271 1034 202 1034 z "},"á":{"ha":753,"x_min":8,"x_max":757,"o":"m 707 336 q 718 257 707 287 q 756 210 729 227 q 757 197 757 207 l 757 185 q 699 35 757 89 q 571 -12 647 -12 q 477 12 519 -12 q 416 83 434 37 q 393 60 393 83 q 416 18 393 41 q 283 -12 372 -12 q 83 56 158 -12 q 8 247 8 124 q 87 436 8 369 q 275 496 160 496 q 351 491 315 496 q 378 486 376 486 q 380 497 380 492 q 350 521 380 515 q 272 527 320 527 q 97 486 170 527 q 64 628 64 542 q 76 701 64 677 q 200 740 125 723 q 359 758 275 758 q 619 682 531 758 q 707 469 707 607 l 707 336 m 355 302 q 327 277 327 302 q 360 252 327 252 q 394 263 383 252 q 405 302 405 275 q 355 302 405 302 m 366 788 q 192 766 279 788 l 351 997 q 464 1034 404 1034 q 559 997 524 1034 q 595 911 595 960 q 559 830 595 863 q 480 786 533 806 l 465 780 q 366 788 408 788 z "},"â":{"ha":753,"x_min":8,"x_max":757,"o":"m 707 336 q 718 257 707 287 q 756 210 729 227 q 757 197 757 207 l 757 185 q 699 35 757 89 q 571 -12 647 -12 q 477 12 519 -12 q 416 83 434 37 q 393 60 393 83 q 416 18 393 41 q 283 -12 372 -12 q 83 56 158 -12 q 8 247 8 124 q 87 436 8 369 q 275 496 160 496 q 351 491 315 496 q 378 486 376 486 q 380 497 380 492 q 350 521 380 515 q 272 527 320 527 q 97 486 170 527 q 64 628 64 542 q 76 701 64 677 q 200 740 125 723 q 359 758 275 758 q 619 682 531 758 q 707 469 707 607 l 707 336 m 355 302 q 327 277 327 302 q 360 252 327 252 q 394 263 383 252 q 405 302 405 275 q 355 302 405 302 m 341 788 q 137 754 235 783 l 211 987 q 278 1010 237 1002 q 356 1019 320 1019 q 503 992 452 1019 l 589 739 q 376 789 502 785 q 359 852 363 836 q 340 848 345 852 q 334 832 334 843 q 341 788 334 821 z "},"ã":{"ha":753,"x_min":8,"x_max":757,"o":"m 519 736 q 707 469 707 677 l 707 336 q 718 257 707 287 q 756 210 729 227 q 757 197 757 207 l 757 185 q 699 35 757 89 q 571 -12 647 -12 q 477 12 519 -12 q 416 83 434 37 q 393 60 393 83 q 416 18 393 41 q 283 -12 372 -12 q 83 56 158 -12 q 8 247 8 124 q 87 436 8 369 q 275 496 160 496 q 351 491 315 496 q 378 486 376 486 q 380 497 380 492 q 350 521 380 515 q 272 527 320 527 q 97 486 170 527 q 64 628 64 542 q 76 701 64 677 q 291 754 170 743 q 446 723 371 723 q 519 736 495 723 m 355 302 q 327 277 327 302 q 360 252 327 252 q 394 263 383 252 q 405 302 405 275 q 355 302 405 302 m 446 754 q 365 763 399 754 q 319 777 332 772 q 288 787 290 786 q 175 766 233 780 q 168 899 168 842 q 195 991 168 956 q 293 1033 227 1033 q 354 1027 333 1033 q 381 1020 375 1022 q 392 1017 387 1019 q 409 1011 397 1015 q 429 1004 420 1007 q 565 1004 429 1004 q 572 897 572 957 q 545 799 572 836 q 446 754 512 754 z "},"ä":{"ha":753,"x_min":8,"x_max":757,"o":"m 707 336 q 718 257 707 287 q 756 210 729 227 q 757 197 757 207 l 757 185 q 699 35 757 89 q 571 -12 647 -12 q 477 12 519 -12 q 416 83 434 37 q 393 60 393 83 q 416 18 393 41 q 283 -12 372 -12 q 83 56 158 -12 q 8 247 8 124 q 87 436 8 369 q 275 496 160 496 q 351 491 315 496 q 378 486 376 486 q 380 497 380 492 q 350 521 380 515 q 272 527 320 527 q 97 486 170 527 q 64 628 64 542 q 76 701 64 677 q 200 740 125 723 q 359 758 275 758 q 619 682 531 758 q 707 469 707 607 l 707 336 m 355 302 q 327 277 327 302 q 360 252 327 252 q 394 263 383 252 q 405 302 405 275 q 355 302 405 302 m 245 1029 q 353 971 313 1029 q 459 1029 393 1029 q 550 991 512 1029 q 588 904 588 954 q 564 821 588 854 q 490 774 539 788 q 438 784 470 780 q 394 788 406 788 q 354 827 370 803 q 314 788 340 805 q 215 774 260 784 q 143 820 170 785 q 117 903 117 854 q 154 991 117 953 q 245 1029 191 1029 z "},"å":{"ha":753,"x_min":8,"x_max":757,"o":"m 64 628 q 76 701 64 677 q 199 740 128 724 q 242 695 217 713 q 288 677 267 677 q 307 699 304 677 q 228 762 256 720 q 201 859 201 804 q 252 983 201 932 q 375 1034 302 1034 q 498 983 448 1034 q 549 861 549 932 q 508 739 549 790 q 707 469 707 682 l 707 336 q 718 257 707 287 q 756 210 729 227 q 757 197 757 207 l 757 185 q 699 35 757 89 q 571 -12 647 -12 q 477 12 519 -12 q 416 83 434 37 q 393 60 393 83 q 416 18 393 41 q 283 -12 372 -12 q 83 56 158 -12 q 8 247 8 124 q 87 436 8 369 q 275 496 160 496 q 351 491 315 496 q 378 486 376 486 q 380 497 380 492 q 350 521 380 515 q 272 527 320 527 q 97 486 170 527 q 64 628 64 542 m 355 302 q 327 277 327 302 q 360 252 327 252 q 394 263 383 252 q 405 302 405 275 l 355 302 z "},"æ":{"ha":1207,"x_min":8,"x_max":1194,"o":"m 610 59 q 631 102 631 83 q 626 116 631 109 q 610 122 621 122 q 497 24 577 60 q 311 -12 417 -12 q 91 56 173 -12 q 8 247 8 125 q 87 436 8 369 q 275 496 160 496 q 351 491 315 496 q 378 486 376 486 q 380 497 380 492 q 350 521 380 515 q 272 527 320 527 q 97 486 170 527 q 64 628 64 542 q 76 701 64 677 q 200 740 125 723 q 359 758 275 758 q 591 707 498 758 q 557 660 557 681 q 572 643 557 646 q 689 730 615 700 q 837 761 762 761 q 1096 672 998 761 q 1194 452 1194 583 q 1113 277 1194 336 q 909 222 1038 222 q 747 262 813 222 q 741 247 741 258 q 795 210 741 227 q 917 191 848 191 q 1041 209 985 191 q 1131 250 1097 226 q 1157 197 1147 235 q 1166 127 1166 159 q 1160 71 1166 96 q 1043 5 1115 31 q 879 -21 970 -21 q 715 2 787 -21 q 610 59 644 26 m 852 438 q 886 464 886 438 q 850 488 886 488 q 808 450 814 488 q 852 438 827 438 m 356 302 q 328 277 328 302 q 361 252 328 252 q 395 263 384 252 q 406 302 406 275 l 356 302 z "},"ç":{"ha":728,"x_min":14,"x_max":724,"o":"m 669 325 q 680 307 677 311 q 703 198 703 268 q 667 90 703 138 q 582 19 631 43 q 540 56 562 43 q 499 70 518 70 q 477 50 479 70 q 582 -103 582 9 q 519 -228 582 -184 q 380 -267 465 -267 q 243 -230 295 -267 q 192 -130 192 -194 q 243 -35 192 -65 q 292 -45 264 -45 q 331 -23 331 -45 q 323 -6 331 -12 q 95 119 177 18 q 14 379 14 221 q 132 669 14 563 q 397 764 238 764 q 631 695 538 764 q 724 506 724 625 q 672 371 724 423 q 538 319 621 319 q 425 356 470 319 q 372 450 380 392 q 342 429 342 450 q 391 338 342 379 q 530 289 447 289 q 669 325 612 289 z "},"è":{"ha":768,"x_min":14,"x_max":754,"o":"m 421 -21 q 125 83 233 -21 q 14 371 14 189 q 128 661 14 554 q 396 761 234 761 q 656 672 558 761 q 754 452 754 583 q 673 277 754 336 q 470 222 599 222 q 307 262 374 222 q 302 247 302 258 q 355 210 302 227 q 477 191 409 191 q 601 209 545 191 q 691 250 657 226 q 717 197 707 235 q 727 127 727 159 q 721 71 727 96 q 612 7 668 26 q 421 -21 534 -21 m 412 438 q 446 464 446 438 q 410 488 446 488 q 369 450 374 488 q 412 438 388 438 m 304 1034 q 387 1011 352 1034 q 454 943 422 989 q 538 826 486 897 q 603 741 589 756 q 393 795 521 795 q 303 786 354 795 l 174 829 l 174 900 q 202 991 174 956 q 304 1034 235 1034 z "},"é":{"ha":768,"x_min":14,"x_max":754,"o":"m 421 -21 q 125 83 233 -21 q 14 371 14 189 q 128 661 14 554 q 396 761 234 761 q 656 672 558 761 q 754 452 754 583 q 673 277 754 336 q 470 222 599 222 q 307 262 374 222 q 302 247 302 258 q 355 210 302 227 q 477 191 409 191 q 601 209 545 191 q 691 250 657 226 q 717 197 707 235 q 727 127 727 159 q 721 71 727 96 q 612 7 668 26 q 421 -21 534 -21 m 412 438 q 446 464 446 438 q 410 488 446 488 q 369 450 374 488 q 412 438 388 438 m 397 795 q 222 760 298 795 l 387 997 q 499 1034 439 1034 q 594 997 559 1034 q 630 912 630 960 q 600 833 630 864 q 526 791 576 810 l 505 783 q 397 795 453 795 z "},"ê":{"ha":768,"x_min":14,"x_max":754,"o":"m 421 -21 q 125 83 233 -21 q 14 371 14 189 q 128 661 14 554 q 396 761 234 761 q 656 672 558 761 q 754 452 754 583 q 673 277 754 336 q 470 222 599 222 q 307 262 374 222 q 302 247 302 258 q 355 210 302 227 q 477 191 409 191 q 601 209 545 191 q 691 250 657 226 q 717 197 707 235 q 727 127 727 159 q 721 71 727 96 q 612 7 668 26 q 421 -21 534 -21 m 412 438 q 446 464 446 438 q 410 488 446 488 q 369 450 374 488 q 412 438 388 438 m 370 795 q 257 773 319 793 q 153 721 196 753 l 240 987 q 308 1010 266 1002 q 385 1019 349 1019 q 532 992 481 1019 l 623 734 q 524 779 585 761 q 406 795 464 794 q 389 852 397 823 q 369 848 374 852 q 363 832 363 843 q 370 795 363 821 z "},"ë":{"ha":768,"x_min":14,"x_max":754,"o":"m 421 -21 q 125 83 233 -21 q 14 371 14 189 q 128 661 14 554 q 396 761 234 761 q 656 672 558 761 q 754 452 754 583 q 673 277 754 336 q 470 222 599 222 q 307 262 374 222 q 302 247 302 258 q 355 210 302 227 q 477 191 409 191 q 601 209 545 191 q 691 250 657 226 q 717 197 707 235 q 727 127 727 159 q 721 71 727 96 q 612 7 668 26 q 421 -21 534 -21 m 412 438 q 446 464 446 438 q 410 488 446 488 q 369 450 374 488 q 412 438 388 438 m 281 1029 q 389 971 350 1029 q 496 1029 429 1029 q 587 991 549 1029 q 625 904 625 954 q 598 820 625 855 q 530 777 572 785 q 422 795 481 791 q 391 827 403 807 q 359 794 378 807 q 256 774 304 790 q 182 817 211 782 q 154 903 154 852 q 191 991 154 953 q 281 1029 228 1029 z "},"ì":{"ha":415,"x_min":-2,"x_max":420,"o":"m 188 751 l 199 751 q 210 750 207 751 l -2 828 l -2 899 q 26 990 -2 955 q 127 1033 59 1033 q 211 1011 176 1033 q 281 939 246 989 l 389 785 q 368 744 385 766 q 334 712 351 722 q 370 627 370 683 l 370 342 q 419 210 370 241 q 420 197 420 207 l 420 185 q 366 35 420 85 q 232 -12 315 -12 q 94 35 148 -12 q 25 212 25 96 l 25 712 q 188 751 95 751 z "},"í":{"ha":415,"x_min":25,"x_max":422,"o":"m 25 212 l 25 712 q 52 725 34 719 q 25 774 33 746 l 178 997 q 291 1034 231 1034 q 386 997 351 1034 q 422 912 422 960 q 391 833 422 864 q 318 791 368 810 l 206 751 q 330 715 290 748 q 370 627 370 683 q 370 342 370 627 q 419 210 370 241 q 420 197 420 207 l 420 185 q 366 35 420 85 q 232 -12 315 -12 q 94 35 148 -12 q 25 212 25 96 z "},"î":{"ha":415,"x_min":-35,"x_max":420,"o":"m 25 712 q 188 751 95 751 q 328 717 281 751 q 370 627 370 685 l 370 342 q 419 210 370 241 q 420 197 420 207 l 420 185 q 366 35 420 85 q 232 -12 315 -12 q 94 35 148 -12 q 25 212 25 96 l 25 712 m -5 734 q -35 755 -28 747 l 40 987 q 105 1009 66 1001 q 180 1018 144 1018 q 254 1010 217 1018 q 313 988 291 1002 l 395 747 q 362 732 374 735 q 210 781 313 777 q 199 815 209 784 q 189 852 189 847 q 169 847 174 852 q 163 830 163 842 q 174 781 163 819 q -5 734 64 777 z "},"ï":{"ha":415,"x_min":-47,"x_max":424,"o":"m 25 712 q 188 751 95 751 q 328 717 281 751 q 370 627 370 685 l 370 342 q 419 210 370 241 q 420 197 420 207 l 420 185 q 366 35 420 85 q 232 -12 315 -12 q 94 35 148 -12 q 25 212 25 96 l 25 712 m 81 1029 q 189 970 149 1029 q 295 1029 229 1029 q 386 991 348 1029 q 424 900 424 953 q 389 809 424 846 q 296 772 353 772 q 190 826 227 772 q 82 771 154 771 q -11 808 25 771 q -47 899 -47 846 q -10 990 -47 952 q 81 1029 27 1029 z "},"ð":{"ha":782,"x_min":14,"x_max":768,"o":"m 381 319 l 381 269 q 397 264 386 264 q 412 271 408 264 q 417 297 417 279 l 417 326 q 412 406 417 385 q 391 427 406 427 q 375 420 382 427 q 381 319 381 359 m 252 669 q 165 647 219 669 q 71 585 111 625 q 24 673 31 629 l 96 739 l 46 793 q 121 908 66 847 q 220 977 176 968 q 328 936 275 960 q 439 867 381 911 q 454 882 454 871 q 418 922 454 894 l 476 964 q 598 873 546 935 q 665 730 650 812 l 611 688 q 709 570 671 634 q 768 335 768 465 q 661 71 768 166 q 393 -21 559 -21 q 123 71 227 -21 q 14 326 14 165 q 86 541 14 457 q 281 647 158 625 q 269 667 281 665 q 252 669 264 669 z "},"ñ":{"ha":783,"x_min":-9,"x_max":789,"o":"m 395 56 q 208 -12 328 -12 q 90 24 140 -12 q 31 132 31 64 l 31 469 q -9 608 -9 526 q 31 751 -9 690 l 156 751 q 238 715 204 751 q 208 669 208 687 q 232 648 208 648 q 367 751 274 723 q 485 731 431 731 q 566 750 538 731 q 689 668 645 727 q 741 481 741 598 l 741 448 q 741 410 741 435 q 739 323 739 384 q 750 257 739 287 q 788 210 761 227 q 789 197 789 207 l 789 185 q 735 40 789 92 q 596 -12 681 -12 q 458 36 511 -12 q 396 203 396 91 q 400 287 396 250 q 407 338 405 323 q 410 368 408 354 q 412 408 412 381 q 405 446 412 434 q 386 457 398 457 q 363 452 373 457 l 372 341 q 360 196 360 273 q 395 56 360 119 m 486 761 q 405 770 438 761 q 358 784 371 779 q 328 793 329 793 l 212 793 q 207 892 207 831 q 234 991 207 956 q 332 1033 266 1033 q 393 1027 372 1033 q 420 1020 414 1022 q 432 1017 427 1019 q 448 1011 437 1015 q 469 1004 460 1007 l 604 1004 q 611 898 611 957 q 584 804 611 839 q 486 761 551 761 z "},"ò":{"ha":787,"x_min":14,"x_max":773,"o":"m 378 378 l 378 259 q 394 254 383 254 q 410 262 405 254 q 414 288 414 269 l 414 385 q 409 471 414 450 q 389 492 404 492 q 372 486 379 492 q 378 378 378 418 m 125 77 q 14 368 14 184 q 118 657 14 551 q 393 764 223 764 q 669 653 564 764 q 773 365 773 543 q 672 83 773 188 q 399 -21 572 -21 q 125 77 226 -21 m 315 1033 q 396 1011 362 1033 q 468 939 429 989 l 587 781 q 576 755 583 767 q 392 794 492 794 q 307 787 349 794 l 185 828 l 185 899 q 213 990 185 955 q 315 1033 246 1033 z "},"ó":{"ha":787,"x_min":14,"x_max":773,"o":"m 378 378 l 378 259 q 394 254 383 254 q 410 262 405 254 q 414 288 414 269 l 414 385 q 409 471 414 450 q 389 492 404 492 q 372 486 379 492 q 378 378 378 418 m 125 77 q 14 368 14 184 q 118 657 14 551 q 393 764 223 764 q 669 653 564 764 q 773 365 773 543 q 672 83 773 188 q 399 -21 572 -21 q 125 77 226 -21 m 210 774 l 363 997 q 475 1034 415 1034 q 571 997 535 1034 q 606 912 606 960 q 576 833 606 864 q 503 791 552 810 l 484 785 q 396 794 438 794 q 214 758 296 794 q 210 774 211 772 z "},"ô":{"ha":787,"x_min":14,"x_max":773,"o":"m 378 378 l 378 259 q 394 254 383 254 q 410 262 405 254 q 414 288 414 269 l 414 385 q 409 471 414 450 q 389 492 404 492 q 372 486 379 492 q 378 378 378 418 m 125 77 q 14 368 14 184 q 118 657 14 551 q 393 764 223 764 q 669 653 564 764 q 773 365 773 543 q 672 83 773 188 q 399 -21 572 -21 q 125 77 226 -21 m 366 793 q 149 723 239 785 l 235 987 q 302 1009 260 1001 q 380 1018 344 1018 q 527 991 475 1018 l 617 733 q 400 794 525 791 q 383 852 387 840 q 363 847 369 852 q 358 828 358 842 q 366 793 358 814 z "},"õ":{"ha":787,"x_min":14,"x_max":773,"o":"m 378 378 l 378 259 q 394 254 383 254 q 410 262 405 254 q 414 288 414 269 l 414 385 q 409 471 414 450 q 389 492 404 492 q 372 486 379 492 q 378 378 378 418 m 14 374 q 100 637 14 534 q 333 760 186 740 q 475 730 407 730 q 536 740 511 730 q 709 601 646 699 q 773 368 773 500 q 672 83 773 188 q 399 -21 572 -21 q 125 77 226 -21 q 14 374 14 184 m 205 756 q 196 892 196 832 q 223 991 196 956 q 321 1033 255 1033 q 382 1027 361 1033 q 410 1020 404 1022 q 421 1017 416 1019 q 437 1011 426 1015 q 458 1004 449 1007 l 593 1004 q 600 898 600 957 q 573 804 600 839 q 476 761 541 761 q 356 781 412 761 q 330 791 338 788 q 205 756 281 785 z "},"ö":{"ha":787,"x_min":14,"x_max":773,"o":"m 378 378 l 378 259 q 394 254 383 254 q 410 262 405 254 q 414 288 414 269 l 414 385 q 409 471 414 450 q 389 492 404 492 q 372 486 379 492 q 378 378 378 418 m 125 77 q 14 368 14 184 q 118 657 14 551 q 393 764 223 764 q 669 653 564 764 q 773 365 773 543 q 672 83 773 188 q 399 -21 572 -21 q 125 77 226 -21 m 282 1029 q 390 970 351 1029 q 496 1029 430 1029 q 587 991 549 1029 q 625 902 625 953 q 598 818 625 852 q 525 775 571 784 q 425 793 480 789 q 391 826 405 806 q 358 793 378 806 q 255 774 301 789 q 182 817 210 783 q 155 902 155 851 q 192 990 155 952 q 282 1029 229 1029 z "},"÷":{"ha":726,"x_min":7,"x_max":720,"o":"m 215 183 q 217 211 215 197 l 524 211 q 527 183 527 199 q 482 73 527 118 q 373 28 437 28 q 261 74 308 28 q 215 183 215 119 m 261 523 q 238 545 261 523 q 215 633 215 568 q 261 744 215 698 q 371 789 307 789 q 481 744 435 789 q 527 632 527 698 q 482 522 527 567 q 373 477 437 477 q 261 523 308 477 m 377 448 q 408 448 377 448 q 485 482 440 448 q 549 576 530 516 l 663 576 q 706 494 692 533 q 720 407 720 456 q 706 320 720 359 q 663 241 692 282 l 63 241 q 7 407 7 319 q 21 495 7 456 q 63 576 35 535 l 194 576 q 269 477 216 511 q 377 448 313 448 z "},"ø":{"ha":784,"x_min":12,"x_max":772,"o":"m 362 260 q 382 277 376 260 l 444 454 q 426 462 435 462 q 409 455 416 462 q 393 421 401 448 l 350 293 q 347 277 347 281 q 362 260 347 260 m 393 -12 l 385 -12 q 376 -12 378 -12 l 357 -52 q 321 -54 338 -54 q 203 -31 260 -54 q 111 36 146 -7 l 126 82 q 12 369 12 187 q 117 657 12 551 q 393 764 222 764 l 408 764 q 422 762 413 764 l 436 794 q 466 796 450 796 q 592 771 532 796 q 687 702 653 746 l 669 650 q 772 366 772 539 q 670 91 772 193 q 393 -12 569 -12 z "},"ù":{"ha":779,"x_min":-9,"x_max":785,"o":"m 385 296 q 403 302 393 296 q 396 372 396 325 l 396 707 q 569 751 468 751 q 669 735 626 751 q 735 695 712 720 l 735 342 q 784 210 735 241 q 785 197 785 207 l 785 185 q 732 35 785 86 q 602 -12 685 -12 q 507 12 549 -12 q 444 81 465 35 q 420 58 420 81 q 436 27 420 43 q 384 -1 414 9 q 294 -12 353 -12 q 178 12 235 -12 q 71 104 109 42 q 26 290 26 177 l 26 460 q -9 593 -9 520 q 1 670 -9 630 q 31 741 10 710 l 180 741 q 312 702 264 741 q 360 581 360 662 l 360 361 q 385 296 360 296 m 141 892 q 169 983 141 947 q 271 1025 202 1025 q 352 1003 318 1025 q 424 932 385 981 l 538 779 q 388 737 450 771 l 141 821 l 141 892 z "},"ú":{"ha":779,"x_min":-9,"x_max":785,"o":"m 385 296 q 403 302 393 296 q 396 372 396 325 l 396 707 q 569 751 468 751 q 669 735 626 751 q 735 695 712 720 l 735 342 q 784 210 735 241 q 785 197 785 207 l 785 185 q 732 35 785 86 q 602 -12 685 -12 q 507 12 549 -12 q 444 81 465 35 q 420 58 420 81 q 436 27 420 43 q 384 -1 414 9 q 294 -12 353 -12 q 178 12 235 -12 q 71 104 109 42 q 26 290 26 177 l 26 460 q -9 593 -9 520 q 1 670 -9 630 q 31 741 10 710 l 180 741 q 312 702 264 741 q 360 581 360 662 l 360 361 q 385 296 360 296 m 549 833 q 475 791 525 810 l 321 735 q 180 772 271 772 l 336 997 q 448 1034 388 1034 q 544 997 508 1034 q 579 912 579 960 q 549 833 579 864 z "},"û":{"ha":779,"x_min":-9,"x_max":785,"o":"m 367 719 q 250 770 330 770 q 146 770 250 770 l 217 987 q 284 1009 243 1001 q 362 1018 326 1018 q 509 991 458 1018 l 581 781 q 396 745 469 781 q 377 811 386 779 q 367 847 368 843 q 366 852 366 850 q 346 847 351 852 q 340 828 340 842 q 367 719 340 825 m 385 297 q 403 302 396 297 q 396 372 396 325 l 396 707 q 569 751 468 751 q 669 735 626 751 q 735 695 712 720 l 735 342 q 784 210 735 241 q 785 197 785 207 l 785 185 q 732 35 785 86 q 602 -12 685 -12 q 507 12 549 -12 q 444 81 465 35 q 420 58 420 81 q 436 27 420 43 q 384 -1 414 9 q 294 -12 353 -12 q 178 12 235 -12 q 71 104 109 42 q 26 290 26 177 l 26 460 q -9 593 -9 520 q 1 670 -9 630 q 31 741 10 710 l 236 741 q 325 715 290 741 q 360 641 360 688 l 360 361 q 385 297 360 297 z "},"ü":{"ha":779,"x_min":-9,"x_max":785,"o":"m 259 1029 q 367 970 328 1029 q 473 1029 407 1029 q 564 991 526 1029 q 602 900 602 953 q 567 809 602 846 q 475 772 532 772 q 368 826 405 772 q 260 771 332 771 q 168 808 203 771 q 132 899 132 846 q 169 990 132 952 q 259 1029 205 1029 m 385 296 q 403 302 393 296 q 396 372 396 325 l 396 707 q 569 751 468 751 q 669 735 626 751 q 735 695 712 720 l 735 342 q 784 210 735 241 q 785 197 785 207 l 785 185 q 732 35 785 86 q 602 -12 685 -12 q 507 12 549 -12 q 444 81 465 35 q 420 58 420 81 q 436 27 420 43 q 384 -1 414 9 q 294 -12 353 -12 q 178 12 235 -12 q 71 104 109 42 q 26 290 26 177 l 26 460 q -9 593 -9 520 q 1 670 -9 630 q 31 741 10 710 l 180 741 q 312 702 264 741 q 360 581 360 662 l 360 361 q 385 296 360 296 z "},"ý":{"ha":742,"x_min":-19,"x_max":761,"o":"m 353 342 l 353 327 q 353 311 353 316 q 368 308 360 308 q 388 338 388 308 q 399 545 388 437 q 423 711 410 652 q 570 751 478 751 q 711 715 661 751 q 761 629 761 680 q 736 456 761 608 q 665 129 708 300 q 633 32 656 94 q 585 -72 610 -31 q 385 -231 504 -200 q 273 -245 330 -245 q 104 -191 164 -245 q 50 -70 50 -142 q 92 66 50 3 q 130 69 102 69 q 197 62 157 69 q 312 41 310 41 q 322 40 317 41 q 338 39 328 39 q 354 44 347 39 q 361 66 361 50 l 201 96 q 98 199 142 121 q 26 460 45 295 q -19 600 -19 518 q 22 741 -19 681 l 196 741 q 327 691 283 741 q 368 582 359 654 q 353 342 353 464 m 187 771 l 179 771 l 335 997 q 447 1034 387 1034 q 543 997 507 1034 q 578 912 578 960 q 548 833 578 864 q 475 791 524 810 l 326 737 q 187 771 286 771 z "},"þ":{"ha":764,"x_min":25,"x_max":751,"o":"m 378 366 l 378 275 q 394 271 383 271 q 410 278 405 271 q 414 304 414 286 l 414 373 q 409 459 414 438 q 389 481 404 481 q 372 474 379 481 q 378 366 378 407 m 248 24 q 243 12 243 21 q 275 -17 243 -8 q 384 -30 307 -26 l 384 -210 q 231 -241 314 -241 q 82 -205 132 -241 q 25 -87 25 -167 l 25 920 q 104 954 56 941 q 205 966 152 966 q 308 952 258 966 q 382 920 357 939 l 382 772 q 242 741 299 769 q 218 727 225 733 q 211 710 211 720 q 220 694 211 699 q 406 742 304 742 q 541 715 477 742 q 651 639 604 688 q 751 374 751 534 q 658 99 751 197 q 401 1 566 1 q 248 24 303 1 z "},"ÿ":{"ha":742,"x_min":-19,"x_max":761,"o":"m 260 1029 q 368 970 329 1029 q 475 1029 408 1029 q 566 991 528 1029 q 604 900 604 953 q 568 809 604 846 q 476 772 533 772 q 370 826 406 772 q 262 771 334 771 q 169 808 205 771 q 133 899 133 846 q 170 990 133 952 q 260 1029 207 1029 m 353 342 l 353 327 q 353 311 353 316 q 368 308 360 308 q 388 338 388 308 q 399 545 388 437 q 423 711 410 652 q 570 751 478 751 q 711 715 661 751 q 761 629 761 680 q 736 456 761 608 q 665 129 708 300 q 633 32 656 94 q 585 -72 610 -31 q 385 -231 504 -200 q 273 -245 330 -245 q 104 -191 164 -245 q 50 -70 50 -142 q 92 66 50 3 q 130 69 102 69 q 197 62 157 69 q 312 41 310 41 q 322 40 317 41 q 338 39 328 39 q 354 44 347 39 q 361 66 361 50 l 201 96 q 98 199 142 121 q 26 460 45 295 q -19 600 -19 518 q 22 741 -19 681 l 196 741 q 327 691 283 741 q 368 582 359 654 q 353 342 353 464 z "},"Ā":{"ha":915,"x_min":9,"x_max":912,"o":"m 443 446 q 460 440 448 440 q 479 445 471 440 q 456 567 462 548 q 433 587 448 587 q 417 583 427 587 l 443 446 m 309 242 q 302 224 302 233 q 339 192 302 205 q 429 175 376 178 q 448 64 437 77 q 376 13 435 39 q 245 -12 318 -12 q 79 30 148 -12 q 9 137 9 71 q 13 168 9 155 l 157 814 q 287 868 212 848 q 444 888 362 888 q 643 848 560 888 q 758 719 737 804 l 912 79 q 682 -12 842 -12 q 551 16 605 -12 q 489 95 498 43 l 474 178 q 553 193 515 178 q 591 224 591 208 q 582 242 591 235 q 519 214 556 224 q 450 205 481 205 q 309 242 358 205 m 242 1103 l 633 1103 q 674 980 674 1038 q 651 882 674 921 q 447 925 568 925 q 222 883 325 925 q 201 982 201 923 q 242 1103 201 1041 z "},"ā":{"ha":753,"x_min":8,"x_max":757,"o":"m 707 336 q 718 257 707 287 q 756 210 729 227 q 757 197 757 207 l 757 185 q 699 35 757 89 q 571 -12 647 -12 q 477 12 519 -12 q 416 83 434 37 q 393 60 393 83 q 416 18 393 41 q 283 -12 372 -12 q 83 56 158 -12 q 8 247 8 124 q 87 436 8 369 q 275 496 160 496 q 351 491 315 496 q 378 486 376 486 q 380 497 380 492 q 350 521 380 515 q 272 527 320 527 q 97 486 170 527 q 64 628 64 542 q 76 701 64 677 q 200 740 125 723 q 359 758 275 758 q 619 682 531 758 q 707 469 707 607 l 707 336 m 355 302 q 327 277 327 302 q 360 252 327 252 q 394 263 383 252 q 405 302 405 275 q 355 302 405 302 m 169 980 l 559 980 q 601 855 601 916 q 575 745 601 794 q 357 787 492 787 q 146 755 257 787 q 127 858 127 798 q 169 980 127 918 z "},"Ă":{"ha":915,"x_min":9,"x_max":912,"o":"m 443 446 q 460 440 448 440 q 479 445 471 440 q 456 567 462 548 q 433 587 448 587 q 417 583 427 587 l 443 446 m 309 242 q 302 224 302 233 q 339 192 302 205 q 429 175 376 178 q 448 64 437 77 q 376 13 435 39 q 245 -12 318 -12 q 79 30 148 -12 q 9 137 9 71 q 13 168 9 155 l 157 814 q 287 868 212 848 q 444 888 362 888 q 643 848 560 888 q 758 719 737 804 l 912 79 q 682 -12 842 -12 q 551 16 605 -12 q 489 95 498 43 l 474 178 q 553 193 515 178 q 591 224 591 208 q 582 242 591 235 q 519 214 556 224 q 450 205 481 205 q 309 242 358 205 m 239 883 q 194 987 194 926 q 230 1081 194 1048 q 300 1114 265 1114 q 353 1063 317 1084 q 439 1042 389 1042 q 574 1114 536 1042 q 648 1081 610 1114 q 686 990 686 1047 q 673 936 686 964 q 640 884 660 907 q 440 919 549 919 q 239 883 331 919 z "},"ă":{"ha":753,"x_min":8,"x_max":757,"o":"m 707 336 q 718 257 707 287 q 756 210 729 227 q 757 197 757 207 l 757 185 q 699 35 757 89 q 571 -12 647 -12 q 477 12 519 -12 q 416 83 434 37 q 393 60 393 83 q 416 18 393 41 q 283 -12 372 -12 q 83 56 158 -12 q 8 247 8 124 q 87 436 8 369 q 275 496 160 496 q 351 491 315 496 q 378 486 376 486 q 380 497 380 492 q 350 521 380 515 q 272 527 320 527 q 97 486 170 527 q 64 628 64 542 q 76 701 64 677 q 200 740 125 723 q 359 758 275 758 q 619 682 531 758 q 707 469 707 607 l 707 336 m 355 302 q 327 277 327 302 q 360 252 327 252 q 394 263 383 252 q 405 302 405 275 q 355 302 405 302 m 245 990 q 300 939 262 960 q 383 918 338 918 q 465 937 428 918 q 520 990 502 956 q 593 957 555 990 q 631 866 631 923 q 570 748 631 798 q 360 787 488 787 q 181 766 267 787 q 140 866 140 809 q 175 957 140 924 q 245 990 211 990 z "},"Ą":{"ha":915,"x_min":9,"x_max":928,"o":"m 450 205 q 309 242 358 205 q 302 224 302 233 q 339 192 302 205 q 429 175 376 178 q 448 64 437 77 q 376 13 435 39 q 245 -12 318 -12 q 79 30 148 -12 q 9 137 9 71 q 13 168 9 155 l 157 814 q 287 868 212 848 q 444 888 362 888 q 643 848 560 888 q 758 719 737 804 l 912 79 q 845 22 891 47 q 813 -2 823 9 q 803 -30 803 -13 q 813 -56 803 -46 q 842 -66 824 -66 q 878 -56 859 -66 q 928 -150 928 -85 q 878 -251 928 -215 q 748 -287 828 -287 q 613 -246 669 -287 q 552 -123 552 -202 q 568 -54 552 -81 q 613 -5 583 -27 q 489 95 504 16 l 474 178 q 550 194 515 178 q 584 224 584 208 q 575 242 584 235 q 450 205 522 205 m 443 446 q 460 440 448 440 q 479 445 471 440 q 456 567 462 548 q 433 587 448 587 q 417 583 427 587 l 443 446 z "},"ą":{"ha":754,"x_min":8,"x_max":784,"o":"m 357 302 q 328 276 328 302 q 361 252 328 252 q 395 263 385 252 q 406 302 406 274 l 357 302 m 394 60 q 416 18 394 43 q 283 -12 372 -12 q 83 56 158 -12 q 8 247 8 124 q 87 436 8 369 q 275 496 160 496 q 351 491 315 496 q 378 486 376 486 q 380 497 380 492 q 350 521 380 515 q 272 527 320 527 q 97 486 170 527 q 64 628 64 542 q 76 701 64 677 q 196 741 124 723 q 360 759 268 759 q 620 683 532 759 q 709 468 709 607 l 709 335 q 720 256 709 286 q 758 210 730 227 q 758 197 758 206 l 758 184 q 739 96 758 132 q 688 27 720 60 q 665 -4 672 8 q 659 -32 659 -17 q 669 -55 659 -46 q 697 -64 679 -64 q 733 -54 715 -64 q 784 -149 784 -84 q 729 -249 784 -213 q 594 -286 674 -286 q 455 -243 514 -286 q 397 -122 397 -201 q 417 -42 397 -73 q 477 12 438 -10 q 417 82 432 36 q 394 60 394 82 z "},"Ć":{"ha":853,"x_min":8,"x_max":843,"o":"m 454 270 q 467 273 461 270 l 467 335 q 596 386 513 366 q 758 406 679 406 q 818 296 793 369 q 843 164 842 223 q 797 106 829 137 q 720 48 765 75 q 461 -18 607 -18 q 132 103 252 -18 q 8 443 8 226 q 144 785 8 661 q 283 868 203 840 q 450 897 362 897 q 730 814 621 897 q 839 610 839 731 q 783 474 839 518 q 630 431 726 431 q 524 457 577 431 q 460 506 470 483 q 462 593 460 562 q 457 594 460 594 l 452 594 q 436 588 442 594 q 426 564 431 583 q 422 465 422 546 q 454 270 422 270 m 452 927 q 258 892 349 927 l 412 1120 q 525 1157 465 1157 q 620 1120 585 1157 q 656 1036 656 1083 q 629 961 656 988 q 554 916 602 935 q 452 927 504 927 z "},"ć":{"ha":728,"x_min":14,"x_max":724,"o":"m 399 -21 q 118 88 223 -21 q 14 380 14 197 q 132 669 14 563 q 397 764 238 764 q 631 695 538 764 q 724 506 724 625 q 672 371 724 423 q 538 319 621 319 q 425 356 470 319 q 372 450 380 392 q 342 429 342 450 q 391 338 342 379 q 531 289 447 289 q 669 325 614 289 q 703 198 703 273 q 629 50 703 111 q 399 -21 543 -21 m 580 997 q 598 978 580 997 q 616 912 616 960 q 588 837 616 864 q 497 786 561 809 q 397 795 450 795 q 203 752 295 795 l 372 997 q 485 1034 425 1034 q 580 997 545 1034 z "},"Č":{"ha":853,"x_min":8,"x_max":843,"o":"m 454 270 q 467 273 461 270 l 467 335 q 596 386 513 366 q 758 406 679 406 q 818 296 793 369 q 843 164 842 223 q 797 106 829 137 q 720 48 765 75 q 461 -18 607 -18 q 132 103 252 -18 q 8 443 8 226 q 144 785 8 661 q 283 868 203 840 q 450 897 362 897 q 730 814 621 897 q 839 610 839 731 q 783 474 839 518 q 630 431 726 431 q 524 457 577 431 q 460 506 470 483 q 462 593 460 562 q 457 594 460 594 l 452 594 q 436 588 442 594 q 426 564 431 583 q 422 465 422 546 q 454 270 422 270 m 581 913 q 436 927 516 927 q 285 904 357 927 q 240 984 254 958 q 205 1048 227 1010 q 191 1096 191 1076 q 205 1127 191 1115 q 248 1140 219 1140 l 382 1140 l 424 1062 q 454 1086 454 1062 q 433 1140 454 1097 l 482 1140 q 534 1141 517 1140 l 607 1141 q 643 1127 629 1141 q 658 1093 658 1114 q 581 913 658 1061 z "},"č":{"ha":728,"x_min":14,"x_max":724,"o":"m 399 -21 q 118 88 223 -21 q 14 380 14 197 q 132 669 14 563 q 397 764 238 764 q 631 695 538 764 q 724 506 724 625 q 672 371 724 423 q 538 319 621 319 q 425 356 470 319 q 372 450 380 392 q 342 429 342 450 q 391 338 342 379 q 531 289 447 289 q 669 325 614 289 q 703 198 703 273 q 629 50 703 111 q 399 -21 543 -21 m 240 767 q 153 924 202 832 q 138 971 138 952 q 153 1003 138 991 q 196 1016 167 1016 l 330 1016 l 372 938 q 402 962 402 938 q 381 1016 402 972 l 430 1016 q 481 1017 465 1016 l 555 1017 q 591 1003 576 1017 q 606 966 606 990 q 552 836 606 941 q 524 779 531 793 q 391 795 465 795 q 240 767 317 795 z "},"Ď":{"ha":857,"x_min":22,"x_max":842,"o":"m 432 468 q 426 561 432 536 q 404 587 420 587 q 385 580 393 587 q 389 547 387 568 q 392 460 392 527 l 392 416 q 390 349 392 370 q 387 313 388 328 q 385 297 386 305 q 404 290 393 290 q 426 316 420 290 q 432 409 432 341 l 432 468 m 179 -1 q 63 39 104 -1 q 22 160 22 79 l 22 770 q 125 858 22 822 q 356 893 229 893 q 707 785 581 893 q 842 437 842 668 q 711 114 842 229 q 351 -1 580 -1 l 179 -1 m 246 916 q 206 988 222 958 q 192 1014 197 1004 q 181 1035 187 1024 q 159 1096 159 1075 q 174 1127 159 1115 q 217 1140 188 1140 l 351 1140 l 393 1062 q 423 1086 423 1062 q 402 1140 423 1097 l 451 1140 q 503 1141 486 1140 l 576 1141 q 612 1127 597 1141 q 627 1095 627 1114 q 612 1042 627 1075 q 574 963 597 1008 q 543 902 551 917 q 371 924 449 924 q 246 916 294 924 z "},"ď":{"ha":1051,"x_min":7,"x_max":1043,"o":"m 401 481 q 385 488 395 488 q 365 466 370 488 q 359 380 359 445 l 359 311 q 364 285 359 292 q 380 277 369 277 q 395 282 391 277 l 395 373 q 401 481 395 439 m 353 882 q 432 945 389 924 q 542 966 475 966 q 656 935 609 966 q 720 845 703 903 q 778 902 739 882 q 865 922 817 922 q 996 865 948 922 q 1043 722 1043 808 q 980 551 1043 613 q 842 494 923 494 q 763 524 788 494 l 763 615 q 826 604 789 604 q 881 611 862 604 q 900 631 900 618 q 895 647 900 637 q 831 634 869 634 q 727 684 764 634 l 727 342 q 776 210 727 241 q 777 197 777 207 l 777 185 q 718 35 777 89 q 591 -12 667 -12 q 499 10 538 -12 q 435 81 454 36 q 412 58 412 81 q 420 35 412 48 q 441 12 428 22 q 338 -12 401 -12 q 177 27 252 -12 q 58 147 102 67 q 7 369 7 239 q 104 642 7 543 q 353 741 201 741 q 509 707 442 741 q 516 722 516 714 q 468 757 516 743 q 371 771 420 771 q 353 882 371 840 z "},"Đ":{"ha":946,"x_min":15,"x_max":931,"o":"m 481 262 q 519 296 500 262 q 549 431 549 351 q 519 574 549 511 q 485 603 506 603 q 465 589 474 603 q 499 522 486 564 q 512 430 512 480 q 492 327 512 379 q 461 275 475 288 q 481 262 468 262 m 111 625 l 111 770 q 161 830 111 803 q 288 872 212 858 q 445 887 363 887 q 795 779 670 887 q 931 426 931 661 q 800 111 931 223 q 439 -1 668 -1 l 268 -1 q 152 39 193 -1 q 111 160 111 79 l 111 272 l 68 272 q 32 334 48 292 q 15 428 15 375 q 28 524 15 481 q 64 595 41 567 l 183 595 q 178 617 183 609 q 155 625 172 625 l 111 625 z "},"đ":{"ha":789,"x_min":7,"x_max":787,"o":"m 395 454 q 378 460 388 460 q 358 439 363 460 q 353 353 353 418 l 353 311 q 357 285 353 292 q 373 277 362 277 q 389 282 384 277 l 389 346 q 395 454 389 412 m 58 564 q 172 669 101 635 q 310 703 242 703 l 318 703 q 324 703 322 703 q 326 714 326 707 q 319 726 326 721 q 293 730 312 730 q 191 711 239 730 q 232 842 191 782 l 357 842 q 356 886 356 857 l 356 926 q 424 953 376 939 q 525 966 471 966 q 668 932 619 966 q 713 842 712 899 l 746 842 q 787 715 787 778 q 746 587 787 652 l 661 587 q 659 573 659 581 q 667 561 659 565 q 694 557 675 557 l 720 557 l 720 342 q 769 210 720 241 q 770 197 770 207 l 770 185 q 711 35 770 89 q 584 -12 660 -12 q 492 10 531 -12 q 429 81 447 36 q 406 58 406 81 q 413 35 406 48 q 435 12 421 22 q 338 -12 397 -12 q 181 24 252 -12 q 58 146 102 65 q 7 359 7 237 q 58 564 7 481 z "},"Ē":{"ha":754,"x_min":22,"x_max":766,"o":"m 327 875 l 718 875 q 747 804 738 842 q 757 735 757 766 q 730 632 757 667 q 655 597 703 597 l 382 597 q 357 578 357 597 l 357 572 q 358 567 357 568 l 682 567 q 703 514 694 546 q 711 452 711 479 q 682 326 711 372 l 534 326 q 395 318 431 326 q 349 305 358 311 q 340 290 340 299 q 350 275 340 280 q 424 291 385 286 q 534 296 475 296 l 725 296 q 766 155 766 237 q 755 67 766 109 q 720 -1 743 25 l 212 -1 q 77 40 128 -1 q 22 168 22 83 l 22 812 q 96 860 22 845 q 327 875 171 875 m 146 975 q 188 1103 146 1041 l 578 1103 q 620 975 620 1038 q 608 905 620 940 l 327 905 q 161 899 234 905 q 146 975 146 932 z "},"ē":{"ha":768,"x_min":14,"x_max":754,"o":"m 421 -21 q 125 83 233 -21 q 14 371 14 189 q 128 661 14 554 q 396 761 234 761 q 656 672 558 761 q 754 452 754 583 q 673 277 754 336 q 470 222 599 222 q 307 262 374 222 q 302 247 302 258 q 355 210 302 227 q 477 191 409 191 q 601 209 545 191 q 691 250 657 226 q 717 197 707 235 q 727 127 727 159 q 721 71 727 96 q 612 7 668 26 q 421 -21 534 -21 m 412 438 q 446 464 446 438 q 410 488 446 488 q 369 450 374 488 q 412 438 388 438 m 187 979 l 578 979 q 619 857 619 915 q 594 752 619 799 q 391 795 509 795 q 178 738 273 795 q 146 854 146 791 q 187 979 146 918 z "},"Ĕ":{"ha":754,"x_min":22,"x_max":766,"o":"m 327 875 l 718 875 q 747 804 738 842 q 757 735 757 766 q 730 632 757 667 q 655 597 703 597 l 382 597 q 357 578 357 597 l 357 572 q 358 567 357 568 l 682 567 q 703 514 694 546 q 711 452 711 479 q 682 326 711 372 l 534 326 q 395 318 431 326 q 349 305 358 311 q 340 290 340 299 q 350 275 340 280 q 424 291 385 286 q 534 296 475 296 l 725 296 q 766 155 766 237 q 755 67 766 109 q 720 -1 743 25 l 212 -1 q 77 40 128 -1 q 22 168 22 83 l 22 812 q 96 860 22 845 q 327 875 171 875 m 323 905 q 175 899 248 905 q 143 991 143 935 q 179 1080 143 1047 q 249 1114 214 1114 q 302 1062 267 1083 q 388 1041 338 1041 q 524 1114 485 1041 q 597 1080 559 1114 q 635 989 635 1046 q 607 905 635 943 l 323 905 z "},"ĕ":{"ha":768,"x_min":14,"x_max":754,"o":"m 421 -21 q 125 83 233 -21 q 14 371 14 189 q 128 661 14 554 q 396 761 234 761 q 656 672 558 761 q 754 452 754 583 q 673 277 754 336 q 470 222 599 222 q 307 262 374 222 q 302 247 302 258 q 355 210 302 227 q 477 191 409 191 q 601 209 545 191 q 691 250 657 226 q 717 197 707 235 q 727 127 727 159 q 721 71 727 96 q 612 7 668 26 q 421 -21 534 -21 m 412 438 q 446 464 446 438 q 410 488 446 488 q 369 450 374 488 q 412 438 388 438 m 184 960 q 252 990 217 990 q 307 939 269 960 q 389 918 345 918 q 471 937 434 918 q 526 990 508 956 q 596 960 562 990 q 637 863 637 923 q 585 755 637 803 q 397 795 504 795 q 202 752 291 795 q 146 862 146 800 q 184 960 146 924 z "},"Ė":{"ha":754,"x_min":22,"x_max":766,"o":"m 526 875 l 718 875 q 747 804 738 842 q 757 735 757 766 q 730 632 757 667 q 655 597 703 597 l 382 597 q 357 578 357 597 l 357 572 q 358 567 357 568 l 682 567 q 703 514 694 546 q 711 452 711 479 q 682 326 711 372 l 534 326 q 395 318 431 326 q 349 305 358 311 q 340 290 340 299 q 350 275 340 280 q 424 291 385 286 q 534 296 475 296 l 725 296 q 766 155 766 237 q 755 67 766 109 q 720 -1 743 25 l 212 -1 q 77 40 128 -1 q 22 168 22 83 l 22 812 q 249 873 22 866 q 292 835 260 853 q 387 810 334 810 q 475 830 439 810 q 526 875 511 850 m 281 1098 q 387 1142 326 1142 q 494 1098 449 1142 q 538 990 538 1053 q 497 885 538 928 q 388 841 453 841 q 280 884 323 841 q 237 990 237 928 q 281 1098 237 1053 z "},"ė":{"ha":768,"x_min":14,"x_max":754,"o":"m 412 438 q 446 464 446 438 q 410 488 446 488 q 369 450 374 488 q 412 438 388 438 m 401 686 q 533 741 484 686 q 695 629 637 705 q 754 452 754 553 q 673 277 754 336 q 470 222 599 222 q 307 262 374 222 q 302 247 302 258 q 355 210 302 227 q 477 191 409 191 q 601 209 545 191 q 691 250 657 226 q 717 197 707 235 q 727 127 727 159 q 721 71 727 96 q 612 7 668 26 q 421 -21 534 -21 q 125 83 233 -21 q 14 370 14 189 q 73 597 14 500 q 265 741 140 703 q 319 703 284 719 q 401 686 355 686 m 293 975 q 399 1019 337 1019 q 506 975 460 1019 q 550 867 550 929 q 509 762 550 804 q 399 718 465 718 q 292 761 334 718 q 249 867 249 804 q 293 975 249 929 z "},"Ę":{"ha":754,"x_min":22,"x_max":766,"o":"m 692 -1 q 649 -12 661 -1 q 637 -36 637 -23 q 647 -57 637 -49 q 675 -66 656 -66 q 712 -56 694 -66 q 763 -150 763 -85 q 713 -251 763 -215 q 582 -287 663 -287 q 448 -248 500 -287 q 387 -124 387 -205 q 447 -1 387 -43 l 212 -1 q 77 40 128 -1 q 22 168 22 83 l 22 812 q 96 860 22 845 q 327 875 171 875 l 718 875 q 747 804 738 842 q 757 735 757 766 q 730 632 757 667 q 655 597 703 597 l 382 597 q 357 578 357 597 q 357 572 357 578 q 358 567 357 568 l 682 567 q 703 514 694 546 q 711 452 711 479 q 682 326 711 372 l 534 326 q 395 318 431 326 q 349 305 358 311 q 340 290 340 299 q 350 275 340 280 q 424 291 385 286 q 534 296 475 296 l 725 296 q 766 155 766 237 q 755 67 766 109 q 720 -1 743 25 l 692 -1 z "},"ę":{"ha":768,"x_min":14,"x_max":754,"o":"m 721 71 q 621 10 680 35 q 580 -35 580 -6 q 590 -57 580 -49 q 617 -66 600 -66 q 652 -56 633 -66 q 703 -150 703 -85 q 652 -251 703 -215 q 521 -287 602 -287 q 387 -248 440 -287 q 326 -123 326 -205 q 406 11 326 -32 q 386 34 405 34 q 354 20 372 34 q 322 -12 335 7 q 96 114 178 14 q 14 370 14 214 q 128 661 14 554 q 396 761 234 761 q 656 672 558 761 q 754 452 754 583 q 673 277 754 336 q 470 222 599 222 q 307 262 374 222 q 302 247 302 258 q 355 210 302 227 q 477 191 409 191 q 601 209 545 191 q 691 250 657 226 q 717 197 707 235 q 727 127 727 159 q 721 71 727 96 m 412 438 q 446 464 446 438 q 410 488 446 488 q 369 450 374 488 q 412 438 388 438 z "},"Ě":{"ha":754,"x_min":22,"x_max":766,"o":"m 327 875 l 718 875 q 747 804 738 842 q 757 735 757 766 q 730 632 757 667 q 655 597 703 597 l 382 597 q 357 578 357 597 l 357 572 q 358 567 357 568 l 682 567 q 703 514 694 546 q 711 452 711 479 q 682 326 711 372 l 534 326 q 395 318 431 326 q 349 305 358 311 q 340 290 340 299 q 350 275 340 280 q 424 291 385 286 q 534 296 475 296 l 725 296 q 766 155 766 237 q 755 67 766 109 q 720 -1 743 25 l 212 -1 q 77 40 128 -1 q 22 168 22 83 l 22 812 q 96 860 22 845 q 327 875 171 875 m 326 905 q 237 903 264 905 q 219 933 222 926 q 202 964 216 940 q 157 1048 189 988 q 142 1096 142 1076 q 157 1127 142 1115 q 200 1140 171 1140 l 334 1140 l 376 1062 q 406 1086 406 1062 q 385 1140 406 1097 l 434 1140 q 486 1141 469 1140 l 559 1141 q 595 1127 581 1141 q 610 1089 610 1114 q 552 951 610 1065 q 529 905 540 924 l 326 905 z "},"ě":{"ha":768,"x_min":14,"x_max":754,"o":"m 421 -21 q 125 83 233 -21 q 14 371 14 189 q 128 661 14 554 q 396 761 234 761 q 656 672 558 761 q 754 452 754 583 q 673 277 754 336 q 470 222 599 222 q 307 262 374 222 q 302 247 302 258 q 355 210 302 227 q 477 191 409 191 q 601 209 545 191 q 691 250 657 226 q 717 197 707 235 q 727 127 727 159 q 721 71 727 96 q 612 7 668 26 q 421 -21 534 -21 m 412 438 q 446 464 446 438 q 410 488 446 488 q 369 450 374 488 q 412 438 388 438 m 256 771 q 172 924 224 825 q 157 971 157 952 q 172 1003 157 991 q 215 1016 186 1016 l 349 1016 l 391 938 q 421 962 421 938 q 400 1016 421 972 l 449 1016 q 500 1017 484 1016 l 574 1017 q 610 1003 595 1017 q 625 968 625 990 q 551 795 625 937 q 539 772 543 780 q 398 795 477 795 q 256 771 319 795 z "},"Ğ":{"ha":911,"x_min":15,"x_max":910,"o":"m 469 565 l 871 565 q 910 428 910 509 q 877 298 910 348 l 849 298 l 849 94 q 496 -22 715 -22 q 259 26 363 -22 q 83 174 146 77 q 15 437 15 281 q 148 781 15 659 q 490 897 274 897 q 691 865 596 897 q 840 785 785 833 q 830 686 840 745 q 806 595 821 627 l 448 595 q 407 529 427 572 q 388 429 388 486 q 427 308 388 352 q 513 268 460 268 q 535 283 535 268 l 535 298 l 528 298 q 453 333 483 298 q 424 433 424 368 q 469 565 424 515 m 194 990 q 230 1081 194 1048 q 300 1114 265 1114 q 353 1063 317 1084 q 439 1042 389 1042 q 574 1114 536 1042 q 648 1081 610 1114 q 686 994 686 1047 q 652 907 686 941 q 486 927 574 927 q 248 881 357 927 q 208 931 221 900 q 194 990 194 962 z "},"ğ":{"ha":766,"x_min":12,"x_max":758,"o":"m 405 486 q 387 511 405 511 q 370 490 370 511 l 370 420 q 386 416 375 416 q 401 424 397 416 q 405 454 405 432 l 405 486 m 604 787 l 716 787 q 757 684 757 751 q 749 623 757 646 q 726 575 741 600 q 744 464 744 530 q 659 278 744 344 q 430 212 574 212 q 356 218 387 212 q 354 206 354 212 q 375 186 354 191 q 430 181 397 181 q 610 212 536 181 q 724 130 684 193 q 758 7 758 77 q 651 -189 758 -119 q 377 -258 545 -258 q 117 -199 209 -258 q 33 -58 33 -144 q 48 6 33 -24 q 84 49 64 37 q 184 3 118 20 q 320 -15 250 -15 q 410 -9 390 -15 q 430 9 430 -4 q 426 23 430 16 q 341 16 392 16 q 136 53 210 16 q 45 188 45 98 q 59 253 45 223 q 101 298 73 283 q 38 368 64 321 q 12 484 12 415 q 98 682 12 608 q 331 764 184 756 q 332 773 332 770 q 298 793 332 793 q 178 766 245 793 q 138 867 138 810 q 173 957 138 924 q 243 990 209 990 q 298 939 260 960 q 381 918 336 918 q 463 937 426 918 q 518 990 500 956 q 591 957 553 990 q 629 871 629 923 q 604 787 629 819 z "},"Ģ":{"ha":911,"x_min":15,"x_max":910,"o":"m 469 565 l 871 565 q 910 428 910 509 q 877 298 910 348 l 849 298 l 849 94 q 707 13 790 42 q 668 77 693 50 q 626 104 643 104 q 599 90 609 104 q 663 19 641 64 q 685 -85 685 -27 q 622 -256 685 -194 q 484 -313 565 -313 q 411 -288 435 -313 q 386 -232 386 -264 q 395 -187 386 -201 q 427 -198 402 -193 q 477 -203 451 -203 q 523 -196 504 -203 q 542 -176 542 -189 q 536 -160 542 -170 q 473 -173 511 -173 q 379 -135 416 -173 q 343 -39 343 -98 q 347 -2 343 -16 q 111 138 197 34 q 15 437 15 254 q 146 778 15 659 q 493 897 277 897 q 692 865 598 897 q 840 785 785 833 q 830 686 840 745 q 806 595 821 627 l 448 595 q 407 529 427 572 q 388 429 388 486 q 427 308 388 352 q 513 268 460 268 q 535 283 535 268 l 535 298 l 528 298 q 453 333 483 298 q 424 433 424 368 q 469 565 424 515 z "},"ģ":{"ha":766,"x_min":12,"x_max":758,"o":"m 405 486 q 387 511 405 511 q 370 490 370 511 l 370 420 q 386 416 375 416 q 401 424 397 416 q 405 454 405 432 l 405 486 m 349 899 q 355 883 349 892 q 422 896 380 896 q 502 868 465 896 q 546 787 538 840 l 716 787 q 757 689 757 751 q 726 575 757 627 q 744 464 744 530 q 659 278 744 344 q 430 212 574 212 q 356 218 387 212 q 354 206 354 212 q 375 186 354 191 q 430 181 397 181 q 610 212 536 181 q 724 130 684 193 q 758 7 758 77 q 651 -189 758 -119 q 377 -258 545 -258 q 117 -199 209 -258 q 33 -58 33 -144 q 48 6 33 -24 q 84 49 64 37 q 184 3 118 20 q 320 -15 250 -15 q 410 -9 390 -15 q 430 9 430 -4 q 426 23 430 16 q 341 16 392 16 q 136 53 210 16 q 45 188 45 98 q 59 253 45 223 q 101 298 73 283 q 38 368 64 321 q 12 484 12 415 q 56 635 12 572 q 180 732 100 699 q 210 669 193 693 q 244 641 228 641 q 266 652 260 641 q 206 812 206 708 q 269 979 206 916 q 407 1036 327 1036 q 480 1011 455 1036 q 505 955 505 987 q 496 910 505 924 q 423 926 459 926 q 349 899 349 926 z "},"Ī":{"ha":439,"x_min":-21,"x_max":452,"o":"m 418 752 l 418 52 q 334 6 387 24 q 208 -12 282 -12 q 81 21 133 -12 q 22 123 22 57 l 22 823 q 105 869 53 850 q 231 887 157 887 q 359 854 305 887 q 418 752 418 817 m 20 1103 l 411 1103 q 452 977 452 1038 q 412 849 452 916 q 338 898 387 879 q 225 918 288 918 q 14 857 99 918 q -21 977 -21 913 q 20 1103 -21 1041 z "},"ī":{"ha":415,"x_min":-45,"x_max":421,"o":"m 25 712 q 188 751 95 751 q 328 717 281 751 q 370 627 370 685 l 370 342 q 419 210 370 241 q 420 197 420 207 l 420 185 q 366 35 420 85 q 232 -12 315 -12 q 94 35 148 -12 q 25 212 25 96 l 25 712 m -8 730 q -45 850 -45 782 q -4 979 -45 918 l 380 979 q 421 851 421 915 q 376 717 421 787 q 317 760 358 741 q 188 781 266 781 q -8 730 80 781 z "},"Į":{"ha":439,"x_min":22,"x_max":430,"o":"m 418 752 l 418 52 q 319 1 381 20 q 304 -30 304 -12 q 315 -57 304 -47 q 343 -66 325 -66 q 379 -56 361 -66 q 430 -150 430 -85 q 380 -251 430 -215 q 250 -287 330 -287 q 112 -244 171 -287 q 54 -123 54 -202 q 76 -44 54 -79 q 125 1 92 -18 q 22 123 22 33 l 22 823 q 105 869 53 850 q 231 887 157 887 q 359 854 305 887 q 418 752 418 817 z "},"į":{"ha":415,"x_min":5,"x_max":420,"o":"m 123 14 q 25 212 25 71 l 25 652 q 52 667 37 661 q 81 680 66 672 q 28 732 52 695 q 5 819 5 769 q 61 958 5 904 q 199 1013 117 1013 q 336 957 281 1013 q 391 819 391 902 q 349 701 391 751 q 247 637 307 650 q 267 612 247 612 q 337 639 301 612 q 370 610 364 618 l 370 342 q 419 210 370 241 q 420 197 420 207 l 420 185 q 385 58 420 107 q 292 -4 352 12 q 286 -31 286 -14 q 296 -57 286 -47 q 325 -66 307 -66 q 361 -56 342 -66 q 412 -150 412 -85 q 361 -251 412 -215 q 232 -287 311 -287 q 96 -246 152 -287 q 35 -123 35 -202 q 123 14 35 -32 z "},"İ":{"ha":439,"x_min":22,"x_max":418,"o":"m 22 123 l 22 823 q 86 862 47 846 q 140 826 105 841 q 214 810 174 810 q 345 862 299 810 q 418 752 418 826 l 418 52 q 334 6 387 24 q 208 -12 282 -12 q 81 21 133 -12 q 22 123 22 57 m 108 1098 q 214 1142 152 1142 q 321 1098 275 1142 q 365 990 365 1053 q 323 885 365 928 q 214 841 279 841 q 106 884 149 841 q 64 990 64 928 q 108 1098 64 1053 z "},"ı":{"ha":415,"x_min":25,"x_max":420,"o":"m 25 712 q 188 751 95 751 q 328 717 281 751 q 370 627 370 685 l 370 342 q 419 210 370 241 q 420 197 420 207 l 420 185 q 366 35 420 85 q 232 -12 315 -12 q 94 35 148 -12 q 25 212 25 96 l 25 712 z "},"Ķ":{"ha":806,"x_min":22,"x_max":870,"o":"m 312 107 q 318 91 312 98 q 412 115 358 115 q 542 58 494 115 q 589 -85 589 1 q 526 -256 589 -194 q 389 -313 469 -313 q 315 -288 340 -313 q 290 -232 290 -264 q 299 -187 290 -201 q 331 -198 307 -193 q 382 -203 355 -203 q 427 -196 408 -203 q 446 -176 446 -189 q 441 -160 446 -170 q 378 -173 416 -173 q 284 -135 320 -173 q 248 -39 248 -98 l 251 -11 q 216 -12 228 -12 q 81 21 133 -12 q 22 123 22 57 l 22 823 q 234 887 92 887 q 359 856 308 887 q 418 746 418 819 l 418 715 q 376 628 391 659 q 362 585 362 596 q 385 565 362 565 l 518 858 q 646 888 565 888 q 785 844 727 888 q 849 707 849 793 q 800 564 849 634 q 670 442 750 494 q 603 463 633 463 q 573 434 573 463 q 630 417 604 428 q 690 374 655 406 l 870 208 q 650 -12 850 -12 q 614 -7 632 -12 q 558 92 593 56 q 431 147 509 140 l 363 317 l 359 317 q 337 298 337 317 q 394 146 337 283 q 312 107 312 135 z "},"ķ":{"ha":769,"x_min":25,"x_max":781,"o":"m 621 -10 q 563 90 597 54 q 411 147 505 147 q 387 146 401 147 q 362 255 368 196 l 332 241 q 346 138 334 187 q 312 107 312 126 q 318 91 312 98 q 412 115 358 115 q 542 58 494 115 q 589 -85 589 1 q 526 -256 589 -194 q 389 -313 469 -313 q 315 -288 340 -313 q 290 -232 290 -264 q 299 -187 290 -201 q 331 -198 307 -193 q 382 -203 355 -203 q 427 -196 408 -203 q 446 -176 446 -189 q 441 -160 446 -170 q 378 -173 416 -173 q 284 -135 320 -173 q 248 -39 248 -98 q 250 -7 248 -19 q 202 -12 227 -12 q 83 24 134 -12 q 25 132 25 64 q 25 923 25 132 q 103 954 58 942 q 196 966 149 966 q 325 936 274 966 q 382 833 382 900 l 382 761 q 351 585 382 671 q 329 559 345 576 q 304 529 313 543 q 295 506 295 515 q 311 488 295 496 q 394 595 364 537 q 450 750 425 654 q 470 753 458 751 q 508 760 481 755 q 546 764 535 764 q 709 716 650 764 q 767 585 767 669 q 714 442 767 502 q 587 361 665 389 q 745 309 650 325 q 781 171 781 243 q 740 49 781 100 q 621 -10 698 -1 z "},"Ĺ":{"ha":724,"x_min":22,"x_max":724,"o":"m 179 -1 q 63 39 104 -1 q 22 160 22 79 l 22 823 q 110 870 58 854 q 217 887 161 887 q 356 846 299 887 q 418 719 418 800 l 418 348 q 343 327 380 345 q 307 290 307 309 q 319 270 307 278 q 519 326 387 326 l 680 326 q 724 165 724 248 q 710 75 724 125 q 672 -1 696 26 l 179 -1 m 45 898 l 198 1120 q 310 1157 250 1157 q 406 1120 370 1157 q 441 1035 441 1083 q 411 957 441 987 q 338 915 387 933 l 310 905 q 212 918 271 918 q 50 880 123 918 q 48 885 50 882 q 47 889 47 888 q 45 898 47 890 z "},"ĺ":{"ha":415,"x_min":25,"x_max":431,"o":"m 370 819 l 370 342 q 419 210 370 241 q 420 197 420 207 l 420 185 q 371 38 420 88 q 231 -12 321 -12 q 88 38 141 -12 q 25 218 25 98 l 25 923 q 188 966 96 966 q 325 927 280 966 q 370 819 370 888 m 193 996 q 38 962 113 996 q 34 977 35 970 l 187 1199 q 299 1236 239 1236 q 395 1199 359 1236 q 431 1114 431 1162 q 398 1036 431 1067 q 323 992 373 1012 l 294 981 q 193 996 250 996 z "},"Ļ":{"ha":724,"x_min":22,"x_max":724,"o":"m 724 165 q 710 75 724 125 q 672 -1 696 26 l 539 -1 q 513 58 530 34 q 482 83 496 83 q 460 71 468 83 q 521 -90 521 14 q 458 -256 521 -194 q 320 -313 401 -313 q 247 -288 271 -313 q 222 -232 222 -264 q 231 -187 222 -201 q 262 -198 238 -193 q 313 -203 287 -203 q 359 -196 340 -203 q 378 -176 378 -189 q 372 -160 378 -170 q 309 -173 347 -173 q 215 -135 252 -173 q 179 -39 179 -98 q 183 -1 179 -18 q 179 -1 183 -1 q 63 39 104 -1 q 22 160 22 79 l 22 823 q 110 870 58 854 q 217 887 161 887 q 356 846 299 887 q 418 719 418 800 l 418 348 q 343 327 380 345 q 307 290 307 309 q 319 270 307 278 q 519 326 387 326 l 680 326 q 724 165 724 248 z "},"ļ":{"ha":415,"x_min":25,"x_max":420,"o":"m 370 819 l 370 342 q 419 210 370 241 q 420 197 420 207 l 420 185 q 349 19 420 68 q 372 -85 372 -22 q 309 -256 372 -194 q 171 -313 252 -313 q 97 -288 122 -313 q 73 -232 73 -264 q 81 -187 73 -201 q 113 -198 89 -193 q 164 -203 138 -203 q 210 -196 191 -203 q 229 -176 229 -189 q 223 -160 229 -170 q 160 -173 198 -173 q 66 -135 102 -173 q 30 -39 30 -98 q 112 97 30 57 q 104 114 109 109 q 86 119 99 119 q 50 96 73 119 q 25 218 25 151 l 25 923 q 188 966 96 966 q 325 927 280 966 q 370 819 370 888 z "},"Ľ":{"ha":724,"x_min":22,"x_max":734,"o":"m 179 -1 q 63 39 104 -1 q 22 160 22 79 l 22 823 q 110 870 58 854 q 217 887 161 887 q 320 866 273 887 q 395 803 368 845 q 451 891 406 860 q 556 922 496 922 q 686 865 639 922 q 734 722 734 808 q 671 551 734 613 q 533 494 614 494 q 454 524 479 494 l 454 615 q 516 604 480 604 q 572 611 553 604 q 591 631 591 618 q 585 647 591 637 q 522 634 560 634 q 418 684 454 634 l 418 348 q 343 327 380 345 q 307 290 307 309 q 319 270 307 278 q 519 326 387 326 l 680 326 q 724 165 724 248 q 710 75 724 125 q 672 -1 696 26 l 179 -1 z "},"ľ":{"ha":694,"x_min":25,"x_max":686,"o":"m 186 966 q 367 854 345 966 q 504 922 416 922 q 638 865 591 922 q 686 722 686 808 q 623 551 686 613 q 485 494 566 494 q 406 524 431 494 l 406 615 q 468 604 432 604 q 524 611 505 604 q 543 631 543 618 q 537 647 543 637 q 474 634 512 634 q 370 682 408 634 l 370 342 q 419 210 370 241 q 420 197 420 207 l 420 185 q 371 38 420 88 q 231 -12 321 -12 q 88 38 141 -12 q 25 218 25 98 l 25 923 q 186 966 96 966 z "},"Ł":{"ha":814,"x_min":8,"x_max":814,"o":"m 269 -1 q 152 39 193 -1 q 111 160 111 79 l 111 265 q 35 369 61 301 q 8 513 8 437 q 9 547 8 529 l 195 620 q 171 644 195 644 q 137 635 159 644 q 111 624 127 630 l 111 823 q 199 870 146 853 q 307 887 251 887 q 439 861 389 887 q 506 763 498 830 q 529 772 506 763 q 606 667 580 733 q 632 524 632 600 q 631 490 632 508 l 425 409 q 449 386 425 386 q 507 401 460 386 l 507 317 q 608 326 545 326 l 769 326 q 814 165 814 248 q 800 75 814 125 q 762 -1 785 26 l 269 -1 z "},"ł":{"ha":616,"x_min":25,"x_max":614,"o":"m 475 819 l 475 787 l 511 801 q 588 696 562 762 q 614 553 614 629 q 613 519 614 537 l 408 437 q 429 416 408 416 q 475 428 444 416 l 475 342 q 524 211 475 241 q 524 198 524 208 l 524 186 q 475 39 524 89 q 336 -12 426 -12 q 193 39 245 -12 q 130 219 130 98 l 130 306 q 53 410 81 341 q 25 555 25 479 q 26 589 25 571 l 205 659 q 199 676 205 669 q 184 683 194 683 q 149 673 175 683 q 130 666 138 669 l 130 923 q 293 966 201 966 q 430 927 385 966 q 475 819 475 888 z "},"Ń":{"ha":845,"x_min":22,"x_max":823,"o":"m 224 -12 q 87 5 139 -12 q 22 47 36 23 l 22 812 q 74 866 22 846 q 197 887 127 887 q 355 846 295 887 q 507 607 392 800 q 520 612 514 607 q 526 626 526 616 q 509 665 526 636 l 436 791 l 436 828 q 520 872 471 857 q 623 888 570 888 q 762 857 709 888 q 823 740 823 819 l 823 98 q 758 12 823 42 q 643 -12 703 -12 q 559 -8 583 -12 q 501 7 535 -4 q 355 227 432 96 q 325 277 340 251 q 305 256 305 274 q 325 212 305 244 l 395 99 l 395 27 q 224 -12 334 -12 m 599 955 q 521 911 570 929 l 388 863 l 374 878 q 250 916 315 908 l 391 1120 q 504 1157 444 1157 q 599 1120 564 1157 q 635 1035 635 1083 q 599 955 635 987 z "},"ń":{"ha":783,"x_min":-9,"x_max":789,"o":"m 395 56 q 208 -12 328 -12 q 90 24 140 -12 q 31 132 31 64 l 31 460 q -9 598 -9 516 q 31 741 -9 681 l 183 741 l 359 997 q 471 1034 411 1034 q 567 997 531 1034 q 602 912 602 960 q 571 828 602 864 q 505 787 543 798 q 484 788 490 788 l 462 788 q 334 766 397 788 q 229 695 271 745 q 209 657 209 673 q 232 638 209 638 q 320 724 262 691 q 454 758 377 758 q 595 732 532 758 q 697 648 659 706 q 741 475 741 579 l 741 443 q 739 321 739 408 q 750 257 739 287 q 788 210 761 227 q 789 197 789 207 l 789 185 q 735 40 789 92 q 596 -12 681 -12 q 458 36 511 -12 q 396 203 396 91 q 400 287 396 250 q 407 338 405 323 q 410 368 408 354 q 412 408 412 381 q 405 446 412 434 q 386 457 398 457 q 363 452 373 457 l 372 341 q 360 196 360 273 q 395 56 360 119 z "},"Ņ":{"ha":845,"x_min":22,"x_max":823,"o":"m 509 665 l 436 791 l 436 828 q 520 872 471 857 q 623 888 570 888 q 762 857 709 888 q 823 740 823 819 l 823 98 q 758 12 823 42 q 634 -12 703 -12 l 619 -12 q 631 -85 631 -47 q 568 -256 631 -194 q 431 -313 511 -313 q 357 -288 382 -313 q 332 -232 332 -264 q 341 -187 332 -201 q 373 -198 349 -193 q 424 -203 397 -203 q 469 -196 450 -203 q 488 -176 488 -189 q 483 -160 488 -170 q 420 -173 458 -173 q 326 -135 362 -173 q 290 -36 290 -98 q 328 65 290 26 q 428 113 366 105 q 325 277 388 171 q 305 256 305 274 q 325 212 305 244 l 375 132 q 257 -12 279 97 q 241 -12 252 -12 l 224 -12 q 87 5 139 -12 q 22 47 36 23 l 22 812 q 74 866 22 846 q 197 887 127 887 q 355 846 295 887 q 507 607 392 800 q 520 612 514 607 q 526 626 526 616 q 509 665 526 636 z "},"ņ":{"ha":783,"x_min":-9,"x_max":789,"o":"m 372 111 q 408 115 385 113 q 396 201 396 152 q 400 287 396 250 q 407 338 405 323 q 410 368 408 354 q 412 408 412 381 q 405 446 412 434 q 386 457 398 457 q 363 452 373 457 l 372 341 q 360 212 360 273 q 372 111 360 152 m 739 336 q 750 257 739 287 q 788 210 761 227 q 789 197 789 207 l 789 185 q 740 45 789 97 q 617 -12 692 -6 q 587 52 604 26 q 550 79 568 79 q 533 67 541 79 q 589 -92 589 11 q 526 -256 589 -194 q 389 -313 469 -313 q 315 -288 340 -313 q 290 -232 290 -264 q 299 -187 290 -201 q 331 -198 307 -193 q 382 -203 355 -203 q 427 -196 408 -203 q 446 -176 446 -189 q 441 -160 446 -170 q 378 -173 416 -173 q 284 -135 320 -173 q 248 -39 248 -98 q 250 -9 248 -24 q 208 -12 231 -12 q 90 24 140 -12 q 31 132 31 64 l 31 460 q -9 598 -9 516 q 31 741 -9 681 l 152 741 q 234 705 200 741 q 204 659 204 677 q 228 638 204 638 q 319 724 258 690 q 458 758 380 758 q 649 700 576 758 q 741 475 741 627 l 739 336 z "},"Ň":{"ha":845,"x_min":22,"x_max":823,"o":"m 224 -12 q 87 5 139 -12 q 22 47 36 23 l 22 812 q 74 866 22 846 q 197 887 127 887 q 355 846 295 887 q 507 607 392 800 q 520 612 514 607 q 526 626 526 616 q 509 665 526 636 l 387 871 q 271 914 323 907 q 248 954 261 931 q 182 1096 182 1065 q 197 1127 182 1115 q 240 1140 211 1140 l 374 1140 l 416 1062 q 446 1086 446 1062 q 425 1140 446 1101 l 474 1140 q 526 1141 509 1140 l 599 1141 q 635 1127 621 1141 q 650 1089 650 1114 q 574 916 650 1064 q 515 886 515 912 q 519 872 515 880 q 623 888 567 888 q 762 857 709 888 q 823 740 823 819 l 823 98 q 758 12 823 42 q 643 -12 703 -12 q 559 -8 583 -12 q 501 7 535 -4 q 355 227 432 96 q 325 277 340 251 q 305 256 305 274 q 325 212 305 241 q 395 99 325 212 l 395 27 q 224 -12 334 -12 z "},"ň":{"ha":783,"x_min":-9,"x_max":789,"o":"m 395 56 q 208 -12 328 -12 q 90 24 140 -12 q 31 132 31 64 l 31 460 q -9 598 -9 516 q 31 741 -9 681 l 172 741 q 237 735 213 741 q 185 824 199 798 q 153 885 172 850 q 132 924 135 919 q 117 971 117 952 q 132 1003 117 991 q 175 1016 146 1016 l 309 1016 l 351 938 q 381 962 381 938 q 360 1016 381 972 l 409 1016 q 460 1017 444 1016 l 534 1017 q 570 1003 555 1017 q 585 972 585 990 q 578 938 585 954 q 509 786 559 888 q 468 788 496 788 q 411 780 441 788 q 382 754 382 771 q 386 741 382 747 q 483 758 429 758 q 591 735 536 758 q 696 650 657 709 q 741 475 741 581 l 741 443 q 739 321 739 408 q 750 257 739 287 q 788 210 761 227 q 789 197 789 207 l 789 185 q 735 40 789 92 q 596 -12 681 -12 q 458 36 511 -12 q 396 203 396 91 q 400 287 396 250 q 407 338 405 323 q 410 368 408 354 q 412 408 412 381 q 405 446 412 434 q 386 457 398 457 q 363 452 373 457 l 372 341 q 360 196 360 273 q 395 56 360 119 z "},"Ō":{"ha":913,"x_min":15,"x_max":899,"o":"m 488 468 q 481 561 488 536 q 459 587 475 587 q 441 580 449 587 q 445 547 442 568 q 448 460 448 527 l 448 416 q 446 349 448 370 q 442 313 444 328 q 441 297 441 305 q 459 290 449 290 q 481 316 475 290 q 488 409 488 341 l 488 468 m 460 -22 q 239 28 340 -22 q 77 181 138 78 q 15 437 15 283 q 149 786 15 661 q 456 897 269 897 q 780 770 661 897 q 899 437 899 644 q 771 87 899 208 q 460 -22 655 -22 m 216 975 q 257 1103 216 1041 l 648 1103 q 689 975 689 1038 q 668 887 689 926 q 451 927 566 927 q 239 883 336 927 q 216 975 216 926 z "},"ō":{"ha":787,"x_min":14,"x_max":773,"o":"m 378 378 l 378 259 q 394 254 383 254 q 410 262 405 254 q 414 288 414 269 l 414 385 q 409 471 414 450 q 389 492 404 492 q 372 486 379 492 q 378 378 378 418 m 125 77 q 14 368 14 184 q 118 657 14 551 q 393 764 223 764 q 669 653 564 764 q 773 365 773 543 q 672 83 773 188 q 399 -21 572 -21 q 125 77 226 -21 m 191 979 l 581 979 q 623 857 623 915 q 596 749 623 798 q 399 795 511 795 q 178 743 265 795 q 149 856 149 794 q 191 979 149 918 z "},"Ő":{"ha":913,"x_min":15,"x_max":899,"o":"m 488 468 q 481 561 488 536 q 459 587 475 587 q 441 580 449 587 q 445 547 442 568 q 448 460 448 527 l 448 416 q 446 349 448 370 q 442 313 444 328 q 441 297 441 305 q 459 290 449 290 q 481 316 475 290 q 488 409 488 341 l 488 468 m 77 695 q 235 846 132 793 q 207 881 216 865 l 328 1157 l 391 1157 q 489 1124 454 1157 q 524 1031 524 1090 q 484 926 524 971 q 472 926 481 926 l 462 926 q 434 921 442 926 q 427 901 427 915 l 427 896 q 435 897 429 897 l 444 897 q 548 886 492 897 q 552 901 552 894 q 545 913 552 909 q 520 922 538 918 q 558 1042 558 970 q 539 1105 558 1079 l 565 1157 l 635 1157 q 733 1124 699 1157 q 768 1031 768 1091 q 746 955 768 993 q 644 863 716 903 q 831 702 764 814 q 899 437 899 589 q 771 87 899 208 q 460 -22 655 -22 q 239 28 340 -22 q 77 181 138 78 q 15 435 15 283 q 77 695 15 587 z "},"ő":{"ha":787,"x_min":14,"x_max":773,"o":"m 378 378 l 378 259 q 394 254 383 254 q 410 262 405 254 q 414 288 414 269 l 414 385 q 409 471 414 450 q 389 492 404 492 q 372 486 379 492 q 378 378 378 418 m 579 720 q 721 580 670 671 q 773 368 773 485 q 672 83 773 188 q 399 -21 572 -21 q 125 77 226 -21 q 14 374 14 184 q 58 573 14 488 q 183 709 102 659 q 152 744 161 728 l 273 1020 l 336 1020 q 434 987 399 1020 q 469 895 469 954 q 429 791 469 837 q 417 792 426 792 l 407 792 q 379 786 387 792 q 372 767 372 781 l 372 763 q 383 764 379 763 l 394 764 q 493 752 444 764 q 497 767 497 760 q 491 779 497 774 q 470 787 485 784 q 503 890 503 838 q 484 968 503 942 l 510 1020 l 580 1020 q 679 987 644 1020 q 713 894 713 954 q 579 720 713 797 z "},"Œ":{"ha":1410,"x_min":15,"x_max":1422,"o":"m 488 468 q 481 561 488 536 q 459 587 475 587 q 441 580 449 587 q 445 547 442 568 q 448 460 448 527 l 448 416 q 446 349 448 370 q 442 313 444 328 q 441 297 441 305 q 459 290 449 290 q 481 316 475 290 q 488 409 488 341 l 488 468 m 451 897 q 774 769 659 897 q 792 788 792 775 q 770 825 792 802 q 724 867 748 848 q 901 875 795 875 l 1371 875 q 1400 804 1390 842 q 1409 735 1409 766 q 1367 597 1409 649 l 1044 597 q 1019 578 1019 597 l 1019 572 q 1021 567 1019 568 l 1324 567 q 1345 514 1337 546 q 1354 452 1354 479 q 1324 326 1354 372 l 1197 326 q 1058 318 1094 326 q 1012 305 1021 311 q 1003 290 1003 299 q 1013 275 1003 280 q 1086 291 1048 286 q 1197 296 1137 296 q 1281 296 1197 296 q 1387 253 1351 296 q 1422 132 1422 211 q 1376 -1 1422 52 l 884 -1 q 714 109 744 -1 q 699 104 707 109 q 690 83 690 99 q 707 38 690 66 q 606 -3 669 16 q 456 -22 543 -22 q 248 24 342 -22 q 82 171 140 75 q 15 435 15 281 q 76 693 15 590 q 235 846 136 796 q 451 897 334 897 z "},"œ":{"ha":1190,"x_min":7,"x_max":1177,"o":"m 373 378 l 373 259 q 389 254 378 254 q 404 262 399 254 q 409 288 409 269 l 409 385 q 404 471 409 450 q 383 492 398 492 q 367 486 374 492 q 373 378 373 418 m 776 450 q 828 448 799 448 q 871 451 858 448 q 862 481 871 468 q 828 494 852 494 q 790 480 804 494 q 776 450 776 467 m 730 261 q 728 250 728 258 q 760 227 728 235 q 876 219 793 219 q 1121 258 1013 219 q 1139 209 1131 246 q 1147 143 1147 172 q 1142 94 1147 114 q 1025 21 1109 54 q 841 -12 941 -12 q 634 34 713 -12 q 664 85 664 64 q 646 106 664 99 q 543 13 612 46 q 387 -21 474 -21 q 119 77 221 -21 q 7 367 7 184 q 111 657 7 550 q 380 764 214 764 q 590 714 509 764 q 561 680 566 688 q 555 659 555 671 q 570 643 555 646 q 681 733 613 702 q 819 765 748 765 q 1083 665 985 765 q 1177 414 1177 568 q 1165 342 1177 381 q 1137 295 1154 304 q 1025 262 1099 275 q 865 250 951 250 q 730 261 779 250 z "},"Ŕ":{"ha":841,"x_min":22,"x_max":868,"o":"m 401 482 q 416 480 404 480 q 436 490 429 480 q 443 524 443 500 l 443 548 q 437 583 443 572 q 418 593 431 593 q 400 591 405 593 q 401 579 401 587 l 401 482 m 751 328 l 868 208 q 801 45 856 102 q 650 -12 747 -12 q 524 22 578 -12 q 422 161 456 66 l 397 227 q 326 235 369 228 q 320 220 320 229 q 375 198 320 201 l 414 100 l 414 43 q 214 -12 336 -12 q 74 24 126 -12 q 22 128 22 60 l 22 772 q 77 830 22 802 q 220 876 132 859 q 398 893 309 893 q 716 810 602 893 q 837 564 837 722 q 786 408 837 473 q 656 318 734 343 q 683 296 656 296 q 751 328 709 296 m 254 911 l 398 1120 q 510 1157 450 1157 q 606 1120 570 1157 q 642 1036 642 1083 q 613 960 642 988 q 536 914 585 932 q 402 924 471 924 q 254 911 333 924 z "},"ŕ":{"ha":631,"x_min":-7,"x_max":637,"o":"m 215 -9 q 86 20 134 -9 q 33 111 33 51 l 33 460 q -7 598 -7 516 q 33 741 -7 681 l 136 741 q 124 770 127 755 l 281 997 q 393 1034 333 1034 q 489 997 453 1034 q 524 911 524 960 q 491 829 524 863 q 411 781 458 795 q 339 760 373 775 q 286 726 306 745 q 269 699 269 711 q 285 680 269 687 q 455 751 351 751 q 616 708 559 751 q 637 575 637 654 q 606 433 637 497 q 542 413 583 421 q 460 404 501 404 q 386 410 418 404 q 338 420 353 416 q 332 405 332 415 q 346 390 332 395 q 390 378 359 385 l 390 38 q 215 -9 316 -9 z "},"Ŗ":{"ha":841,"x_min":22,"x_max":868,"o":"m 401 482 q 416 480 404 480 q 436 490 429 480 q 443 524 443 500 l 443 548 q 437 583 443 572 q 418 593 431 593 q 400 591 405 593 q 401 579 401 587 l 401 482 m 650 -12 q 569 -2 600 -12 q 580 -45 576 -18 q 585 -92 585 -72 q 522 -259 585 -201 q 384 -313 465 -313 q 310 -288 335 -313 q 286 -232 286 -264 q 294 -187 286 -201 q 326 -198 302 -193 q 377 -203 351 -203 q 422 -196 404 -203 q 441 -176 441 -189 q 436 -160 441 -170 q 373 -173 411 -173 q 282 -139 317 -173 q 243 -48 247 -105 q 285 -42 272 -47 q 298 -22 298 -37 q 294 -5 298 -16 q 258 -9 290 -7 q 214 -12 227 -12 q 74 24 126 -12 q 22 128 22 60 l 22 772 q 77 830 22 802 q 220 876 132 859 q 398 893 309 893 q 716 810 602 893 q 837 564 837 722 q 786 408 837 473 q 656 318 734 343 q 683 296 656 296 q 751 328 709 296 l 868 208 q 801 45 856 102 q 650 -12 747 -12 m 375 198 l 408 115 q 415 109 410 112 q 430 105 420 105 q 444 115 439 105 q 423 161 431 138 l 399 227 q 326 235 368 228 q 320 220 320 229 q 375 198 320 201 z "},"ŗ":{"ha":631,"x_min":-9,"x_max":635,"o":"m 336 420 q 331 405 331 415 q 344 390 331 395 q 389 378 357 385 l 389 38 q 360 22 372 27 q 385 -85 385 -28 q 321 -256 385 -194 q 184 -313 264 -313 q 110 -288 135 -313 q 85 -232 85 -264 q 94 -187 85 -201 q 126 -198 102 -193 q 177 -203 151 -203 q 222 -196 203 -203 q 241 -176 241 -189 q 236 -160 241 -170 q 173 -173 211 -173 q 79 -135 115 -173 q 43 -39 43 -98 q 124 96 43 57 q 101 117 119 117 q 65 102 83 117 q 39 69 47 86 q 31 111 31 87 l 31 460 q -9 598 -9 516 q 31 741 -9 681 l 135 741 q 250 690 215 741 q 220 642 233 671 q 207 600 207 612 q 213 581 207 587 q 232 575 220 575 q 322 713 256 669 q 458 751 377 751 q 615 708 558 751 q 635 575 635 654 q 604 433 635 497 q 541 413 581 421 q 458 404 500 404 q 384 410 417 404 q 336 420 351 416 z "},"Ř":{"ha":841,"x_min":22,"x_max":868,"o":"m 401 482 q 416 480 404 480 q 436 490 429 480 q 443 524 443 500 l 443 548 q 437 583 443 572 q 418 593 431 593 q 400 591 405 593 q 401 579 401 587 l 401 482 m 751 328 l 868 208 q 801 45 856 102 q 650 -12 747 -12 q 524 22 578 -12 q 422 161 456 66 l 397 227 q 326 235 369 228 q 320 220 320 229 q 375 198 320 201 l 414 100 l 414 43 q 214 -12 336 -12 q 74 24 126 -12 q 22 128 22 60 l 22 772 q 77 830 22 802 q 220 876 132 859 q 398 893 309 893 q 716 810 602 893 q 837 564 837 722 q 786 408 837 473 q 656 318 734 343 q 683 296 656 296 q 751 328 709 296 m 577 954 q 554 910 577 954 q 406 924 486 924 q 255 912 325 924 q 213 987 231 951 q 180 1048 195 1022 q 165 1096 165 1076 q 180 1127 165 1115 q 223 1140 194 1140 l 357 1140 l 399 1062 q 429 1086 429 1062 q 408 1140 429 1097 l 457 1140 q 509 1141 492 1140 l 582 1141 q 618 1127 604 1141 q 633 1090 633 1114 q 577 954 633 1065 z "},"ř":{"ha":631,"x_min":-9,"x_max":635,"o":"m 214 -9 q 85 20 133 -9 q 31 111 31 51 l 31 460 q -9 598 -9 516 q 31 741 -9 681 l 135 741 q 250 690 215 741 q 220 642 233 671 q 207 600 207 612 q 213 581 207 587 q 232 575 220 575 q 322 713 256 669 q 458 751 377 751 q 615 708 558 751 q 635 575 635 654 q 604 433 635 497 q 541 413 581 421 q 458 404 500 404 q 384 410 417 404 q 336 420 351 416 q 331 405 331 415 q 344 390 331 395 q 389 378 357 385 l 389 38 q 214 -9 315 -9 m 441 781 q 347 764 393 781 q 273 716 301 748 q 155 770 232 767 q 70 925 83 898 q 56 971 56 952 q 70 1003 56 991 q 113 1016 84 1016 l 254 1016 l 296 938 q 326 962 326 938 q 305 1016 326 972 l 353 1016 q 402 1017 387 1016 l 472 1017 q 508 1003 494 1017 q 523 970 523 990 q 507 915 523 950 q 471 841 491 880 q 441 781 452 802 z "},"Ś":{"ha":797,"x_min":1,"x_max":816,"o":"m 387 247 q 409 270 409 251 q 397 312 409 288 q 362 356 385 335 q 199 410 302 410 q 104 393 148 410 q 29 469 57 417 q 1 580 1 520 q 132 821 1 736 q 408 893 243 893 q 613 867 530 893 q 749 800 696 841 q 765 707 765 755 q 752 620 765 659 q 715 557 739 581 q 631 591 692 574 q 522 609 571 609 q 455 603 472 609 q 439 584 439 597 q 441 572 439 578 q 502 578 465 578 q 718 516 634 578 q 816 292 816 441 q 709 74 816 161 q 399 -19 594 -19 q 214 -3 292 -19 q 60 53 135 13 q 9 203 9 127 q 62 330 9 279 q 190 380 114 380 q 315 349 267 380 q 387 247 363 317 m 224 896 q 326 1035 243 917 q 347 1063 344 1060 q 418 1135 382 1112 q 500 1157 453 1157 q 602 1114 568 1157 q 629 1023 629 1079 l 629 952 l 511 916 q 410 924 462 924 q 307 915 359 924 q 224 896 254 906 z "},"ś":{"ha":707,"x_min":8,"x_max":706,"o":"m 385 532 q 367 511 367 526 l 367 507 q 368 503 367 504 q 387 504 375 504 l 404 504 q 548 480 481 504 q 659 406 616 457 q 706 258 706 347 q 610 50 706 120 q 355 -21 515 -21 q 104 32 195 -21 q 14 187 14 85 q 30 257 14 225 q 66 301 46 288 q 175 247 104 270 q 325 224 245 224 q 357 242 357 224 q 355 256 357 250 q 343 255 350 255 l 336 255 q 106 312 192 255 q 8 494 8 376 q 96 684 8 611 q 362 764 193 764 q 518 746 446 764 q 642 699 590 728 q 654 617 654 671 q 609 490 654 534 q 525 522 574 509 q 435 534 475 534 q 385 532 395 534 m 382 791 l 362 791 q 143 748 245 791 q 205 827 157 764 q 289 939 253 890 q 360 1011 324 989 q 442 1034 395 1034 q 544 991 511 1034 q 572 900 572 956 l 572 829 l 442 787 q 382 791 385 791 z "},"Ş":{"ha":797,"x_min":1,"x_max":816,"o":"m 606 -103 q 543 -228 606 -184 q 404 -267 488 -267 q 267 -230 319 -267 q 216 -130 216 -194 q 267 -35 216 -65 q 316 -45 288 -45 q 354 -23 354 -45 q 353 -18 354 -19 q 60 53 184 -14 q 9 203 9 127 q 62 330 9 279 q 190 380 114 380 q 315 349 267 380 q 387 247 363 317 q 409 270 409 251 q 397 312 409 288 q 362 356 385 335 q 199 410 302 410 q 104 393 148 410 q 29 469 57 417 q 1 580 1 520 q 132 821 1 736 q 408 893 243 893 q 613 867 530 893 q 749 800 696 841 q 765 707 765 755 q 752 620 765 659 q 715 557 739 581 q 631 591 692 574 q 522 609 571 609 q 455 603 472 609 q 439 584 439 597 q 441 572 439 578 q 502 578 465 578 q 718 516 634 578 q 816 292 816 441 q 762 128 816 201 q 607 16 707 55 q 564 55 587 40 q 524 70 541 70 q 500 50 501 70 q 606 -103 606 9 z "},"ş":{"ha":707,"x_min":8,"x_max":706,"o":"m 706 258 q 538 12 706 75 q 501 42 525 28 q 463 57 477 57 q 439 39 442 57 q 514 -8 488 20 q 545 -103 545 -45 q 482 -228 545 -184 q 343 -267 428 -267 q 207 -230 258 -267 q 155 -127 155 -194 q 168 -72 155 -95 q 199 -41 180 -50 q 260 -56 225 -56 q 294 -34 294 -56 q 290 -19 294 -24 q 14 194 14 7 q 30 258 14 229 q 66 301 46 288 q 175 247 104 270 q 325 224 245 224 q 357 242 357 224 q 355 256 357 250 q 343 255 350 255 l 336 255 q 106 312 192 255 q 8 494 8 376 q 96 684 8 611 q 362 764 193 764 q 518 746 446 764 q 642 699 590 728 q 654 617 654 671 q 609 490 654 534 q 525 522 574 509 q 435 534 475 534 q 385 532 395 534 q 367 511 367 526 l 367 507 q 368 503 367 504 q 387 504 375 504 l 404 504 q 548 480 481 504 q 659 406 616 457 q 706 258 706 347 z "},"Š":{"ha":797,"x_min":1,"x_max":816,"o":"m 387 247 q 409 270 409 251 q 397 312 409 288 q 362 356 385 335 q 199 410 302 410 q 104 393 148 410 q 29 469 57 417 q 1 580 1 520 q 132 821 1 736 q 408 893 243 893 q 613 867 530 893 q 749 800 696 841 q 765 707 765 755 q 752 620 765 659 q 715 557 739 581 q 631 591 692 574 q 522 609 571 609 q 455 603 472 609 q 439 584 439 597 q 441 572 439 578 q 502 578 465 578 q 718 516 634 578 q 816 292 816 441 q 709 74 816 161 q 399 -19 594 -19 q 214 -3 292 -19 q 60 53 135 13 q 9 203 9 127 q 62 330 9 279 q 190 380 114 380 q 315 349 267 380 q 387 247 363 317 m 245 903 q 165 1048 211 963 q 151 1096 151 1076 q 165 1127 151 1115 q 208 1140 179 1140 l 342 1140 l 384 1062 q 414 1086 414 1062 q 393 1140 414 1097 l 442 1140 q 494 1141 477 1140 l 567 1141 q 603 1127 589 1141 q 618 1095 618 1114 q 603 1041 618 1075 q 541 911 588 1006 q 399 924 479 924 q 245 903 319 924 z "},"š":{"ha":707,"x_min":8,"x_max":706,"o":"m 385 532 q 367 511 367 526 l 367 507 q 368 503 367 504 q 387 504 375 504 l 404 504 q 548 480 481 504 q 659 406 616 457 q 706 258 706 347 q 610 50 706 120 q 355 -21 515 -21 q 104 32 195 -21 q 14 187 14 85 q 30 257 14 225 q 66 301 46 288 q 175 247 104 270 q 325 224 245 224 q 357 242 357 224 q 355 256 357 250 q 343 255 350 255 l 336 255 q 106 312 192 255 q 8 494 8 376 q 96 684 8 611 q 362 764 193 764 q 518 746 446 764 q 642 699 590 728 q 654 617 654 671 q 609 490 654 534 q 525 522 574 509 q 435 534 475 534 q 385 532 395 534 m 201 772 q 156 854 174 817 q 120 923 136 893 q 104 971 104 952 q 119 1003 104 991 q 162 1016 133 1016 l 296 1016 l 338 938 q 368 962 368 938 q 347 1016 368 972 l 396 1016 q 448 1017 431 1016 l 521 1017 q 557 1003 543 1017 q 572 971 572 990 q 544 887 572 952 q 492 781 515 821 q 351 794 431 794 q 201 772 271 794 z "},"Ţ":{"ha":819,"x_min":5,"x_max":814,"o":"m 235 52 q 212 123 212 81 l 212 559 l 54 559 q 5 712 5 629 q 23 810 5 768 q 67 875 41 852 l 768 875 q 801 801 788 844 q 814 715 814 758 q 779 597 814 635 q 684 559 743 559 l 485 559 q 483 549 483 555 q 497 533 483 537 q 561 528 512 528 l 608 528 l 608 52 q 559 20 588 35 q 586 -85 586 -31 q 523 -256 586 -194 q 385 -313 466 -313 q 312 -288 336 -313 q 287 -232 287 -264 q 296 -187 287 -201 q 328 -198 303 -193 q 378 -203 352 -203 q 424 -196 405 -203 q 443 -176 443 -189 q 437 -160 443 -170 q 374 -173 412 -173 q 280 -135 317 -173 q 244 -39 244 -98 q 326 92 244 52 q 317 109 321 104 q 300 113 313 113 q 266 95 288 113 q 235 52 243 77 z "},"ţ":{"ha":602,"x_min":8,"x_max":593,"o":"m 17 661 q 123 735 56 685 q 173 882 142 781 q 182 908 177 895 q 303 922 235 922 q 437 907 371 922 l 437 741 l 554 741 q 593 601 593 682 q 583 526 593 564 q 554 460 573 487 l 457 460 l 457 357 q 530 271 457 271 l 559 271 q 573 181 573 219 q 506 32 573 82 q 476 74 496 53 q 442 95 456 95 q 423 81 427 95 q 495 -84 495 26 q 432 -256 495 -194 q 294 -313 375 -313 q 221 -288 245 -313 q 196 -232 196 -264 q 205 -187 196 -201 q 237 -198 212 -193 q 288 -203 261 -203 q 333 -196 314 -203 q 352 -176 352 -189 q 347 -160 352 -170 q 283 -173 321 -173 q 190 -135 226 -173 q 153 -39 153 -98 q 174 43 153 6 q 100 233 100 107 l 100 429 l 142 429 q 176 451 176 429 q 175 459 176 454 l 23 459 q 8 565 8 507 q 17 661 8 624 z "},"Ť":{"ha":819,"x_min":5,"x_max":814,"o":"m 608 528 l 608 52 q 524 6 576 24 q 397 -12 472 -12 q 271 21 323 -12 q 212 123 212 57 l 212 559 l 54 559 q 5 712 5 629 q 23 810 5 768 q 67 875 41 852 l 768 875 q 801 801 788 844 q 814 715 814 758 q 779 597 814 635 q 684 559 743 559 l 485 559 q 483 549 483 555 q 497 533 483 537 q 561 528 512 528 l 608 528 m 625 1039 q 617 1020 625 1039 q 594 973 609 1002 q 573 929 580 944 q 560 905 566 914 l 268 905 q 189 1048 241 951 q 174 1096 174 1076 q 189 1127 174 1115 q 232 1140 203 1140 l 366 1140 l 408 1062 q 438 1086 438 1062 q 417 1140 438 1097 l 466 1140 q 517 1141 500 1140 q 591 1141 517 1141 q 627 1127 612 1141 q 642 1095 642 1114 q 625 1039 642 1076 z "},"ť":{"ha":878,"x_min":8,"x_max":870,"o":"m 17 661 q 123 735 56 685 q 173 882 142 781 q 182 908 177 895 q 303 922 235 922 q 437 907 371 922 l 437 741 l 494 741 q 545 638 502 673 q 658 604 589 604 q 708 611 689 604 q 727 631 727 618 q 722 647 727 637 q 659 634 696 634 q 565 672 601 634 q 528 768 528 709 q 575 881 528 841 q 692 922 622 922 q 823 865 775 922 q 870 722 870 808 q 807 551 870 613 q 669 494 750 494 q 585 523 613 494 q 557 460 571 481 l 457 460 l 457 357 q 530 271 457 271 l 559 271 q 573 181 573 219 q 514 38 573 87 q 344 -12 456 -12 q 166 50 233 -12 q 100 233 100 112 l 100 429 l 142 429 q 176 451 176 429 q 175 459 176 454 l 23 459 q 8 565 8 507 q 17 661 8 624 z "},"Ū":{"ha":833,"x_min":22,"x_max":811,"o":"m 610 887 q 751 843 692 887 q 811 718 811 799 l 811 340 q 706 75 811 168 q 415 -18 601 -18 q 127 73 230 -18 q 22 340 22 165 l 22 824 q 207 888 102 888 q 347 841 295 888 q 398 701 398 795 l 398 305 q 415 300 406 300 q 430 305 425 300 q 434 324 434 310 l 434 701 q 430 769 434 744 q 414 819 426 794 q 610 887 495 887 m 610 919 q 484 898 542 919 q 393 848 427 878 q 206 920 336 920 q 184 918 199 920 q 177 975 177 944 q 218 1103 177 1041 l 609 1103 q 650 975 650 1038 q 642 918 650 948 q 633 919 638 919 q 610 919 633 919 z "},"ū":{"ha":799,"x_min":-9,"x_max":785,"o":"m 385 296 q 403 302 393 296 q 396 372 396 325 l 396 707 q 569 751 468 751 q 669 735 626 751 q 735 695 712 720 l 735 342 q 784 210 735 241 q 785 197 785 207 l 785 185 q 732 35 785 86 q 602 -12 685 -12 q 507 12 549 -12 q 444 81 465 35 q 420 58 420 81 q 436 27 420 43 q 384 -1 414 9 q 294 -12 353 -12 q 178 12 235 -12 q 71 104 109 42 q 26 290 26 177 l 26 460 q -9 593 -9 520 q 1 670 -9 630 q 31 741 10 710 l 180 741 q 312 702 264 741 q 360 581 360 662 l 360 361 q 385 296 360 296 m 139 852 q 180 980 139 918 l 571 980 q 612 852 612 916 q 604 781 612 815 l 569 781 q 437 761 494 781 q 347 716 380 741 q 180 772 288 772 l 151 772 q 139 852 139 807 z "},"Ů":{"ha":833,"x_min":22,"x_max":811,"o":"m 595 979 q 566 883 595 927 q 621 887 591 887 q 755 840 700 884 q 811 718 811 796 l 811 340 q 706 75 811 168 q 415 -18 601 -18 q 127 73 230 -18 q 22 340 22 165 l 22 824 q 207 888 102 888 q 236 886 216 888 q 295 817 256 846 q 387 777 334 787 q 398 701 398 745 l 398 305 q 415 300 406 300 q 430 305 425 300 q 434 324 434 310 l 434 701 q 425 774 434 746 q 479 782 465 774 q 493 800 493 791 q 484 817 493 808 q 421 805 453 805 q 298 856 349 805 q 247 979 247 907 q 298 1103 247 1052 q 421 1154 349 1154 q 545 1103 494 1154 q 595 979 595 1052 z "},"ů":{"ha":779,"x_min":-9,"x_max":785,"o":"m 385 297 q 403 302 396 297 q 396 372 396 325 l 396 651 q 444 676 444 654 q 435 692 444 684 q 372 681 404 681 q 249 732 300 681 q 198 855 198 783 q 249 979 198 928 q 372 1029 300 1029 q 496 979 445 1029 q 547 855 547 928 q 535 794 547 826 q 509 748 524 762 q 578 751 530 751 q 669 735 626 751 q 735 695 712 720 l 735 342 q 784 210 735 241 q 785 197 785 207 l 785 185 q 732 35 785 86 q 602 -12 685 -12 q 507 12 549 -12 q 444 81 465 35 q 420 58 420 81 q 436 27 420 43 q 384 -1 414 9 q 294 -12 353 -12 q 178 12 235 -12 q 71 104 109 42 q 26 290 26 177 l 26 460 q -9 593 -9 519 q 1 670 -9 630 q 31 741 10 710 l 201 741 q 255 685 220 708 q 351 650 295 657 q 360 591 360 621 l 360 361 q 385 297 360 297 z "},"Ű":{"ha":833,"x_min":22,"x_max":811,"o":"m 515 1034 q 496 1105 515 1079 l 522 1157 l 585 1157 q 687 1123 650 1157 q 725 1028 725 1088 q 640 886 725 947 q 761 836 711 879 q 811 718 811 792 l 811 340 q 706 75 811 168 q 415 -18 601 -18 q 127 73 230 -18 q 22 340 22 165 l 22 824 q 170 886 85 875 q 284 1157 170 886 l 347 1157 q 446 1124 411 1157 q 481 1031 481 1091 q 375 870 481 939 q 325 895 347 895 q 300 874 303 895 q 406 701 406 835 l 406 305 q 424 300 414 300 q 438 305 433 300 q 442 324 442 310 l 442 701 q 425 806 442 763 q 413 829 417 825 q 406 839 410 834 q 401 844 402 843 q 515 1034 515 922 z "},"ű":{"ha":779,"x_min":-9,"x_max":785,"o":"m 385 297 q 403 302 396 297 q 396 372 396 325 l 396 600 q 386 658 396 627 q 353 706 375 688 q 433 794 409 744 q 457 892 457 844 q 438 967 457 941 l 464 1019 l 534 1019 q 632 986 597 1019 q 667 893 667 954 q 644 813 667 855 q 588 750 621 771 q 735 695 689 743 l 735 342 q 784 210 735 241 q 785 197 785 207 l 785 185 q 732 35 785 86 q 602 -12 685 -12 q 507 12 549 -12 q 444 81 465 35 q 420 58 420 81 q 436 27 420 43 q 384 -1 414 9 q 294 -12 353 -12 q 178 12 235 -12 q 71 104 109 42 q 26 290 26 177 l 26 460 q -9 593 -9 520 q 1 670 -9 630 q 31 741 10 710 l 109 741 l 227 1019 l 290 1019 q 388 986 353 1019 q 423 893 423 954 q 396 803 423 848 q 326 728 369 757 q 297 745 314 737 q 267 752 279 752 q 245 733 246 752 q 360 581 360 704 l 360 361 q 385 297 360 297 z "},"Ų":{"ha":833,"x_min":22,"x_max":811,"o":"m 279 -3 q 88 113 155 26 q 22 340 22 200 l 22 824 q 207 888 102 888 q 347 841 295 888 q 398 701 398 795 l 398 305 q 415 300 406 300 q 430 305 425 300 q 434 324 434 310 l 434 701 q 430 769 434 744 q 414 819 426 794 q 610 887 495 887 q 751 843 692 887 q 811 718 811 799 l 811 340 q 740 111 811 200 q 528 -9 669 22 q 520 -33 520 -18 q 530 -57 520 -47 q 558 -66 541 -66 q 595 -56 576 -66 q 646 -150 646 -85 q 595 -251 646 -215 q 466 -287 545 -287 q 328 -244 387 -287 q 269 -123 269 -202 q 298 -35 269 -70 q 366 13 322 -5 q 346 37 364 37 q 279 -3 319 37 z "},"ų":{"ha":779,"x_min":-9,"x_max":812,"o":"m 385 297 q 403 302 396 297 q 396 372 396 325 l 396 707 q 569 751 468 751 q 669 735 626 751 q 735 695 712 720 l 735 342 q 784 210 735 241 q 785 197 785 207 l 785 185 q 723 27 785 79 q 687 -32 687 -3 q 697 -57 687 -48 q 726 -66 708 -66 q 762 -56 743 -66 q 812 -150 812 -85 q 762 -251 812 -215 q 633 -287 712 -287 q 495 -244 553 -287 q 436 -123 436 -202 q 513 8 436 -34 q 444 81 466 33 q 420 58 420 81 q 436 27 420 43 q 384 -1 414 9 q 294 -12 353 -12 q 178 12 235 -12 q 71 104 109 42 q 26 290 26 177 l 26 460 q -9 593 -9 520 q 1 670 -9 630 q 31 741 10 710 l 180 741 q 312 702 264 741 q 360 581 360 662 l 360 361 q 385 297 360 297 z "},"Ÿ":{"ha":864,"x_min":1,"x_max":859,"o":"m 300 206 q 319 227 319 206 q 90 472 169 327 q 1 792 11 617 q 93 862 32 838 q 218 886 153 886 q 363 853 302 886 q 426 658 401 751 q 393 511 393 511 q 390 492 390 501 q 414 469 390 469 q 452 625 422 495 q 472 718 460 659 q 505 858 485 777 q 647 888 567 888 q 802 841 744 888 q 859 705 859 793 q 786 451 859 574 q 633 269 728 353 l 633 45 q 532 -1 577 10 q 438 -12 488 -12 q 291 23 345 -12 q 237 128 237 58 l 237 248 q 269 221 250 235 q 300 206 288 206 m 192 1023 q 229 1115 192 1076 q 319 1153 266 1153 q 427 1095 388 1153 q 534 1153 467 1153 q 625 1115 587 1153 q 663 1023 663 1077 q 607 917 663 953 q 517 898 556 909 q 429 950 458 905 q 342 897 400 905 q 247 916 298 912 q 192 1023 192 951 z "},"Ź":{"ha":774,"x_min":8,"x_max":773,"o":"m 18 718 q 36 813 18 773 q 79 875 54 854 l 699 875 q 743 798 724 849 q 763 673 763 747 q 759 613 763 631 q 749 583 754 595 q 740 557 745 571 q 559 353 668 456 q 413 336 460 349 q 365 304 365 323 q 372 288 365 296 q 463 312 405 302 q 575 322 521 322 l 728 322 q 773 170 773 241 q 741 60 773 98 q 662 9 709 22 q 576 0 627 0 l 79 0 q 8 229 8 73 q 15 294 8 264 q 156 452 75 366 q 308 606 237 538 q 290 621 305 621 q 264 608 280 621 q 214 558 248 595 l 68 558 q 18 718 18 636 m 609 957 q 536 915 585 933 l 509 905 l 248 905 l 396 1120 q 508 1157 448 1157 q 604 1120 568 1157 q 640 1035 640 1083 q 609 957 640 987 z "},"ź":{"ha":673,"x_min":-7,"x_max":672,"o":"m 656 568 q 651 514 656 549 q 638 458 646 479 q 487 312 575 372 q 360 294 400 308 q 319 264 319 281 q 327 248 319 253 q 406 272 355 263 q 502 281 456 281 l 633 281 q 661 213 650 251 q 672 147 672 176 q 629 31 672 68 q 536 0 595 0 l 53 0 q -7 197 -7 63 q 10 313 -7 245 q 185 468 72 381 q 235 509 208 486 q 217 525 231 525 q 208 524 214 525 q 125 459 188 517 l 41 459 q 1 600 1 525 q 16 684 1 648 q 53 741 31 721 l 612 741 q 656 568 656 677 m 470 783 l 441 772 l 180 772 l 337 997 q 449 1034 389 1034 q 545 997 509 1034 q 581 912 581 960 q 549 833 581 865 q 470 783 518 802 z "},"Ż":{"ha":774,"x_min":8,"x_max":773,"o":"m 533 875 l 699 875 q 743 798 724 849 q 763 673 763 747 q 759 613 763 631 q 749 583 754 595 q 740 557 745 571 q 559 353 668 456 q 413 336 460 349 q 365 304 365 323 q 372 288 365 296 q 463 312 405 302 q 575 322 521 322 l 728 322 q 773 170 773 241 q 741 60 773 98 q 662 9 709 22 q 576 0 627 0 l 79 0 q 8 229 8 73 q 15 294 8 264 q 156 452 75 366 q 308 606 237 538 q 290 621 305 621 q 264 608 280 621 q 214 558 248 595 l 68 558 q 18 718 18 636 q 36 813 18 773 q 79 875 54 854 l 255 875 q 304 832 266 854 q 394 810 342 810 q 482 830 447 810 q 533 875 517 850 m 288 1098 q 394 1142 332 1142 q 501 1098 456 1142 q 545 990 545 1053 q 504 885 545 928 q 395 841 460 841 q 287 884 330 841 q 244 990 244 928 q 288 1098 244 1053 z "},"ż":{"ha":673,"x_min":-7,"x_max":672,"o":"m 231 975 q 337 1019 275 1019 q 444 975 399 1019 q 488 867 488 929 q 447 762 488 804 q 338 718 403 718 q 230 761 273 718 q 187 867 187 804 q 231 975 187 929 m 656 568 q 651 514 656 549 q 638 458 646 479 q 487 312 575 372 q 360 294 400 308 q 319 264 319 281 q 327 248 319 253 q 406 272 355 263 q 502 281 456 281 l 633 281 q 661 213 650 251 q 672 147 672 176 q 629 31 672 68 q 536 0 595 0 l 53 0 q -7 197 -7 63 q 10 313 -7 245 q 185 468 72 381 q 235 509 208 486 q 217 525 231 525 q 208 524 214 525 q 125 459 188 517 l 41 459 q 1 600 1 525 q 16 684 1 648 q 53 741 31 721 l 205 741 q 342 686 252 686 q 473 741 431 686 l 612 741 q 656 568 656 677 z "},"Ž":{"ha":774,"x_min":8,"x_max":773,"o":"m 18 718 q 36 813 18 773 q 79 875 54 854 l 699 875 q 743 798 724 849 q 763 673 763 747 q 759 613 763 631 q 749 583 754 595 q 740 557 745 571 q 559 353 668 456 q 413 336 460 349 q 365 304 365 323 q 372 288 365 296 q 463 312 405 302 q 575 322 521 322 l 728 322 q 773 170 773 241 q 741 60 773 98 q 662 9 709 22 q 576 0 627 0 l 79 0 q 8 229 8 73 q 15 294 8 264 q 156 452 75 366 q 308 606 237 538 q 290 621 305 621 q 264 608 280 621 q 214 558 248 595 l 68 558 q 18 718 18 636 m 618 1039 q 610 1020 618 1039 q 588 973 602 1002 q 566 929 573 944 q 553 905 559 914 l 261 905 q 182 1048 234 951 q 168 1096 168 1076 q 182 1127 168 1115 q 225 1140 196 1140 l 359 1140 l 401 1062 q 431 1086 431 1062 q 410 1140 431 1097 l 459 1140 q 511 1141 494 1140 l 584 1141 q 620 1127 606 1141 q 635 1095 635 1114 q 618 1039 635 1076 z "},"ž":{"ha":673,"x_min":-7,"x_max":672,"o":"m 656 568 q 651 514 656 549 q 638 458 646 479 q 487 312 575 372 q 360 294 400 308 q 319 264 319 281 q 327 248 319 253 q 406 272 355 263 q 502 281 456 281 l 633 281 q 661 213 650 251 q 672 147 672 176 q 629 31 672 68 q 536 0 595 0 l 53 0 q -7 197 -7 63 q 10 313 -7 245 q 185 468 72 381 q 235 509 208 486 q 217 525 231 525 q 208 524 214 525 q 125 459 188 517 l 41 459 q 1 600 1 525 q 16 684 1 648 q 53 741 31 721 l 612 741 q 656 568 656 677 m 485 770 l 203 770 q 119 924 161 844 q 104 971 104 952 q 119 1003 104 991 q 162 1016 133 1016 l 296 1016 l 338 938 q 368 962 368 938 q 347 1016 368 972 l 396 1016 q 448 1017 431 1016 l 521 1017 q 557 1003 543 1017 q 572 972 572 990 q 563 930 572 954 q 485 770 553 907 z "},"ƒ":{"ha":589,"x_min":-100,"x_max":655,"o":"m 345 700 q 340 687 340 694 q 347 675 340 680 q 491 654 373 654 q 595 663 547 654 q 599 614 599 652 q 588 534 599 576 q 559 469 578 492 l 456 469 l 433 180 q 332 -75 419 3 q 131 -142 258 -142 q -43 -79 20 -142 q -100 55 -100 -22 q -57 183 -100 132 q 69 238 -9 238 q 159 212 120 238 q 208 149 195 188 q 213 149 210 149 l 217 149 q 238 168 238 149 q 228 196 238 179 q 200 227 218 212 q 83 268 155 265 l 98 469 l 31 469 q 11 566 11 510 q 68 751 11 673 l 114 751 q 224 916 144 859 q 424 973 304 973 q 569 949 509 973 q 654 893 629 924 q 655 883 655 886 l 655 872 q 614 703 655 783 q 485 685 565 685 q 345 700 405 685 z "},"Ș":{"ha":790,"x_min":-5,"x_max":809,"o":"m 526 104 q 506 90 512 104 q 570 19 548 64 q 592 -85 592 -27 q 529 -256 592 -194 q 391 -313 472 -313 q 318 -288 342 -313 q 293 -232 293 -264 q 302 -187 293 -201 q 334 -198 309 -193 q 385 -203 358 -203 q 430 -196 411 -203 q 449 -176 449 -189 q 444 -160 449 -170 q 380 -173 418 -173 q 287 -135 323 -173 q 250 -39 250 -98 q 253 -5 250 -19 q 54 53 145 8 q 3 201 3 122 q 55 330 3 279 q 183 380 107 380 q 308 349 260 380 q 380 247 357 317 q 402 270 402 251 q 390 312 402 288 q 355 356 378 335 q 192 410 295 410 q 97 393 141 410 q 22 469 50 417 q -5 580 -5 520 q 125 817 -5 735 q 401 887 235 887 q 598 861 503 887 q 743 800 694 835 q 758 707 758 755 q 746 620 758 659 q 708 557 733 582 q 625 591 685 574 q 515 609 564 609 q 449 603 465 609 q 432 584 432 597 q 434 572 432 578 q 495 578 458 578 q 711 514 626 578 q 809 292 809 438 q 757 133 809 204 q 607 23 705 62 q 526 104 563 104 z "},"ș":{"ha":707,"x_min":8,"x_max":706,"o":"m 706 264 q 706 222 706 264 q 667 122 706 180 q 555 31 627 64 q 530 68 545 53 q 503 83 515 83 q 484 69 491 83 q 543 -91 543 12 q 480 -256 543 -194 q 342 -313 423 -313 q 269 -288 294 -313 q 244 -232 244 -264 q 253 -187 244 -201 q 285 -198 260 -193 q 336 -203 309 -203 q 381 -196 362 -203 q 400 -176 400 -189 q 395 -160 400 -170 q 332 -173 370 -173 q 238 -135 274 -173 q 201 -39 201 -98 q 206 3 201 -14 q 66 71 113 24 q 14 194 14 121 q 30 258 14 229 q 66 301 46 288 q 175 247 104 270 q 325 224 245 224 q 357 242 357 224 q 355 256 357 250 q 343 255 350 255 l 336 255 q 106 312 192 255 q 8 494 8 376 q 96 684 8 611 q 362 764 193 764 q 518 746 446 764 q 642 699 590 728 q 654 617 654 671 q 609 490 654 534 q 525 522 574 509 q 435 534 475 534 q 385 532 395 534 q 367 511 367 526 l 367 507 q 368 503 367 504 q 387 504 375 504 l 404 504 q 548 480 481 504 q 659 406 616 457 q 706 264 706 347 z "},"Ț":{"ha":819,"x_min":5,"x_max":814,"o":"m 235 52 q 212 123 212 81 l 212 559 l 54 559 q 5 712 5 629 q 23 810 5 768 q 67 875 41 852 l 768 875 q 801 801 788 844 q 814 715 814 758 q 779 597 814 635 q 684 559 743 559 l 485 559 q 483 549 483 555 q 497 533 483 537 q 561 528 512 528 l 608 528 l 608 52 q 559 20 588 35 q 586 -85 586 -31 q 523 -256 586 -194 q 385 -313 466 -313 q 312 -288 336 -313 q 287 -232 287 -264 q 296 -187 287 -201 q 328 -198 303 -193 q 378 -203 352 -203 q 424 -196 405 -203 q 443 -176 443 -189 q 437 -160 443 -170 q 374 -173 412 -173 q 280 -135 317 -173 q 244 -39 244 -98 q 326 92 244 52 q 317 109 321 104 q 300 113 313 113 q 266 95 288 113 q 235 52 243 77 z "},"ț":{"ha":602,"x_min":8,"x_max":593,"o":"m 17 661 q 123 735 56 685 q 173 882 142 781 q 182 908 177 895 q 303 922 235 922 q 437 907 371 922 l 437 741 l 554 741 q 593 601 593 682 q 583 526 593 564 q 554 460 573 487 l 457 460 l 457 357 q 530 271 457 271 l 559 271 q 573 181 573 219 q 506 32 573 82 q 476 74 496 53 q 442 95 456 95 q 423 81 427 95 q 495 -84 495 26 q 432 -256 495 -194 q 294 -313 375 -313 q 221 -288 245 -313 q 196 -232 196 -264 q 205 -187 196 -201 q 237 -198 212 -193 q 288 -203 261 -203 q 333 -196 314 -203 q 352 -176 352 -189 q 347 -160 352 -170 q 283 -173 321 -173 q 190 -135 226 -173 q 153 -39 153 -98 q 174 43 153 6 q 100 233 100 107 l 100 429 l 142 429 q 176 451 176 429 q 175 459 176 454 l 23 459 q 8 565 8 507 q 17 661 8 624 z "},"ˆ":{"ha":494,"x_min":14,"x_max":480,"o":"m 228 905 l 244 851 l 228 816 q 154 804 197 804 q 71 820 110 804 q 14 864 32 836 l 94 1110 q 161 1133 119 1124 q 239 1141 203 1141 q 386 1115 334 1141 l 480 846 q 427 816 462 827 q 357 804 393 804 q 293 811 321 804 q 287 831 291 817 q 263 905 282 845 q 242 975 243 965 q 222 970 228 975 q 217 953 217 965 q 228 905 217 941 z "},"ˇ":{"ha":494,"x_min":14,"x_max":481,"o":"m 389 758 q 256 738 329 738 q 188 744 229 738 q 119 760 147 749 q 58 868 92 806 q 18 946 24 930 q 14 974 14 957 q 28 1003 14 991 q 71 1016 42 1016 l 205 1016 l 247 938 q 277 962 277 938 q 256 1016 277 972 l 305 1016 q 357 1017 340 1016 l 430 1017 q 466 1003 452 1017 q 481 972 481 990 q 471 928 481 954 q 434 847 461 903 q 389 758 408 790 z "},"ˉ":{"ha":500,"x_min":14,"x_max":487,"o":"m 55 848 q 14 975 14 909 q 55 1103 14 1041 l 446 1103 q 487 975 487 1038 q 446 848 487 912 l 55 848 z "},"˘":{"ha":519,"x_min":14,"x_max":505,"o":"m 14 989 q 49 1080 14 1047 q 119 1114 85 1114 q 174 1062 136 1084 q 257 1041 212 1041 q 339 1060 302 1041 q 394 1114 376 1079 q 467 1080 429 1114 q 505 989 505 1046 q 446 873 505 920 q 259 819 378 819 q 74 873 140 819 q 14 989 14 921 z "},"˙":{"ha":328,"x_min":14,"x_max":315,"o":"m 58 1098 q 163 1142 102 1142 q 271 1098 225 1142 q 315 990 315 1053 q 273 885 315 928 q 164 841 229 841 q 56 884 99 841 q 14 990 14 928 q 58 1098 14 1053 z "},"˚":{"ha":376,"x_min":14,"x_max":362,"o":"m 64 856 q 39 881 64 856 q 14 979 14 907 q 64 1103 14 1052 q 188 1154 115 1154 q 311 1103 260 1154 q 362 979 362 1052 q 311 856 362 907 q 188 805 260 805 q 64 856 115 805 z "},"˛":{"ha":404,"x_min":14,"x_max":390,"o":"m 119 22 l 119 39 q 146 107 119 80 q 222 135 174 135 q 298 107 270 135 q 327 33 327 80 l 327 -1 q 277 -12 290 -1 q 264 -36 264 -23 q 274 -57 264 -49 q 302 -66 283 -66 q 339 -56 321 -66 q 390 -150 390 -85 q 340 -251 390 -215 q 209 -287 290 -287 q 75 -248 127 -287 q 14 -123 14 -205 q 119 22 14 -18 z "},"˜":{"ha":431,"x_min":14,"x_max":418,"o":"m 292 884 q 209 894 243 884 q 158 912 175 905 q 129 923 140 919 l 17 923 q 14 988 14 949 l 14 1015 q 41 1114 14 1078 q 139 1156 73 1156 q 200 1150 179 1156 q 227 1143 221 1145 q 238 1140 233 1141 q 255 1134 243 1138 q 275 1127 267 1130 l 411 1127 q 418 1021 418 1080 q 391 926 418 962 q 292 884 358 884 z "},"˝":{"ha":604,"x_min":14,"x_max":591,"o":"m 534 914 q 404 829 482 866 l 317 787 q 275 801 298 788 q 243 827 252 814 l 260 840 q 380 1034 380 926 q 361 1105 380 1079 l 387 1157 l 457 1157 q 556 1124 521 1157 q 591 1030 591 1091 q 534 914 591 969 m 347 1031 q 237 864 347 945 l 109 770 q 14 831 40 787 l 150 1157 l 213 1157 q 312 1124 277 1157 q 347 1031 347 1091 z "},"π":{"ha":833,"x_min":-20,"x_max":853,"o":"m 430 122 l 430 439 q 463 445 454 439 q 471 469 471 450 l 389 469 l 389 121 q 412 35 389 63 q 325 1 366 9 q 240 -7 285 -7 q 105 25 155 -7 q 56 122 56 58 l 56 469 l 19 469 q -20 608 -20 526 q 19 750 -20 690 l 814 750 q 853 611 853 694 q 814 469 853 529 l 777 469 l 777 45 q 613 -7 700 -7 q 478 25 526 -7 q 430 122 430 58 z "},"ऀ":{"ha":0,"x_min":-450,"x_max":42,"o":"m -302 1036 q -302 1056 -302 1036 q -273 1105 -302 1077 q -202 1133 -243 1133 q -133 1104 -160 1133 q -106 1035 -106 1075 q -135 966 -106 994 q -204 937 -163 937 q -273 966 -244 937 q -302 1036 -302 995 m -337 1022 l -337 1015 q -410 1047 -377 1017 q -450 1140 -450 1084 q -389 1257 -450 1208 q -204 1311 -323 1311 q -18 1257 -85 1311 q 42 1140 42 1209 q 4 1050 42 1084 q -70 1016 -35 1016 l -70 1021 q -107 1125 -70 1086 q -204 1163 -145 1163 q -300 1125 -263 1163 q -337 1022 -337 1086 z "},"ँ":{"ha":0,"x_min":-450,"x_max":42,"o":"m -273 1143 q -287 1157 -273 1143 q -302 1213 -302 1171 q -273 1282 -302 1254 q -204 1311 -245 1311 q -135 1283 -163 1311 q -106 1214 -106 1255 q -133 1144 -106 1173 q -202 1116 -160 1116 q -273 1143 -243 1116 m -337 1226 q -300 1123 -337 1162 q -204 1085 -263 1085 q -107 1124 -144 1085 q -70 1227 -70 1162 l -70 1232 q 4 1199 -34 1232 q 42 1108 42 1165 q -18 991 42 1039 q -204 937 -85 937 q -389 991 -323 937 q -450 1108 -450 1040 q -410 1201 -450 1164 q -337 1233 -377 1232 l -337 1226 z "},"ं":{"ha":0,"x_min":-330,"x_max":-31,"o":"m -288 976 q -309 997 -288 976 q -330 1082 -330 1019 q -287 1189 -330 1145 q -182 1234 -244 1234 q -75 1190 -120 1234 q -31 1081 -31 1144 q -72 975 -31 1017 q -180 933 -113 933 q -288 976 -246 933 z "},"ः":{"ha":356,"x_min":-56,"x_max":410,"o":"m 176 707 q 103 694 139 707 q 46 656 68 680 l -14 656 q -56 778 -56 713 q -46 841 -56 812 q -14 903 -36 869 l 368 903 q 399 842 389 869 q 410 778 410 815 q 368 656 410 714 l 311 656 q 176 707 267 707 m 284 397 q 216 422 245 422 q 186 396 186 422 q 293 352 251 393 q 338 237 338 307 q 291 124 338 167 q 177 81 244 81 q 64 127 110 81 q 18 239 18 173 q 39 320 18 283 q 98 377 61 357 q 39 434 60 397 q 18 519 18 471 q 63 631 18 585 q 177 677 109 677 q 291 634 244 677 q 338 516 338 591 q 284 397 338 442 z "},"ऄ":{"ha":1048,"x_min":14,"x_max":1104,"o":"m 656 933 q 488 985 543 933 q 441 1100 441 1029 q 516 1252 441 1191 l 578 1244 q 604 1210 584 1221 q 736 1185 636 1193 q 905 1149 843 1176 q 1006 1053 978 1119 q 1020 976 1020 1019 q 1006 903 1020 933 l 1063 903 q 1095 840 1086 867 q 1104 778 1104 814 q 1063 656 1104 713 l 1029 656 l 1029 261 q 1038 187 1029 216 q 1067 132 1046 157 q 1007 31 1055 68 q 892 -5 959 -5 q 775 24 825 -5 q 707 113 724 54 q 748 259 748 180 q 728 352 748 314 q 691 384 711 384 q 674 372 678 384 q 712 261 712 329 q 619 70 712 143 q 369 -3 526 -3 q 125 77 230 -3 q 14 290 14 162 q 75 424 14 377 q 201 463 125 461 q 253 325 202 377 q 389 273 303 273 q 430 296 430 273 q 428 308 430 302 q 393 304 412 304 q 278 346 319 304 q 236 457 236 388 q 280 567 236 526 q 389 608 324 608 q 420 606 412 608 q 422 615 422 610 q 377 639 422 639 q 286 610 332 639 q 214 531 239 582 q 82 603 131 538 q 39 726 39 660 q 155 859 85 808 q 370 924 248 924 q 612 848 524 924 q 700 646 700 772 q 693 591 700 611 q 709 587 699 587 q 728 605 720 587 q 736 654 736 623 q 671 838 736 763 q 711 903 675 876 l 806 903 q 816 913 816 905 q 753 936 816 936 l 656 933 z "},"अ":{"ha":1046,"x_min":14,"x_max":1104,"o":"m 748 259 q 728 352 748 314 q 691 384 711 384 q 674 372 678 384 q 712 261 712 329 q 619 70 712 143 q 369 -3 526 -3 q 125 77 230 -3 q 14 290 14 162 q 75 424 14 377 q 201 463 125 461 q 253 325 202 377 q 389 273 303 273 q 430 296 430 273 q 428 308 430 302 q 393 304 412 304 q 278 346 319 304 q 236 457 236 388 q 280 567 236 526 q 389 608 324 608 q 420 606 412 608 q 422 615 422 610 q 377 639 422 639 q 286 610 332 639 q 214 531 239 582 q 82 603 131 538 q 39 726 39 660 q 155 859 85 808 q 370 924 248 924 q 612 848 524 924 q 700 646 700 772 q 693 591 700 611 q 709 587 699 587 q 728 605 720 587 q 736 654 736 623 q 671 838 736 763 q 711 903 675 876 l 1063 903 q 1095 840 1086 867 q 1104 778 1104 814 q 1063 656 1104 713 l 1029 656 l 1029 261 q 1038 187 1029 216 q 1067 132 1046 157 q 1007 31 1055 68 q 892 -5 959 -5 q 775 24 825 -5 q 707 113 724 54 q 748 259 748 180 z "},"आ":{"ha":1407,"x_min":14,"x_max":1464,"o":"m 1389 261 q 1398 187 1389 216 q 1428 132 1407 157 q 1367 31 1415 68 q 1249 -5 1319 -5 q 1153 15 1197 -5 q 1085 73 1109 35 q 1105 146 1101 106 q 1080 181 1087 165 q 1065 263 1065 212 l 1065 656 l 1029 656 l 1029 261 q 1038 187 1029 216 q 1067 132 1046 157 q 1007 31 1055 68 q 892 -5 959 -5 q 775 24 825 -5 q 707 113 724 54 q 748 259 748 180 q 728 352 748 314 q 691 384 711 384 q 674 372 678 384 q 712 261 712 329 q 619 70 712 143 q 369 -3 526 -3 q 125 77 230 -3 q 14 290 14 162 q 75 424 14 377 q 201 463 125 461 q 253 325 202 377 q 389 273 303 273 q 430 296 430 273 q 428 308 430 302 q 393 304 412 304 q 278 346 319 304 q 236 457 236 388 q 280 567 236 526 q 389 608 324 608 q 420 606 412 608 q 422 615 422 610 q 377 639 422 639 q 286 610 332 639 q 214 531 239 582 q 82 603 131 538 q 39 726 39 660 q 155 859 85 808 q 370 924 248 924 q 612 848 524 924 q 700 646 700 772 q 693 591 700 611 q 709 587 699 587 q 728 605 720 587 q 736 654 736 623 q 671 838 736 763 q 711 903 675 876 l 1423 903 q 1455 840 1446 867 q 1464 778 1464 814 q 1423 656 1464 713 l 1389 656 l 1389 261 z "},"इ":{"ha":749,"x_min":-58,"x_max":802,"o":"m 375 510 q 376 501 375 508 q 460 517 412 517 q 658 450 580 517 q 736 273 736 383 q 643 85 736 153 q 424 11 561 24 q 477 -14 424 -14 q 552 -1 507 -14 q 615 25 597 12 q 625 -45 625 -12 q 583 -155 625 -115 q 467 -195 541 -195 q 336 -141 393 -195 q 240 14 279 -87 q 62 61 133 27 q 28 185 28 126 q 80 308 28 260 q 213 355 132 355 q 348 308 294 355 q 408 194 401 261 q 431 221 431 195 q 417 275 431 246 q 377 327 403 303 q 220 386 315 386 q 138 376 174 386 q 87 355 115 370 q 45 419 62 382 q 28 509 28 456 q 93 642 28 589 q 251 694 158 694 l 367 694 q 368 701 368 696 q 331 725 368 725 l 251 725 q 58 656 131 725 l -17 656 q -58 778 -58 713 q -48 841 -58 812 q -17 903 -39 869 l 760 903 q 791 842 781 869 q 802 778 802 815 q 760 656 802 714 l 682 656 l 682 586 q 670 537 682 559 q 640 507 658 515 q 473 547 570 547 q 375 510 375 547 z "},"ई":{"ha":749,"x_min":-58,"x_max":802,"o":"m 375 510 q 376 501 375 508 q 460 517 412 517 q 658 450 580 517 q 736 273 736 383 q 643 85 736 153 q 424 11 561 24 q 477 -14 424 -14 q 552 -1 507 -14 q 615 25 597 12 q 625 -45 625 -12 q 583 -155 625 -115 q 467 -195 541 -195 q 336 -141 393 -195 q 240 14 279 -87 q 62 61 133 27 q 28 185 28 126 q 80 308 28 260 q 213 355 132 355 q 348 308 294 355 q 408 194 401 261 q 431 221 431 195 q 417 275 431 246 q 377 327 403 303 q 220 386 315 386 q 138 376 174 386 q 87 355 115 370 q 45 419 62 382 q 28 509 28 456 q 93 642 28 589 q 251 694 158 694 l 367 694 q 368 701 368 696 q 331 725 368 725 l 251 725 q 58 656 131 725 l -17 656 q -58 778 -58 713 q -48 841 -58 812 q -17 903 -39 869 l 380 903 q 295 1069 295 966 q 358 1222 295 1163 q 526 1280 420 1280 q 668 1229 611 1280 q 726 1097 726 1177 q 711 1015 726 1053 l 626 991 q 583 971 596 983 q 570 941 570 960 q 600 903 570 913 l 760 903 q 791 842 781 869 q 802 778 802 815 q 760 656 802 714 l 682 656 l 682 586 q 670 537 682 559 q 640 507 658 515 q 473 547 570 547 q 375 510 375 547 z "},"उ":{"ha":756,"x_min":-52,"x_max":813,"o":"m 307 627 q 392 619 346 619 q 437 640 437 619 q 435 656 437 650 l -10 656 q -52 778 -52 713 q -42 841 -52 812 q -10 903 -32 869 l 772 903 q 813 776 813 839 q 772 656 813 713 l 715 656 l 715 575 q 700 489 715 528 q 660 429 684 450 q 718 367 693 408 q 743 267 743 326 q 649 75 743 146 q 392 4 556 4 q 121 89 228 4 q 14 304 14 174 q 73 438 14 393 q 200 476 122 476 q 249 351 200 401 q 385 300 298 300 q 428 307 406 300 q 450 328 450 313 q 446 343 450 336 q 390 330 418 330 q 280 371 323 330 q 236 479 236 412 q 307 627 236 573 z "},"ऊ":{"ha":1219,"x_min":-52,"x_max":1267,"o":"m 307 627 q 392 619 346 619 q 437 640 437 619 q 435 656 437 650 l -10 656 q -52 778 -52 713 q -42 841 -52 812 q -10 903 -32 869 l 1225 903 q 1257 842 1246 869 q 1267 778 1267 815 q 1225 656 1267 714 l 786 656 q 774 721 786 694 q 747 747 763 747 q 729 736 735 747 q 750 656 750 710 q 700 547 750 590 q 708 540 702 545 q 720 526 713 535 q 918 603 802 603 q 1116 529 1034 603 q 1205 311 1205 448 q 1130 114 1205 189 q 946 39 1055 39 q 802 85 855 39 q 747 211 747 130 q 765 292 747 256 q 812 346 783 328 q 853 329 830 329 q 887 337 876 329 q 898 359 898 345 q 848 392 898 392 q 758 347 799 392 q 711 212 711 294 q 716 171 711 193 q 725 138 720 148 q 602 45 694 87 q 397 4 511 4 q 123 90 233 4 q 14 304 14 176 q 73 438 14 393 q 200 476 122 476 q 249 351 200 401 q 385 300 298 300 q 428 307 406 300 q 450 328 450 313 q 446 343 450 336 q 390 330 418 330 q 280 371 323 330 q 236 479 236 412 q 307 627 236 573 z "},"ऋ":{"ha":1192,"x_min":-75,"x_max":1240,"o":"m 485 590 q 500 608 500 593 q 481 647 500 624 q 432 690 463 669 q 248 741 353 741 q 125 715 178 741 q 43 656 73 690 l -33 656 q -75 778 -75 714 q -65 842 -75 815 q -33 903 -55 869 l 1198 903 q 1230 842 1219 869 q 1240 778 1240 815 q 1198 656 1240 714 l 1114 656 q 1047 701 1090 683 q 938 720 1003 720 q 798 671 856 720 q 741 550 741 623 q 770 478 741 478 q 784 481 779 478 q 777 539 777 507 q 823 650 777 609 q 937 690 870 690 q 1076 647 1029 690 q 1122 536 1122 604 q 1097 464 1122 489 q 1041 485 1065 485 q 1014 465 1017 485 q 1123 399 1074 452 q 1178 258 1178 338 q 1117 102 1178 159 q 966 45 1057 45 q 842 79 890 45 q 778 223 778 125 q 779 269 778 240 q 810 265 791 265 q 882 281 851 265 q 912 316 912 297 q 903 330 912 325 q 796 296 868 296 q 745 304 772 296 q 742 224 742 265 q 749 153 742 182 q 771 100 756 124 q 706 23 752 52 q 598 -5 661 -5 q 485 27 536 -5 q 418 123 434 60 q 499 231 490 218 q 509 260 509 246 q 493 279 509 273 l 393 155 q 307 77 351 102 q 200 52 264 52 q 94 94 137 52 q 43 227 43 143 q 45 273 43 256 l 340 412 q 342 431 342 422 q 333 447 342 439 q 311 454 324 454 q 288 446 297 454 q 279 421 279 437 l 102 338 q 40 395 66 353 q 13 490 13 437 q 82 649 13 587 q 248 711 152 711 q 485 590 402 711 z "},"ऌ":{"ha":1022,"x_min":-58,"x_max":1075,"o":"m 154 656 q -17 656 154 656 q -58 778 -58 713 q -48 841 -58 812 q -17 903 -39 869 l 1034 903 q 1066 840 1057 867 q 1075 778 1075 814 q 1034 656 1075 713 l 880 656 l 880 623 q 968 531 932 597 q 1004 384 1004 465 q 948 210 1004 286 q 873 233 912 224 q 826 171 863 204 q 742 127 790 138 q 747 112 742 116 q 762 108 752 108 q 834 136 795 108 q 893 199 873 163 q 973 153 944 185 q 1010 54 1010 113 q 933 -91 1010 -40 q 748 -142 856 -142 q 571 -93 640 -142 q 503 47 503 -43 q 554 174 503 119 q 602 216 574 195 q 686 288 663 261 q 701 325 701 305 q 682 345 701 345 q 614 269 661 296 q 510 243 568 243 q 406 273 453 243 q 339 354 359 302 q 325 348 330 354 q 319 332 319 341 q 369 255 319 292 q 475 212 419 218 q 490 146 490 178 q 447 38 490 81 q 323 -5 404 -5 q 205 21 262 -5 q 106 96 149 48 q 14 353 14 200 q 88 561 14 474 q 307 657 171 657 q 418 625 365 657 q 504 532 471 592 q 561 604 524 575 q 636 637 598 633 q 630 655 636 650 q 611 660 624 660 q 556 639 587 660 q 504 589 526 618 q 418 660 473 633 q 296 688 363 688 q 154 656 228 688 z "},"ऍ":{"ha":705,"x_min":-59,"x_max":762,"o":"m 467 224 q 616 258 549 224 q 658 138 658 201 q 600 14 658 55 q 467 -21 549 -21 q 133 124 254 -21 q 18 488 18 262 l 18 656 l -18 656 q -59 778 -59 713 q -49 841 -59 812 q -18 903 -39 869 l 720 903 q 752 842 742 869 q 762 778 762 815 q 720 656 762 714 l 677 656 q 691 553 691 606 q 614 307 691 382 q 467 254 560 254 q 333 311 387 254 q 324 292 324 302 q 367 244 324 264 q 467 224 410 224 m 336 532 q 367 552 353 532 q 381 605 381 572 q 374 656 381 638 l 336 656 l 336 532 m 115 1108 q 150 1199 115 1166 q 220 1232 186 1232 q 275 1181 237 1202 q 358 1160 313 1160 q 440 1179 403 1160 q 495 1232 477 1198 q 568 1199 530 1232 q 606 1108 606 1165 q 547 991 606 1039 q 360 937 479 937 q 175 991 241 937 q 115 1108 115 1040 z "},"ऎ":{"ha":705,"x_min":-59,"x_max":762,"o":"m 336 532 q 367 552 353 532 q 381 605 381 572 q 374 656 381 638 l 336 656 l 336 532 m 298 933 q 130 985 184 933 q 83 1100 83 1029 q 157 1252 83 1191 l 220 1244 q 245 1210 225 1221 q 377 1185 277 1193 q 547 1149 484 1176 q 647 1053 619 1119 q 661 976 661 1019 q 647 903 661 933 l 720 903 q 752 842 742 869 q 762 778 762 815 q 720 656 762 714 l 677 656 q 691 553 691 606 q 614 307 691 382 q 467 254 560 254 q 333 311 387 254 q 324 292 324 302 q 367 244 324 264 q 467 224 410 224 q 616 258 549 224 q 658 138 658 201 q 600 14 658 55 q 467 -21 549 -21 q 133 124 254 -21 q 18 488 18 262 l 18 656 l -18 656 q -59 778 -59 713 q -49 841 -59 812 q -18 903 -39 869 l 447 903 q 457 913 457 905 q 395 936 457 936 l 298 933 z "},"ए":{"ha":705,"x_min":-59,"x_max":762,"o":"m 467 224 q 616 258 549 224 q 658 138 658 201 q 600 14 658 55 q 467 -21 549 -21 q 133 124 254 -21 q 18 488 18 262 l 18 656 l -18 656 q -59 778 -59 713 q -49 841 -59 812 q -18 903 -39 869 l 720 903 q 752 842 742 869 q 762 778 762 815 q 720 656 762 714 l 677 656 q 691 553 691 606 q 614 307 691 382 q 467 254 560 254 q 333 311 387 254 q 324 292 324 302 q 367 244 324 264 q 467 224 410 224 m 336 532 q 367 552 353 532 q 381 605 381 572 q 374 656 381 638 l 336 656 l 336 532 z "},"ऐ":{"ha":705,"x_min":-59,"x_max":762,"o":"m 336 532 q 367 552 353 532 q 381 605 381 572 q 374 656 381 638 l 336 656 l 336 532 m 467 224 q 616 258 549 224 q 658 138 658 201 q 600 14 658 55 q 467 -21 549 -21 q 133 124 254 -21 q 18 488 18 262 l 18 656 l -18 656 q -59 778 -59 713 q -49 841 -59 812 q -18 903 -39 869 l 435 903 q 451 908 446 903 q 456 920 456 913 q 452 933 456 927 q 272 958 348 933 q 133 1050 176 988 q 195 1207 133 1147 q 340 1267 257 1267 q 564 1156 483 1267 q 640 903 638 1056 l 720 903 q 752 842 742 869 q 762 778 762 815 q 720 656 762 714 l 677 656 q 691 553 691 606 q 614 307 691 382 q 467 254 560 254 q 333 311 387 254 q 324 292 324 302 q 367 244 324 264 q 467 224 410 224 z "},"ऑ":{"ha":1407,"x_min":14,"x_max":1464,"o":"m 933 1108 q 969 1199 933 1166 q 1039 1232 1004 1232 q 1094 1181 1056 1202 q 1177 1160 1132 1160 q 1258 1179 1221 1160 q 1314 1232 1295 1198 q 1387 1199 1349 1232 q 1425 1108 1425 1165 q 1365 991 1425 1039 q 1179 937 1297 937 q 994 991 1060 937 q 933 1108 933 1040 m 1389 261 q 1398 187 1389 216 q 1428 132 1407 157 q 1367 31 1415 68 q 1249 -5 1319 -5 q 1153 15 1197 -5 q 1085 73 1109 35 q 1105 146 1101 106 q 1080 181 1087 165 q 1065 263 1065 212 l 1065 656 l 1029 656 l 1029 261 q 1038 187 1029 216 q 1067 132 1046 157 q 1007 31 1055 68 q 892 -5 959 -5 q 775 24 825 -5 q 707 113 724 54 q 748 259 748 180 q 728 352 748 314 q 691 384 711 384 q 674 372 678 384 q 712 261 712 329 q 619 70 712 143 q 369 -3 526 -3 q 125 77 230 -3 q 14 290 14 162 q 75 424 14 377 q 201 463 125 461 q 253 325 202 377 q 389 273 303 273 q 430 296 430 273 q 428 308 430 302 q 393 304 412 304 q 278 346 319 304 q 236 457 236 388 q 280 567 236 526 q 389 608 324 608 q 420 606 412 608 q 422 615 422 610 q 377 639 422 639 q 286 610 332 639 q 214 531 239 582 q 82 603 131 538 q 39 726 39 660 q 155 859 85 808 q 370 924 248 924 q 612 848 524 924 q 700 646 700 772 q 693 591 700 611 q 709 587 699 587 q 728 605 720 587 q 736 654 736 623 q 671 838 736 763 q 711 903 675 876 l 1423 903 q 1455 840 1446 867 q 1464 778 1464 814 q 1423 656 1464 713 l 1389 656 l 1389 261 z "},"ऒ":{"ha":1407,"x_min":14,"x_max":1464,"o":"m 1008 933 q 840 985 894 933 q 793 1100 793 1029 q 867 1252 793 1191 l 930 1244 q 956 1210 935 1221 q 1087 1185 987 1193 q 1257 1149 1194 1176 q 1357 1053 1329 1119 q 1371 976 1371 1019 q 1357 903 1371 933 l 1423 903 q 1455 840 1446 867 q 1464 778 1464 814 q 1423 656 1464 713 l 1389 656 l 1389 261 q 1398 187 1389 216 q 1428 132 1407 157 q 1367 31 1415 68 q 1249 -5 1319 -5 q 1153 15 1197 -5 q 1085 73 1109 35 q 1105 146 1101 106 q 1080 181 1087 165 q 1065 263 1065 212 l 1065 656 l 1029 656 l 1029 261 q 1038 187 1029 216 q 1067 132 1046 157 q 1007 31 1055 68 q 892 -5 959 -5 q 775 24 825 -5 q 707 113 724 54 q 748 259 748 180 q 728 352 748 314 q 691 384 711 384 q 674 372 678 384 q 712 261 712 329 q 619 70 712 143 q 369 -3 526 -3 q 125 77 230 -3 q 14 290 14 162 q 75 424 14 377 q 201 463 125 461 q 253 325 202 377 q 389 273 303 273 q 430 296 430 273 q 428 308 430 302 q 393 304 412 304 q 278 346 319 304 q 236 457 236 388 q 280 567 236 526 q 389 608 324 608 q 420 606 412 608 q 422 615 422 610 q 377 639 422 639 q 286 610 332 639 q 214 531 239 582 q 82 603 131 538 q 39 726 39 660 q 155 859 85 808 q 370 924 248 924 q 612 848 524 924 q 700 646 700 772 q 693 591 700 611 q 709 587 699 587 q 728 605 720 587 q 736 654 736 623 q 671 838 736 763 q 711 903 675 876 l 1157 903 q 1167 913 1167 905 q 1105 936 1167 936 l 1008 933 z "},"ओ":{"ha":1407,"x_min":14,"x_max":1464,"o":"m 1389 261 q 1398 187 1389 216 q 1428 132 1407 157 q 1367 31 1415 68 q 1249 -5 1319 -5 q 1153 15 1197 -5 q 1085 73 1109 35 q 1105 146 1101 106 q 1080 181 1087 165 q 1065 263 1065 212 l 1065 656 l 1029 656 l 1029 261 q 1038 187 1029 216 q 1067 132 1046 157 q 1007 31 1055 68 q 892 -5 959 -5 q 775 24 825 -5 q 707 113 724 54 q 748 259 748 180 q 728 352 748 314 q 691 384 711 384 q 674 372 678 384 q 712 261 712 329 q 619 70 712 143 q 369 -3 526 -3 q 125 77 230 -3 q 14 290 14 162 q 75 424 14 377 q 201 463 125 461 q 253 325 202 377 q 389 273 303 273 q 430 296 430 273 q 428 308 430 302 q 393 304 412 304 q 278 346 319 304 q 236 457 236 388 q 280 567 236 526 q 389 608 324 608 q 420 606 412 608 q 422 615 422 610 q 377 639 422 639 q 286 610 332 639 q 214 531 239 582 q 82 603 131 538 q 39 726 39 660 q 155 859 85 808 q 370 924 248 924 q 612 848 524 924 q 700 646 700 772 q 693 591 700 611 q 709 587 699 587 q 728 605 720 587 q 736 654 736 623 q 671 838 736 763 q 711 903 675 876 l 1158 903 q 1174 908 1168 903 q 1179 920 1179 913 q 1175 933 1179 927 q 995 958 1071 933 q 856 1050 899 988 q 918 1207 856 1147 q 1063 1267 980 1267 q 1287 1156 1206 1267 q 1362 903 1361 1056 l 1423 903 q 1455 840 1446 867 q 1464 778 1464 814 q 1423 656 1464 713 l 1389 656 l 1389 261 z "},"औ":{"ha":1407,"x_min":14,"x_max":1464,"o":"m 1356 903 l 1423 903 q 1455 840 1446 867 q 1464 778 1464 814 q 1423 656 1464 713 l 1389 656 l 1389 261 q 1398 187 1389 216 q 1428 132 1407 157 q 1367 31 1415 68 q 1249 -5 1319 -5 q 1153 15 1197 -5 q 1085 73 1109 35 q 1105 146 1101 106 q 1080 181 1087 165 q 1065 263 1065 212 l 1065 656 l 1029 656 l 1029 261 q 1038 187 1029 216 q 1067 132 1046 157 q 1007 31 1055 68 q 892 -5 959 -5 q 775 24 825 -5 q 707 113 724 54 q 748 259 748 180 q 728 352 748 314 q 691 384 711 384 q 674 372 678 384 q 712 261 712 329 q 619 70 712 143 q 369 -3 526 -3 q 125 77 230 -3 q 14 290 14 162 q 75 424 14 377 q 201 463 125 461 q 253 325 202 377 q 389 273 303 273 q 430 296 430 273 q 428 308 430 302 q 393 304 412 304 q 278 346 319 304 q 236 457 236 388 q 280 567 236 526 q 389 608 324 608 q 420 606 412 608 q 422 615 422 610 q 377 639 422 639 q 286 610 332 639 q 214 531 239 582 q 82 603 131 538 q 39 726 39 660 q 155 859 85 808 q 370 924 248 924 q 612 848 524 924 q 700 646 700 772 q 693 591 700 611 q 709 587 699 587 q 728 605 720 587 q 736 654 736 623 q 671 838 736 763 q 711 903 675 876 l 1115 903 q 1142 922 1142 903 q 1140 932 1142 926 q 980 950 1053 932 q 842 1015 886 972 q 894 1157 842 1101 q 1015 1213 946 1213 q 1230 1065 1156 1213 q 1244 1088 1244 1070 q 1228 1133 1244 1107 q 1183 1183 1211 1158 q 1030 1244 1115 1240 q 1072 1338 1031 1302 q 1173 1375 1112 1375 q 1339 1301 1274 1375 q 1401 1110 1401 1228 q 1356 903 1401 1015 z "},"क":{"ha":1118,"x_min":-58,"x_max":1162,"o":"m 372 366 q 380 366 378 366 l 380 450 q 370 451 378 451 q 340 438 351 451 q 329 407 329 425 q 341 377 329 389 q 372 366 353 366 m 758 113 q 578 -5 721 -5 q 446 44 498 -5 q 395 171 395 94 l 395 201 q 359 161 359 201 q 365 123 359 144 q 286 110 335 110 q 90 188 167 110 q 14 386 14 267 q 85 586 14 505 q 288 675 161 675 q 429 633 373 675 q 434 648 434 640 q 392 688 434 670 q 288 705 351 705 q 113 656 189 705 l -17 656 q -58 778 -58 713 q -48 841 -58 812 q -17 903 -39 869 l 1120 903 q 1153 839 1145 864 q 1162 778 1162 814 q 1120 656 1162 714 l 1008 656 q 838 705 934 705 q 734 688 776 705 q 692 645 692 671 q 697 631 692 636 q 838 675 759 675 q 1032 587 955 675 q 1085 498 1067 549 q 1104 396 1104 448 q 1036 192 1104 268 q 873 117 968 117 q 749 160 793 117 q 705 280 705 203 q 726 382 705 330 q 751 374 739 374 q 772 384 764 374 q 780 412 780 395 q 770 440 780 429 q 745 451 760 451 q 722 448 730 451 q 686 379 702 427 q 669 280 669 332 q 758 113 669 164 z "},"ख":{"ha":1066,"x_min":-58,"x_max":1124,"o":"m 386 279 q 503 319 456 279 q 678 239 565 239 q 744 248 713 239 q 774 275 774 256 q 772 287 774 282 q 679 269 729 269 q 549 319 600 269 q 498 447 498 369 q 554 575 498 526 q 688 625 609 625 q 777 610 743 625 q 780 622 780 615 q 744 650 780 642 q 680 656 718 656 q 526 597 589 656 q 463 446 463 535 q 485 348 463 391 q 437 319 469 330 q 373 309 404 309 q 330 311 342 309 q 330 309 330 311 l 330 305 q 349 283 330 288 q 386 279 361 279 m 302 575 q 331 614 331 587 q 315 656 331 640 l -17 656 q -58 778 -58 713 q -48 841 -58 812 q -17 903 -39 869 l 1082 903 q 1115 840 1105 867 q 1124 778 1124 814 q 1082 656 1124 713 l 1048 656 l 1048 261 q 1058 185 1048 215 q 1088 132 1068 156 q 1027 32 1076 68 q 908 -5 979 -5 q 831 7 869 -5 q 770 43 793 20 q 796 121 796 81 q 768 164 796 161 q 711 25 768 78 q 553 -28 654 -28 q 346 47 436 -28 q 182 244 279 103 q 64 309 115 254 q 14 440 14 363 q 60 571 14 516 q 183 625 106 625 q 302 575 260 625 z "},"ग":{"ha":791,"x_min":-58,"x_max":849,"o":"m 459 621 q 426 667 444 650 q 396 684 409 684 q 375 673 382 684 q 435 584 412 639 q 461 447 461 521 q 408 269 461 339 q 222 186 345 186 q 72 239 130 186 q 14 370 14 293 q 36 472 14 424 q 72 464 53 464 q 122 485 104 464 q 140 544 140 505 q 126 612 140 583 q 92 656 111 641 l -17 656 q -58 778 -58 713 q -48 841 -58 812 q -17 903 -39 869 l 808 903 q 840 840 831 867 q 849 778 849 814 q 808 656 849 713 l 774 656 l 774 261 q 783 187 774 216 q 812 132 791 157 q 751 31 800 67 q 628 -5 702 -5 q 504 35 554 -5 q 443 176 443 85 l 443 250 q 497 440 497 333 q 459 621 497 548 z "},"घ":{"ha":747,"x_min":-63,"x_max":805,"o":"m -63 778 q -53 841 -63 812 q -22 903 -43 869 l 764 903 q 796 840 787 867 q 805 778 805 814 q 764 656 805 713 l 730 656 l 730 261 q 740 185 730 215 q 769 132 749 156 q 707 31 756 67 q 595 -5 659 -5 q 482 21 532 -5 q 412 102 432 47 q 475 125 437 106 q 537 169 512 145 q 563 214 563 193 q 549 232 563 227 q 447 148 512 178 q 298 118 382 118 q 116 172 186 118 q 45 314 45 225 q 68 395 45 357 q 124 444 90 431 q 227 427 173 427 q 306 436 280 427 q 332 460 332 446 q 327 472 332 467 q 230 458 280 458 q 104 499 153 458 q 55 611 55 539 q 72 684 55 648 q 126 739 90 720 q 109 753 123 753 q 61 724 85 753 q 27 656 36 695 l -22 656 q -63 778 -63 713 z "},"ङ":{"ha":924,"x_min":-58,"x_max":974,"o":"m 658 334 q 614 437 614 376 q 658 543 614 499 q 763 586 700 586 q 868 543 826 586 q 910 436 910 499 q 867 332 910 373 q 763 290 824 290 q 658 334 701 290 m 429 264 q 428 273 429 266 q 376 271 412 271 q 245 302 306 271 q 149 399 176 337 q 68 370 101 391 q 22 500 22 431 q 87 652 22 595 q 249 710 151 710 q 371 694 314 710 q 373 704 373 700 q 322 736 373 726 q 253 741 295 741 q 47 656 117 741 l -17 656 q -58 778 -58 713 q -48 841 -58 812 q -17 903 -39 869 l 932 903 q 964 842 954 869 q 974 778 974 815 q 932 656 974 714 l 675 656 l 675 596 q 591 510 618 571 q 479 528 537 528 q 365 489 365 528 q 368 478 365 484 q 472 497 413 497 q 580 479 530 497 q 577 439 577 461 q 620 322 577 372 q 729 260 662 272 l 729 256 q 634 52 728 128 q 384 -24 541 -24 q 124 44 227 -24 q 21 222 21 111 q 44 306 21 273 q 131 363 70 345 q 208 286 154 319 q 371 240 280 240 q 429 264 429 240 z "},"च":{"ha":899,"x_min":-58,"x_max":957,"o":"m 957 778 q 916 656 957 713 l 882 656 l 882 261 q 891 185 882 215 q 921 132 901 156 q 859 31 908 67 q 747 -5 810 -5 q 636 16 683 -5 q 562 77 589 38 q 650 131 609 97 q 690 189 690 165 q 676 211 690 203 q 569 117 640 155 q 386 72 488 72 q 170 135 250 72 q 90 306 90 199 q 114 400 90 361 q 43 443 73 404 q 14 537 14 481 q 39 625 14 593 l 529 625 q 558 524 558 581 q 530 433 558 467 q 453 399 500 399 l 399 399 q 387 374 387 389 q 399 351 387 360 q 430 342 412 342 q 465 349 448 342 q 490 371 482 355 q 594 520 594 399 q 581 596 594 559 q 551 656 568 633 l -17 656 q -58 778 -58 713 q -48 841 -58 812 q -17 903 -39 869 l 916 903 q 948 840 939 867 q 957 778 957 814 z "},"छ":{"ha":876,"x_min":-58,"x_max":924,"o":"m 299 456 q 231 484 299 484 q 106 456 163 484 q 66 514 79 475 q 53 596 53 553 q 78 680 53 639 q 144 741 103 722 q 118 755 140 755 q 68 726 96 755 q 28 656 41 697 l -17 656 q -58 778 -58 713 q -48 841 -58 812 q -17 903 -39 869 l 883 903 q 915 840 906 867 q 924 778 924 814 q 883 656 924 713 l 768 656 q 692 677 740 669 l 692 696 q 684 743 692 732 q 656 751 677 751 l 656 679 q 495 615 559 679 q 432 450 432 551 q 488 302 432 366 q 537 260 511 275 q 587 245 564 245 q 602 259 602 245 l 602 262 q 511 325 547 281 q 468 449 468 378 q 520 591 468 534 q 659 648 573 648 q 809 581 755 648 q 863 407 863 513 q 798 166 863 266 q 636 29 738 75 q 418 -17 535 -17 q 133 60 236 -17 q 29 258 29 136 q 88 398 29 342 q 241 454 147 454 q 296 445 277 454 q 298 452 298 450 q 299 456 299 454 z "},"ज":{"ha":937,"x_min":-45,"x_max":995,"o":"m -45 778 q -35 841 -45 812 q -3 903 -25 869 l 954 903 q 986 840 977 867 q 995 778 995 814 q 954 656 995 713 l 920 656 l 920 261 q 928 187 920 216 q 958 132 937 157 q 897 31 945 67 q 784 -5 848 -5 q 672 20 721 -5 q 603 100 623 46 q 689 279 689 178 q 673 355 689 323 q 636 385 658 385 q 623 382 627 385 q 653 279 653 335 q 589 134 653 195 q 392 66 517 66 q 121 159 232 66 q 42 259 70 202 q 14 378 14 315 q 67 512 14 460 q 207 564 121 564 q 204 528 204 550 q 254 387 204 441 q 379 332 303 332 q 416 359 416 332 q 286 405 332 359 q 240 530 240 451 q 247 582 240 553 q 264 625 254 611 l 640 625 q 631 649 640 642 q 593 656 621 656 l -3 656 q -45 778 -45 713 z "},"झ":{"ha":1026,"x_min":-58,"x_max":1084,"o":"m 58 656 q -17 656 58 656 q -58 778 -58 713 q -48 841 -58 812 q -17 903 -39 869 l 1042 903 q 1075 840 1065 867 q 1084 778 1084 814 q 1042 656 1084 713 l 1008 656 l 1008 261 q 1017 187 1008 216 q 1047 132 1026 157 q 987 31 1035 68 q 868 -5 939 -5 q 767 18 814 -5 q 697 86 720 41 q 745 153 724 113 q 765 232 765 193 q 736 265 765 258 q 640 83 732 149 q 424 11 559 24 q 477 -14 424 -14 q 552 -1 507 -14 q 615 25 597 12 q 625 -45 625 -12 q 583 -155 625 -115 q 467 -195 541 -195 q 336 -141 393 -195 q 240 14 279 -87 q 62 61 133 27 q 28 185 28 126 q 80 308 28 260 q 213 355 132 355 q 348 308 294 355 q 408 194 401 261 q 431 221 431 195 q 417 275 431 246 q 377 327 403 303 q 220 386 315 386 q 87 355 142 386 q 45 419 62 382 q 28 509 28 456 q 93 642 28 589 q 251 694 158 694 l 367 694 q 368 701 368 696 q 331 725 368 725 l 251 725 q 58 656 131 725 m 473 517 q 686 450 591 517 q 716 495 707 467 q 725 570 725 524 l 725 653 q 689 708 725 708 l 689 581 q 675 494 689 515 q 479 547 590 547 q 403 538 431 547 q 375 510 375 528 q 376 501 375 508 q 473 517 414 517 z "}}}
